<svg width="577" height="248" viewBox="0 0 577 248" fill="none" xmlns="http://www.w3.org/2000/svg">
<path d="M9.60108 183.653C5.55639 183.653 3.18552 179.101 5.50438 175.787L122.476 8.61763C123.411 7.28055 124.941 6.48416 126.573 6.48416H141.252C144.013 6.48416 146.252 8.72274 146.252 11.4842V146.725C146.252 149.487 148.49 151.725 151.252 151.725H175.775C178.536 151.725 180.775 153.964 180.775 156.725V178.653C180.775 181.415 178.536 183.653 175.775 183.653H151.252C148.49 183.653 146.252 185.892 146.252 188.653V220.598C146.252 223.359 144.013 225.598 141.252 225.598H113.276C110.515 225.598 108.276 223.359 108.276 220.598V188.653C108.276 185.892 106.038 183.653 103.276 183.653H9.60108ZM59.6558 146.717C57.3828 150.035 59.7587 154.542 63.7808 154.542H105.473C108.235 154.542 110.473 152.304 110.473 149.542V88.678C110.473 83.7634 104.126 81.7978 101.348 85.8523L59.6558 146.717Z" fill="#92C02C"/>
<path d="M204.284 116.041C204.284 93.2949 207.84 73.4703 214.954 56.5673C222.068 39.6642 232.006 26.5174 244.769 17.1268C257.742 7.73625 272.702 3.04095 289.649 3.04095C306.806 3.04095 321.766 7.73625 334.529 17.1268C347.501 26.5174 357.544 39.6642 364.658 56.5673C371.772 73.4703 375.329 93.2949 375.329 116.041C375.329 138.578 371.772 158.403 364.658 175.515C357.544 192.418 347.501 205.564 334.529 214.955C321.766 224.346 306.806 229.041 289.649 229.041C272.702 229.041 257.742 224.346 244.769 214.955C232.006 205.564 222.068 192.418 214.954 175.515C207.84 158.403 204.284 138.578 204.284 116.041ZM240.689 116.041C240.689 131.692 242.677 145.569 246.653 157.673C250.628 169.567 256.277 178.958 263.6 185.844C270.923 192.522 279.606 195.861 289.649 195.861C299.692 195.861 308.375 192.522 315.698 185.844C323.021 178.958 328.671 169.567 332.646 157.673C336.831 145.569 338.923 131.692 338.923 116.041C338.923 100.181 336.831 86.3041 332.646 74.4094C328.671 62.5146 323.021 53.2284 315.698 46.5506C308.375 39.6642 299.692 36.221 289.649 36.221C279.606 36.221 270.923 39.6642 263.6 46.5506C256.277 53.2284 250.628 62.5146 246.653 74.4094C242.677 86.3041 240.689 100.181 240.689 116.041Z" fill="#92C02C"/>
<path d="M402.826 183.653C398.782 183.653 396.411 179.101 398.73 175.787L515.701 8.61763C516.637 7.28055 518.166 6.48416 519.798 6.48416H534.477C537.238 6.48416 539.477 8.72274 539.477 11.4842V146.725C539.477 149.487 541.716 151.725 544.477 151.725H569C571.761 151.725 574 153.964 574 156.725V178.653C574 181.415 571.761 183.653 569 183.653H544.477C541.716 183.653 539.477 185.892 539.477 188.653V220.598C539.477 223.359 537.239 225.598 534.477 225.598H506.502C503.74 225.598 501.502 223.359 501.502 220.598V188.653C501.502 185.892 499.263 183.653 496.502 183.653H402.826ZM452.881 146.717C450.608 150.035 452.984 154.542 457.006 154.542H498.699C501.46 154.542 503.699 152.304 503.699 149.542V88.678C503.699 83.7634 497.351 81.7978 494.574 85.8523L452.881 146.717Z" fill="#92C02C"/>
<path d="M9.60108 183.653C5.55639 183.653 3.18552 179.101 5.50438 175.787L122.476 8.61763C123.411 7.28055 124.941 6.48416 126.573 6.48416H141.252C144.013 6.48416 146.252 8.72274 146.252 11.4842V146.725C146.252 149.487 148.49 151.725 151.252 151.725H175.775C178.536 151.725 180.775 153.964 180.775 156.725V178.653C180.775 181.415 178.536 183.653 175.775 183.653H151.252C148.49 183.653 146.252 185.892 146.252 188.653V220.598C146.252 223.359 144.013 225.598 141.252 225.598H113.276C110.515 225.598 108.276 223.359 108.276 220.598V188.653C108.276 185.892 106.038 183.653 103.276 183.653H9.60108ZM59.6558 146.717C57.3828 150.035 59.7587 154.542 63.7808 154.542H105.473C108.235 154.542 110.473 152.304 110.473 149.542V88.678C110.473 83.7634 104.126 81.7978 101.348 85.8523L59.6558 146.717Z" stroke="#92C02C" stroke-width="5"/>
<path d="M204.284 116.041C204.284 93.2949 207.84 73.4703 214.954 56.5673C222.068 39.6642 232.006 26.5174 244.769 17.1268C257.742 7.73625 272.702 3.04095 289.649 3.04095C306.806 3.04095 321.766 7.73625 334.529 17.1268C347.501 26.5174 357.544 39.6642 364.658 56.5673C371.772 73.4703 375.329 93.2949 375.329 116.041C375.329 138.578 371.772 158.403 364.658 175.515C357.544 192.418 347.501 205.564 334.529 214.955C321.766 224.346 306.806 229.041 289.649 229.041C272.702 229.041 257.742 224.346 244.769 214.955C232.006 205.564 222.068 192.418 214.954 175.515C207.84 158.403 204.284 138.578 204.284 116.041ZM240.689 116.041C240.689 131.692 242.677 145.569 246.653 157.673C250.628 169.567 256.277 178.958 263.6 185.844C270.923 192.522 279.606 195.861 289.649 195.861C299.692 195.861 308.375 192.522 315.698 185.844C323.021 178.958 328.671 169.567 332.646 157.673C336.831 145.569 338.923 131.692 338.923 116.041C338.923 100.181 336.831 86.3041 332.646 74.4094C328.671 62.5146 323.021 53.2284 315.698 46.5506C308.375 39.6642 299.692 36.221 289.649 36.221C279.606 36.221 270.923 39.6642 263.6 46.5506C256.277 53.2284 250.628 62.5146 246.653 74.4094C242.677 86.3041 240.689 100.181 240.689 116.041Z" stroke="#92C02C" stroke-width="5"/>
<path d="M402.826 183.653C398.782 183.653 396.411 179.101 398.73 175.787L515.701 8.61763C516.637 7.28055 518.166 6.48416 519.798 6.48416H534.477C537.238 6.48416 539.477 8.72274 539.477 11.4842V146.725C539.477 149.487 541.716 151.725 544.477 151.725H569C571.761 151.725 574 153.964 574 156.725V178.653C574 181.415 571.761 183.653 569 183.653H544.477C541.716 183.653 539.477 185.892 539.477 188.653V220.598C539.477 223.359 537.239 225.598 534.477 225.598H506.502C503.74 225.598 501.502 223.359 501.502 220.598V188.653C501.502 185.892 499.263 183.653 496.502 183.653H402.826ZM452.881 146.717C450.608 150.035 452.984 154.542 457.006 154.542H498.699C501.46 154.542 503.699 152.304 503.699 149.542V88.678C503.699 83.7634 497.351 81.7978 494.574 85.8523L452.881 146.717Z" stroke="#92C02C" stroke-width="5"/>
<path fill-rule="evenodd" clip-rule="evenodd" d="M280.18 11.161C280.42 10.7044 279.929 1.28013 281.579 5.77497C283.539 11.1116 284.541 17.4951 278.27 13.5129C277.078 12.7566 268.998 8.45598 273.64 8.27507C275.353 8.20831 277.263 10.1203 280.18 11.1617V11.161Z" fill="#1B2C4C"/>
<path fill-rule="evenodd" clip-rule="evenodd" d="M318.155 101.197C316.97 100.776 315.492 101.019 314.601 100.678C335.961 94.6339 346.344 73.4094 338.301 61.5371C337.017 59.993 335.922 59.4756 333.944 59.0036C334.047 48.1107 332.212 37.9287 327.129 29.929C322.815 23.1391 316.272 18.3885 308.46 15.5526C301.504 13.0278 293.592 11.9203 284.541 13.7949C285.364 11.0331 285.43 8.26064 283.801 6.39207C281.704 6.93415 281.293 9.34479 281.128 12.0285C279.382 5.33996 276.254 1.81446 270.909 3.36058C274.649 6.72787 277.954 10.1913 279.44 14.0559C276.555 11.3242 273.346 9.56777 268.808 11.8048C271.343 15.3544 275.959 14.0493 279.422 15.785C262.996 17.0848 250.506 25.2646 245.43 40.9101C242.278 50.6268 243.042 60.9323 247.263 71.7565C244.516 75.6591 242.153 81.9778 243.462 87.9273C244.681 93.4649 249.209 99.0466 256.807 103.469C240.271 105.999 230.162 112.805 242.649 134.198L213.978 146.847C204.481 155.335 213.096 180.447 228.135 175.708L244.281 168.275C242.461 178.459 243.606 186.956 247.188 194.065C246.342 203.583 250.153 210.615 257.107 215.967C250.465 217.307 242.582 219.567 236.74 223.288C231.719 227.337 238.216 230.212 240.081 230.106C240.852 230.063 240.697 231.699 240.363 232.931C238.698 236.807 239.596 239.218 241.462 240.272C245.201 242.383 248.68 239.7 249.898 238.23C250.661 237.309 250.871 238.905 250.357 241.786C250.543 247.474 255.196 249.269 260.183 246.324C269.916 240.485 275.021 229.855 279.854 219.055C283.074 218.612 286.557 216.457 289.778 216.014C294.752 215.329 297.176 216.988 304.437 215.67C307.526 219.422 310.963 221.796 314.751 222.869C316.256 226.773 317.84 230.556 319.825 233.732C321.955 237.141 326.447 241.748 329.545 244.316C336.113 249.761 340.366 247.849 343.216 244.128C344.196 241.86 346.057 241.589 348.437 242.495C352.647 244.356 355.058 243.006 355.298 237.779C355.398 235.592 354.249 231.709 355.981 230.377C356.968 229.618 358.989 230.796 361.105 230.96C367.401 230.749 366.859 223.359 358.367 219.911C356.128 218.931 353.694 218.097 351.104 217.378C347.701 216.432 343.992 216.171 340.178 215.075C343.076 209.949 345.484 204.58 345.927 198.561C345.499 194.552 346.421 193.289 346.516 191.341C351.998 171.111 347.683 152.18 328.064 126.982L329.789 126.238L334.68 126.73C336.54 127.329 339.273 126.791 341.823 126.162C348.152 124.604 358.543 120.894 358.867 113.205L374.833 105.477C377.141 104.131 378.581 101.772 378.622 97.7802C378.82 96.0218 379.402 94.6759 380.96 93.5924L385.669 91.3253C389.178 93.1245 393.278 93.0437 395.625 91.9335C401.065 89.3593 402.216 82.7429 399.84 77.8749C397.323 72.7151 390.918 69.4787 384.213 73.6297C382.043 74.9735 380.927 77.515 380.82 81.1988C378.63 82.2255 376.138 83.9625 373.683 83.835C372.624 83.7803 371.575 83.6081 370.546 83.2035C368.922 82.5646 368.597 81.9097 366.614 81.6307C364.528 81.3363 362.319 81.7315 360.018 82.6374L349.704 87.2504C346.535 84.291 344.145 83.3223 343.076 85.7196C341.315 86.7791 340.656 88.9307 340.396 91.4795L318.154 101.199L318.155 101.197Z" fill="#1C1B17"/>
<path fill-rule="evenodd" clip-rule="evenodd" d="M298.123 106.982C292.19 107.486 286.391 105.129 282.263 105.157C278.076 105.091 272.242 106.494 266.651 104.953C262.015 104.31 257.129 102.743 252.431 99.1698C242.644 91.1568 241.582 81.8855 248.53 71.3931C249.354 70.4204 250.051 69.907 250.825 70.1013L250.806 69.9297C250.582 69.2374 250.247 67.8395 250.253 66.3401C250.28 59.3786 253.018 45.6437 258.081 40.4906C261.492 35.4591 267.886 33.8756 272.833 37.9118C277.945 41.745 280.827 51.3843 282.462 57.0006C284.191 62.9408 286.624 66.2927 287.36 67.1519C283.95 69.8783 280.39 76.9814 276.994 80.4895C273.882 83.7033 271.175 84.8141 266.683 84.5865C265.132 84.8475 264.575 85.5725 264.163 86.3649C263.173 87.1106 263.022 87.9324 264.233 88.8777C267.225 89.8003 270.091 89.3103 272.883 87.9852C275.022 89.6848 277.216 90.769 279.356 92.4553C282.158 94.6657 282.407 95.8586 285.972 97.6618C290.819 100.114 296.631 101.763 297.913 100.284C300.604 98.8881 301.928 97.3747 304.14 95.3653C308.655 91.2617 312.037 86.5846 312.813 82.4048C316.09 82.6425 318.472 81.5463 319.751 78.8086C319.978 77.6336 319.657 77.0929 319.047 76.8866C318.042 76.5461 312.469 77.5989 310.648 77.6169C308.719 77.6356 307.027 77.1349 305.477 76.3192C302.719 74.8685 301.154 72.3831 299.373 69.911C297.711 67.6059 295.047 66.6178 292.648 66.1158C297.846 61.5829 294.217 48.9282 296.514 37.0913C297.265 28.7232 306.12 27.1597 313.11 29.9956C317.35 31.7166 320.659 35.4397 323.179 39.1528C326.174 43.5662 328.299 48.8968 329.721 54.9699C330.135 56.1622 330.1 57.7503 330.964 58.5454C326.313 57.4987 320.947 58.6836 314.562 63.0596C310.961 65.7934 308.775 68.8002 307.574 71.9972C316.121 63.0383 327.618 54.6981 337.001 61.0856C337.522 61.4407 338.347 62.4855 338.649 63.079C343.536 72.6695 336.534 84.1366 329.001 91.2844C325.684 94.4314 321.697 96.9855 317.013 98.9222C313.546 100.485 309.906 100.434 306.799 101.42C306.496 101.516 306.214 101.621 305.95 101.731L305.949 101.731L305.947 101.732C303.057 102.94 302.332 104.932 299.411 106.561C299.938 106.47 300.429 106.306 300.902 106.088L300.901 106.089C301.711 106.372 302.545 106.791 303.464 107.674L277.233 119.507C279.586 114.139 283.236 109.939 290.795 107.483C293.024 107.475 296.444 108.777 298.123 106.983V106.982Z" fill="#EAF3F8"/>
<path fill-rule="evenodd" clip-rule="evenodd" d="M305.947 101.731L305.944 101.732L305.945 101.731L305.947 101.731ZM300.898 106.087C302.159 105.507 303.291 104.545 304.626 103.581C307.314 101.64 309.337 101.982 312.362 101.105C313.102 102.225 314.743 101.733 315.934 102.047L304.303 107.294C303.39 106.338 302.393 105.836 301.33 105.872L300.898 106.088V106.087Z" fill="#1B2C4C"/>
<path fill-rule="evenodd" clip-rule="evenodd" d="M265.614 85.869C264.717 86.3456 264.129 87.7489 265.165 88.4906C271.674 88.7055 275.558 85.0518 281.017 84.5225C286.135 84.0919 289.293 85.2668 291.343 87.3497C291.849 87.8363 292.33 87.7996 292.785 87.2776C295.187 84.0545 298.007 82.7987 300.943 82.0918C304.344 80.8581 307.954 80.8761 311.622 81.2313C315.625 80.9475 320.396 79.4809 318.813 78.0589C317.832 77.1784 316.045 77.6397 314.536 77.7939C311.622 78.093 308.718 78.0502 305.844 77.3299C302.621 77.183 296.929 67.202 293.987 67.8749C292.649 66.1172 288.764 65.7727 287.717 68.6313C285.764 68.9544 284.465 72.1755 282.584 75.1783C279.129 80.6965 273.257 86.0946 265.613 85.8696L265.614 85.869Z" fill="#F8AE03"/>
<path fill-rule="evenodd" clip-rule="evenodd" d="M298.084 98.7412C304.507 94.6163 309.935 89.6267 312.223 82.5156L310.697 82.4909C306.678 86.7361 302.347 90.7803 295.245 93.0314C290.045 94.9821 282.648 91.8999 274.643 87.4264L273.793 87.6247C280.796 91.4826 281.932 97.2292 293.726 99.2379C295.972 99.6205 295.657 100.299 298.083 98.7412H298.084Z" fill="#F8AE03"/>
<path fill-rule="evenodd" clip-rule="evenodd" d="M286.827 91.2984C288.462 89.1535 290.632 88.6881 293.234 89.586C295.655 87.4478 299.113 86.8937 301.563 89.3103C305.131 87.7088 307.713 85.1299 310.112 82.3681C308.188 81.8581 305.14 81.9022 301.14 83.25C296.639 84.7654 296.849 85.6426 293.535 87.7495C292.635 88.6962 291.735 88.8537 290.834 88.1461C286.905 84.9917 281.806 84.7654 275.344 87.0345C279.386 89.0173 283.019 90.7103 286.828 91.2984H286.827Z" fill="#E51A4B"/>
<path fill-rule="evenodd" clip-rule="evenodd" d="M301.057 89.5613C298.406 90.9185 295.278 91.956 293.577 92.221C292.377 92.2911 289.215 91.9633 287.248 91.3151C289.14 89.7189 292.131 88.9298 294.237 91.49C294.297 91.231 294.034 90.5994 293.794 90.3651C295.525 87.8336 299.865 88.0433 301.058 89.5613H301.057Z" fill="#F08683" stroke="#E31E24" stroke-width="0.00997764" stroke-miterlimit="22.9256"/>
<path fill-rule="evenodd" clip-rule="evenodd" d="M320.975 34.471C326.562 40.6822 329.051 48.8147 331.025 57.2663C331.038 57.972 331.241 58.436 331.954 58.5962C332.59 58.725 333.191 58.8592 333.702 59.0127C333.355 58.2497 333.344 57.2083 333.26 56.2443C331.278 33.4243 323.068 18.146 298.818 14.3594C288.059 12.6798 283.376 15.2373 281.063 16.5938C279.461 17.5325 279.179 17.4363 277.33 17.3282C259.61 16.2867 247.296 33.8629 244.748 49.4636C244.284 56.994 245.514 64.2032 247.603 71.2869C248.498 70.59 249.403 69.9584 250.374 69.8222C249.032 61.2224 249.415 51.8389 253.674 43.1396C259.71 33.481 269.054 28.9488 277.347 39.9399C280.062 43.5388 281.445 50.4343 283.3 56.9739C284.161 61.0876 285.751 64.2366 287.811 66.7634C289.223 66.1212 290.661 65.8935 292.122 66.0437C294.609 62.2025 294.768 55.7576 294.496 48.8321C294.936 40.4886 293.44 33.9597 297.91 29.5249C306.284 23.0327 313.953 27.7992 320.975 34.473V34.471Z" fill="#163E73"/>
<path fill-rule="evenodd" clip-rule="evenodd" d="M296.312 23.0848C298.188 22.7203 300.079 22.8965 301.965 22.9032C302.326 22.9045 302.778 23.0127 302.936 22.6676C303.165 22.1689 302.122 22.1181 301.739 22.0908C299.755 21.9486 297.966 21.7657 296.146 22.1101C295.478 22.2363 294.981 22.3418 294.555 22.9279C294.243 23.3578 294.303 23.7844 294.644 24.1195C295.539 25.0028 298.117 25.0235 299.253 24.7831C299.879 24.5969 299.966 24.3245 299.516 23.9647C298.843 23.7197 298.065 23.6002 297.202 23.5828C296.914 23.5775 296.352 23.6876 296.193 23.3979C296.142 23.3051 296.173 23.2036 296.312 23.0848Z" fill="#1C1B17"/>
<path fill-rule="evenodd" clip-rule="evenodd" d="M269.994 29.125C269.873 29.5389 269.925 29.7879 270.134 29.8901C270.575 30.1064 271.966 29.2165 272.981 29.091C274.324 28.9254 275.799 28.9234 276.603 27.6023C276.996 26.958 276.955 26.4594 276.121 26.2264C275.152 25.956 273.87 26.5341 272.985 26.9287C271.856 27.432 270.834 28.1196 269.994 29.1244V29.125Z" fill="#1C1B17"/>
<path fill-rule="evenodd" clip-rule="evenodd" d="M261.073 65.3949C259.974 65.7233 258.766 66.3662 257.791 67.0411L258.606 67.0918L258.614 67.2461C261.934 66.4864 264.635 66.2207 269.161 68.3336C271.826 69.5779 274.204 71.0873 275.419 73.0387C275.735 73.2363 275.909 73.1822 275.887 72.7837L275.804 72.06C276.05 72.1895 276.077 72.4565 276.3 72.4045C277.888 72.032 279.994 68.6787 280.688 60.9674C280.792 53.1414 274.4 45.356 266.027 46.8073C261.458 47.5998 258.583 51.1847 258.718 56.9693C258.801 60.5295 259.723 63.1204 261.072 65.3949H261.073Z" fill="#1C1B17"/>
<path fill-rule="evenodd" clip-rule="evenodd" d="M267.228 52.6407C270.666 50.7494 274.505 51.3315 276.809 53.626C274.816 50.2687 272.449 47.3861 267.19 48.1638C259.74 49.7086 258.341 60.0041 261.843 65.3194C263.166 65.3615 264.152 65.5744 265.449 65.8641C262.756 62.7011 261.966 58.5708 263.934 55.4705C264.631 54.371 265.874 53.3843 267.227 52.64L267.228 52.6407Z" fill="#FEFEFE"/>
<path fill-rule="evenodd" clip-rule="evenodd" d="M266.295 66.0691C271.243 67.2894 273.687 69.5632 275.458 72.1194C278.679 70.4925 279.56 64.4989 279.046 60.6577C278.794 58.7791 278.156 57.261 277.16 55.9238C275.552 53.7675 273.786 52.2868 270.942 52.6126C269.078 52.8262 267.107 53.7896 265.74 55.5219C264.438 57.1729 264.117 58.6643 264.376 60.7231C264.613 62.613 265.391 64.3581 266.296 66.0684L266.295 66.0691Z" fill="#1C1B17"/>
<path fill-rule="evenodd" clip-rule="evenodd" d="M277.724 56.7583C274.57 55.6995 270.601 58.6409 272.597 61.9234C273.978 64.1939 277.585 63.4682 279.098 61.0536C279.084 60.9194 279.068 60.7872 279.051 60.6577C278.851 59.1583 278.404 57.8892 277.724 56.7577V56.7583Z" fill="#FEFEFE"/>
<path fill-rule="evenodd" clip-rule="evenodd" d="M310.136 48.557C316.224 47.8067 319.837 51.7621 323.056 52.0538C323.651 52.0525 323.47 52.2408 323.15 52.4631C321.125 53.8583 318.144 51.3656 314.937 51.0124C312.466 50.7828 310.093 51.6059 307.775 53.0238C304.298 55.1514 302.638 58.0888 301.979 62.1176C301.899 62.5375 301.672 62.5048 301.416 62.378C301.753 61.5041 301.766 60.5902 301.774 59.6756C301.81 55.6481 305.624 48.9883 310.136 48.557H310.136Z" fill="#1C1B17"/>
<path fill-rule="evenodd" clip-rule="evenodd" d="M303.833 46.7713C301.982 48.9162 301.38 51.9711 300.932 54.3056C300.86 54.6815 300.587 55.4486 300.975 54.7469C302.042 52.1574 303.062 49.5551 305.146 47.2179C307.013 45.2452 308.943 43.7225 310.959 42.7912C311.44 42.3499 311.397 42.1376 310.802 42.1677C307.921 42.7231 305.414 43.884 303.833 46.772V46.7713Z" fill="#1C1B17"/>
<path fill-rule="evenodd" clip-rule="evenodd" d="M312.083 54.7329C310.695 55.0987 309.288 55.7196 307.991 56.5868C306.919 57.3051 305.942 58.2157 304.928 59.0802C304.671 59.5916 304.902 59.7938 305.707 59.4614C309.071 57.3371 312.41 55.2402 315.271 55.2155C316.601 55.4605 316.967 55.3678 316.321 54.9185C314.977 54.3123 313.577 54.1474 312.083 54.7322V54.7329Z" fill="#1C1B17"/>
<path fill-rule="evenodd" clip-rule="evenodd" d="M339.21 125.68C336.37 126.985 333.427 124.994 330.869 125.535L337.475 122.083C341.335 118.665 342.298 113.948 341.956 108.645C341.694 104.191 340.207 89.6535 343.347 86.5886C343.578 87.6734 344.371 91.6556 345.053 92.4914C345.482 103.641 345.893 111.134 344.64 117.373C344.15 119.811 343.475 121.454 341.905 123.447C341.172 124.378 340.314 125.152 339.21 125.68V125.68Z" fill="#EAF3F8"/>
<path fill-rule="evenodd" clip-rule="evenodd" d="M339.21 125.68C336.37 126.985 333.427 124.994 330.869 125.535L336.981 122.341C336.743 124.289 338.735 124.48 341.906 123.448C341.172 124.379 340.315 125.153 339.21 125.68H339.21Z" fill="#B7CBD8"/>
<path fill-rule="evenodd" clip-rule="evenodd" d="M348.797 123.146C346.029 124.603 343.07 125.485 340.002 126.047C343.596 124.25 345.803 118.522 346.696 111.762L346.753 91.8972C345.875 90.9513 344.315 87.8377 344.073 86.867C343.845 85.9551 344.063 85.6393 345.017 85.6133C345.51 85.5993 346.093 85.7568 346.79 86.2428C351.38 89.1641 353.951 95.7265 356.044 103.151C356.886 106.14 358.451 110.7 357.901 113.711C357.143 117.86 353.464 120.72 348.797 123.146Z" fill="#163E73"/>
<path fill-rule="evenodd" clip-rule="evenodd" d="M275.648 119.623C277.737 113.638 281.806 109.172 289.196 107.254C284.92 106.398 280.624 105.795 276.248 106.231C269.667 106.426 263.066 106.64 259.221 104.222C254.397 107.292 248.208 106.194 244.669 108.593C241.759 110.567 239.831 113.245 239.119 116.796C239.695 127.799 242.556 138.197 252.47 142.391C259.434 144.325 263.022 147.654 268.597 150.408C272.646 152.446 272.937 149.962 270.885 144.66C266.547 134.876 260.821 133.053 259.334 131.937C255.959 129.829 252.958 127.697 252.696 125.389C248.17 112.753 263.372 116.244 268.372 111.941C267.798 115.91 267.878 121.161 265.972 124.384L275.648 119.623V119.623Z" fill="#163E73"/>
<path fill-rule="evenodd" clip-rule="evenodd" d="M258.674 129.781C260.035 130.705 261.395 131.751 262.707 133.305C262.062 131.133 259.994 129.258 260.775 126.787C261.381 125.786 261.223 126.112 262.167 125.519C265.181 123.259 266.211 116.962 267.362 113.356C263.172 115.666 256.1 115.978 253.555 119.504C252.999 120.938 253.164 122.643 253.937 124.577C255.269 127.906 255.89 127.891 258.674 129.782L258.674 129.781Z" fill="#B7CBD8"/>
<path fill-rule="evenodd" clip-rule="evenodd" d="M335.318 150.688C332.593 146.626 323.604 138.66 318.085 131.92L250.896 165.584C243.847 176.461 250.686 199.923 272.273 209.243C282.395 211.957 292.288 213.694 301.507 212.535C298.364 208.573 294.544 206.844 289.6 204.333C289.971 204.389 290.425 203.962 290.758 204.088C301.901 208.296 302.165 211.38 306.515 214.451C320.036 212.226 332.336 206.411 339.255 192.874C344.627 181.907 348.032 170.028 335.318 150.688H335.318Z" fill="#EAF3F8"/>
<path fill-rule="evenodd" clip-rule="evenodd" d="M346.855 162.907C345.329 152.05 337.035 141.459 326.752 127.657L319.197 131.407C329.69 141.004 339.497 150.335 343.24 163.963C346.64 176.341 345.174 192.949 332.061 203.54C324.415 209.939 316.854 214.602 307.008 215.147C309.03 217.928 311.157 219.662 313.813 220.793C317.831 222.503 322.552 222.271 327.448 221.695C339.45 218.095 345.181 209.331 345.382 196.407C344.927 194.616 344.81 193.21 345.406 191.766C348.595 184.219 348.269 173.829 346.854 162.907L346.855 162.907Z" fill="#163E73"/>
<path fill-rule="evenodd" clip-rule="evenodd" d="M284.832 216.186C289.908 213.879 297.534 215.442 303.884 215.07L302.234 213.209C294.786 213.621 287.155 213.531 278.906 211.758C269.979 210.25 262.606 205.987 256.479 199.519C246.241 187.353 244.383 175.22 249.353 166.038L245.396 167.898C243.228 180.63 245.319 189.535 249.353 197.306C249.429 197.734 249.504 198.161 249.58 198.589C248.756 197.624 248.074 196.174 247.425 194.613C248.224 203.765 252.049 212.546 257.498 215.299C265.659 220.235 274.97 219.484 284.832 216.186Z" fill="#163E73"/>
<path fill-rule="evenodd" clip-rule="evenodd" d="M350.239 217.922C346.768 217.116 343.159 216.469 339.823 215.504C334.004 222.762 325.805 225.083 315.586 223.215C319.146 230.367 323.452 237.007 329.613 242.374C335.58 247.911 339.516 247.222 342.282 242.939C343.917 240.532 346.117 240.489 349.002 241.407C353.059 242.861 354.965 240.418 354.421 233.538C354.274 229.832 356.169 228.793 359.972 230.246C363.666 230.768 365.33 228.384 364.416 225.75C362.827 221.169 354.493 218.91 350.239 217.922Z" fill="#FECC00"/>
<path fill-rule="evenodd" clip-rule="evenodd" d="M279.183 219.52C270.836 221.174 263.837 220.14 257.391 216.337C255.401 216.919 240.369 220.342 236.953 224.951C235.297 227.788 237.105 228.566 240.701 228.674C242.466 228.887 242.014 231.248 240.779 234.289C238.468 241.244 247.225 240.759 249.852 237.323C250.851 236.016 252.245 238.089 251.523 240.818C251.531 245.844 255.377 247.501 260.185 244.74C268.814 239.378 273.155 229.644 279.182 219.52L279.183 219.52Z" fill="#FECC00"/>
<path fill-rule="evenodd" clip-rule="evenodd" d="M279.182 219.52C278.362 219.683 277.556 219.819 276.761 219.93C268.753 232.863 262.135 245.142 254.078 245.71C255.64 246.395 257.793 246.114 260.184 244.741C268.813 239.38 273.154 229.646 279.182 219.521L279.182 219.52Z" fill="#F8AE03"/>
<path fill-rule="evenodd" clip-rule="evenodd" d="M377.073 84.7474L381.073 82.4956C381.765 85.5752 383.263 88.0366 385.081 90.5694L378.836 93.3779C375.961 96.3166 378.223 102.083 374.036 104.539L358.772 111.272C357.775 101.235 354.743 93.8292 350.445 88.0579L361.997 83.3702C364.955 82.2994 367.589 82.8408 370.098 84.003C372.423 85.3102 374.749 85.4243 377.074 84.7467L377.073 84.7474Z" fill="#FEFEFE"/>
<path fill-rule="evenodd" clip-rule="evenodd" d="M338.479 119.794C343.558 109.421 339.786 101.577 340.439 92.4694L263.384 126.511C260.489 128.299 266.069 135.046 267.553 136.909C269.83 139.765 272.128 142.318 273.204 146.226C273.863 150.623 273.108 153.468 267.559 151.062C259.44 145.816 248.957 144.886 243.2 135.326L215.166 147.397C212.783 149.291 211.19 151.709 211.489 155.376C211.902 160.447 215.813 170.306 221.06 172.224C226.183 174.098 232.18 172.408 238.569 169.122L338.479 119.793L338.479 119.794Z" fill="#FEFEFE"/>
<path fill-rule="evenodd" clip-rule="evenodd" d="M282.957 14.6953C284.362 12.2052 284.577 9.5996 283.632 7.20831C282 8.56551 281.794 11.3373 280.875 13.4021C278.447 4.6755 275.373 3.71552 272.193 4.04597C276.797 7.49671 279.278 10.9715 279.582 14.4716C276.088 11.6931 272.638 10.6884 269.244 11.9775C272.642 14.238 276.973 13.8201 279.656 15.6619C280.829 15.6305 281.908 15.2226 282.957 14.6946V14.6953Z" fill="#163E73"/>
<path d="M288.564 74.4442C288.235 74.7261 287.606 74.5385 287.159 74.0251C286.712 73.5118 286.617 72.8671 286.947 72.5852C287.276 72.3033 287.905 72.4909 288.352 73.0043C288.798 73.5176 288.893 74.1623 288.564 74.4442Z" fill="#1C1B17"/>
<path fill-rule="evenodd" clip-rule="evenodd" d="M398.816 79.1751C397.3 75.2651 393.292 73.052 389.781 73.3284C376.385 74.3832 382.84 94.8546 394.017 90.5521C398.586 88.7936 400.395 83.246 398.816 79.1751Z" fill="#E51A4B"/>
<path d="M391.202 79.5062C393.129 79.5062 394.69 78.0303 394.69 76.2097C394.69 74.3891 393.129 72.9131 391.202 72.9131C389.276 72.9131 387.715 74.3891 387.715 76.2097C387.715 78.0303 389.276 79.5062 391.202 79.5062Z" fill="#FEFEFE"/>
<path fill-rule="evenodd" clip-rule="evenodd" d="M341.295 108.111C341.308 106.527 341.212 104.974 341.082 103.43L266.953 136.006C267.24 136.37 267.488 136.677 267.672 136.908C268.843 138.377 270.02 139.766 271.032 141.3L341.296 108.111H341.295ZM259.248 146.867C256.479 145.683 253.705 144.509 251.138 142.957L219.161 157.009C216.765 159.648 219.182 164.588 223.286 163.854L259.248 146.867V146.867Z" fill="#00A0E3"/>
<path fill-rule="evenodd" clip-rule="evenodd" d="M382.017 85.3916L355.461 97.061C355.931 98.2393 356.362 99.4703 356.75 100.757L383.455 88.1421C382.911 87.2529 382.425 86.3456 382.017 85.3916Z" fill="#00A0E3"/>
<path fill-rule="evenodd" clip-rule="evenodd" d="M341.052 104.468L319.038 114.249C317.937 115.185 319.203 117.353 320.166 116.876L341.177 107.031C341.159 106.17 341.114 105.317 341.053 104.468H341.052Z" fill="#E51A4B"/>
<path fill-rule="evenodd" clip-rule="evenodd" d="M382.349 86.1186L355.795 97.9168C356.032 98.551 356.26 99.1999 356.474 99.8635L383.032 87.4204C382.789 86.9925 382.561 86.5599 382.349 86.1179L382.349 86.1186Z" fill="#E51A4B"/>
<path fill-rule="evenodd" clip-rule="evenodd" d="M294.287 93.3285C294.425 96.0495 294.931 98.344 296.269 99.6759C296.682 99.5797 297.203 99.3094 298.087 98.7412C304.51 94.6163 309.938 89.6267 312.226 82.5156L310.7 82.4909C306.681 86.7361 302.35 90.7803 295.248 93.0314C294.936 93.1489 294.615 93.247 294.287 93.3291V93.3285Z" fill="#FECC00"/>
<path fill-rule="evenodd" clip-rule="evenodd" d="M290.547 66.5344C291.152 73.1101 292.447 79.7519 292.082 87.6914C292.058 88.2101 292.524 87.0045 292.48 87.5506C292.583 87.4831 292.684 87.3917 292.785 87.2769C295.187 84.0538 298.007 82.798 300.943 82.0911C304.343 80.8574 307.954 80.8754 311.621 81.2306C315.625 80.9468 320.396 79.4802 318.812 78.0582C317.832 77.1777 316.045 77.639 314.536 77.7932C311.621 78.0923 308.718 78.0495 305.844 77.3292C302.621 77.1823 296.928 67.2013 293.986 67.8742C293.283 66.9503 291.875 66.4176 290.547 66.5344Z" fill="#FECC00"/>
<path fill-rule="evenodd" clip-rule="evenodd" d="M311.387 80.814C308.367 80.1724 303.996 79.7478 300.04 81.2085C297.481 82.1538 295.413 83.0537 293.345 85.1185C292.26 86.2007 292.785 86.3669 291.601 85.6186C289.85 84.5097 287.898 83.6659 285.437 83.495C281.559 83.4015 278.725 84.1592 276.248 85.2067C283.01 83.3822 288.589 83.3908 292.051 86.676C292.456 86.9731 292.517 86.7608 292.583 86.6914C292.746 86.5185 293.055 86.2167 293.631 85.7087C298.553 80.4955 305.558 80.3493 311.386 80.8146L311.387 80.814Z" fill="#1C1B17"/>
<path d="M294.856 73.8416C294.433 73.7425 294.217 73.1271 294.374 72.4673C294.531 71.8074 295.002 71.3528 295.425 71.452C295.848 71.5511 296.064 72.1664 295.907 72.8263C295.75 73.4862 295.279 73.9408 294.856 73.8416Z" fill="#1C1B17"/>
<path fill-rule="evenodd" clip-rule="evenodd" d="M346.159 217.028C353.413 218.957 359.518 221.089 361.888 223.88C362.862 225.035 364.515 227.45 361.792 227.341C358.871 227.225 356.7 225.953 354.458 228.5C352.03 231.258 352.916 232.343 352.939 235.381C352.958 237.874 351.882 238.455 349.447 238.235C347.615 238.07 345.663 237.414 344.412 238.005C342.283 238.011 342.155 242.085 339.899 243.382C337.919 244.268 332.562 241.766 326.471 237.448C324.49 235.855 322.624 234.146 320.85 232.345C323.323 235.996 326.181 239.383 329.615 242.374C335.582 247.911 339.518 247.222 342.284 242.939C343.919 240.532 346.119 240.488 349.004 241.406C353.061 242.86 354.967 240.418 354.424 233.538C354.276 229.832 356.171 228.793 359.974 230.246C363.668 230.768 365.332 228.384 364.418 225.75C362.829 221.169 354.495 218.91 350.241 217.922C348.893 217.609 347.524 217.32 346.159 217.028Z" fill="#F8AE03"/>
<path fill-rule="evenodd" clip-rule="evenodd" d="M359.082 227.124C360.908 227.25 362.468 228.15 363.033 226.994C362.583 227.359 361.893 227.367 361.12 227.251C358.88 226.918 356.384 225.995 354.389 227.859C351.983 230.106 353.014 232.883 352.403 235.353C351.729 238.072 349.375 238.119 346.569 237.448C343.902 237.079 342.384 238.882 341.318 241.54C339.688 246.236 328.739 239.236 326.467 237.448L327.227 238.3C329.715 239.736 334.901 243.595 338.611 243.704C341.577 243.79 341.413 242.194 342.417 240.249C343.497 238.155 345.026 237.104 347.376 237.969C351.984 239.566 353.638 237.737 352.945 233.579C352.598 229.995 354.712 226.821 359.083 227.124L359.082 227.124Z" fill="#1C1B17"/>
<path fill-rule="evenodd" clip-rule="evenodd" d="M246.83 174.256C246.066 174.822 245.307 175.395 244.551 175.971C244.633 173.455 244.905 170.774 245.394 167.898L249.351 166.038C247.979 168.572 247.128 171.332 246.83 174.256Z" fill="#1B2C4C"/>
<path fill-rule="evenodd" clip-rule="evenodd" d="M321.277 135.577C295.54 145.026 270.603 156.92 248.369 173.122C248.687 170.267 249.528 167.689 250.893 165.584L318.082 131.92C319.057 133.11 320.14 134.338 321.277 135.577L321.277 135.577Z" fill="#B7CBD8"/>
<path fill-rule="evenodd" clip-rule="evenodd" d="M308.337 214.127C300.938 207.421 294.967 202.622 283.836 201.519C286.931 205.629 294.246 206.73 296.274 210.723C294.898 212.361 292.378 212.538 289.705 212.618C293.733 212.997 297.676 213.016 301.505 212.535C298.361 208.573 294.542 206.844 289.597 204.333C289.968 204.389 290.422 203.962 290.755 204.088C301.898 208.296 302.162 211.38 306.512 214.451C307.123 214.351 307.731 214.242 308.337 214.127Z" fill="#B7CBD8"/>
<path fill-rule="evenodd" clip-rule="evenodd" d="M326.664 212.311C333.724 208.993 339.964 204.49 344.2 197.106C344.165 197.443 344.124 197.776 344.073 198.103C341.891 212.38 327.418 222.079 313.461 218.781C311.975 217.452 310.58 216.172 309.24 214.949C308.508 215.039 307.765 215.106 307.008 215.147C309.03 217.928 311.157 219.662 313.813 220.793C317.831 222.503 322.552 222.271 327.448 221.695C339.45 218.095 345.181 209.331 345.382 196.407C344.927 194.616 344.81 193.21 345.406 191.766C348.595 184.219 348.269 173.829 346.854 162.907C345.508 153.321 338.884 143.943 330.275 132.379L330.114 132.163L330.061 132.091L329.953 131.946L329.9 131.874L329.851 131.81L329.846 131.802L329.792 131.73L329.738 131.657L329.575 131.439L329.521 131.367L329.468 131.294L329.424 131.235L329.413 131.221L329.359 131.148L329.305 131.074L329.196 130.929L329.141 130.855C328.359 129.807 327.562 128.742 326.753 127.656L319.198 131.405C320.487 132.584 321.766 133.759 323.024 134.938C324.388 134.444 325.755 133.956 327.123 133.475C343.338 148.855 346.653 164.662 345.892 180.606C345.176 195.606 338.604 203.173 326.665 212.31L326.664 212.311Z" fill="#1B2C4C"/>
<path fill-rule="evenodd" clip-rule="evenodd" d="M287.572 213.072C269.781 216.296 255.218 207.816 247.414 193.084L248.432 195.443C248.725 196.072 249.032 196.692 249.35 197.307C249.426 197.735 249.502 198.162 249.578 198.59C248.753 197.625 248.072 196.175 247.422 194.614C248.222 203.766 252.046 212.547 257.496 215.299C265.657 220.236 274.968 219.485 284.83 216.187C289.905 213.88 297.531 215.443 303.882 215.07L302.232 213.21C297.459 213.474 292.61 213.532 287.572 213.073V213.072Z" fill="#1B2C4C"/>
<path fill-rule="evenodd" clip-rule="evenodd" d="M282.755 106.258C281.48 107.112 277.492 108.264 274.974 108.465C249.071 111.08 237.293 115.642 242.214 131.97C240.244 127.507 239.402 122.226 239.119 116.796C239.831 113.245 241.759 110.566 244.669 108.593C248.208 106.194 254.397 107.292 259.221 104.222C263.067 106.64 269.667 106.426 276.248 106.231C278.435 106.013 280.602 106.055 282.755 106.258Z" fill="#1B2C4C"/>
<path fill-rule="evenodd" clip-rule="evenodd" d="M279.28 17.3542C269.677 21.1441 267.111 25.8218 263.639 34.0885C258.7 36.9004 256.858 38.0433 253.674 43.1389C249.414 51.8382 249.033 61.2211 250.373 69.8216C249.402 69.9578 248.497 70.5886 247.602 71.2862C245.513 64.2025 244.284 56.9926 244.748 49.463C247.295 33.8622 259.61 16.2854 277.33 17.3275C278.249 17.3809 278.78 17.4323 279.28 17.3542Z" fill="#1B2C4C"/>
<path fill-rule="evenodd" clip-rule="evenodd" d="M245.315 168.386C244.796 187.155 252.827 201.118 266.079 210.915L253.067 211.343C250.024 207.24 247.983 201.017 247.424 194.613C248.074 196.174 248.755 197.624 249.58 198.589C249.504 198.161 249.428 197.734 249.352 197.306C245.37 189.635 243.282 180.857 245.315 168.385V168.386Z" fill="#1B2C4C"/>
<path fill-rule="evenodd" clip-rule="evenodd" d="M262.481 73.6255C266.671 75.5441 270.737 78.0722 275.561 80.4902C278.234 72.8551 271.7 67.4957 263.415 66.8608C260.077 66.6058 256.513 67.3235 252.827 67.3068C253.85 54.7896 254.15 44.2645 265.612 35.6867C262.693 36.0252 259.943 37.7442 258.08 40.4913C253.017 45.6444 250.278 59.3792 250.252 66.3408C250.247 67.6806 250.514 68.9404 250.731 69.6874C250.408 69.871 250.088 70.0652 249.772 70.2668C249.689 70.3129 249.605 70.3663 249.52 70.4264C249.203 70.6547 248.878 70.9825 248.53 71.3931C241.582 81.8861 242.643 91.1575 252.431 99.1699C257.129 102.743 262.016 104.311 266.651 104.954C270.663 106.059 274.8 105.649 278.364 105.354C262.391 101.651 237.956 91.5307 252.095 73.058C254.196 71.845 257.862 72.335 262.483 73.6255H262.481Z" fill="#B7CBD8"/>
<path fill-rule="evenodd" clip-rule="evenodd" d="M323.465 58.6662C313.259 62.6898 309.803 66.3288 306.375 73.6889C300.073 66.0991 308.774 59.0448 314.987 57.7276C317.376 57.2209 319.896 58.6115 323.465 58.6662Z" fill="#B7CBD8"/>
</svg>
