<svg width="60" height="60" viewBox="0 0 60 60" fill="none" xmlns="http://www.w3.org/2000/svg">
<circle cx="30" cy="30" r="30" fill="#F29948"/>
<path d="M32.0067 13.1019C30.2488 13.2027 28.9112 13.0213 27.5928 13.3036C25.9686 13.6463 24.5738 14.4125 23.5037 15.7432C22.2808 17.2554 22.0324 19.0095 22.3764 20.925C22.491 21.5097 22.5483 22.1145 22.6057 22.7194C22.663 23.3444 22.4528 23.8082 21.8413 24.0098C21.2681 24.1913 21.1535 24.5945 21.249 25.1792C21.3828 26.0059 21.5738 26.8124 21.8413 27.5987C21.9751 27.9818 22.1853 28.2641 22.6248 28.2036C23.3891 28.1028 23.7139 28.6068 23.8859 29.252C24.1916 30.361 24.6502 31.3691 25.3763 32.2159C26.5419 33.587 27.9941 34.3733 29.6947 34.6959C30.3252 34.8169 30.9176 34.5346 31.4908 34.3128C33.6691 33.4257 35.1977 31.853 35.8283 29.4537C36.0385 28.6472 36.4206 28.0826 37.2996 28.1028C37.6435 28.1028 37.8155 27.881 37.911 27.5584C38.1594 26.7116 38.3505 25.8648 38.4652 24.9776C38.5225 24.4735 38.3887 24.0905 37.8919 23.909C37.1849 23.6469 36.9939 23.1227 37.1467 22.3565C37.2996 21.6508 37.3569 20.9048 37.4525 20.1991C37.6817 18.4047 36.9174 17.1344 35.5799 16.1666C35.2933 15.9448 34.9493 15.7835 34.6818 15.5617C34.2806 15.219 34.1659 14.7956 34.4334 14.2915C34.6818 13.8278 35.0831 13.727 35.5417 13.8681C37.3951 14.4125 39.3059 16.9328 39.3823 18.9894C39.4015 19.695 39.4206 20.4007 39.2677 21.1064C39.1339 21.7919 39.2104 22.3565 39.7836 22.8605C40.567 23.5461 40.4333 24.5542 40.3377 25.4615C40.2422 26.4293 39.9938 27.3971 39.6881 28.3246C39.4206 29.1714 38.9047 29.7763 38.1021 30.0384C37.7391 30.1593 37.5671 30.4013 37.4333 30.7441C36.2678 33.9096 33.9939 35.7443 30.9558 36.5912C30.1915 36.8129 29.3889 36.8129 28.6246 36.571C25.8349 35.6435 23.6184 33.9902 22.4528 31.0667C22.2426 30.5424 21.9369 30.119 21.3828 29.9376C20.8477 29.7763 20.4847 29.373 20.2554 28.8488C19.7013 27.5584 19.3573 26.1873 19.3 24.776C19.2618 23.909 19.5484 23.1831 20.179 22.6388C20.5611 22.3162 20.5993 21.9532 20.5038 21.5097C20.2936 20.4612 20.2363 19.4128 20.3509 18.3643C20.8095 14.2109 24.4973 11.5293 28.0323 11.1462C30.287 10.9042 32.5608 11.0454 34.8347 11.005C35.5799 10.9849 36.0385 11.3881 36.0576 11.9728C36.0958 12.5777 35.6945 13.0414 34.9302 13.0616C33.822 13.1423 32.6946 13.1019 32.0067 13.1019Z" fill="white"/>
<path d="M21.3063 43.8093C21.3063 45.1199 21.3063 46.4304 21.3063 47.741C21.3063 48.1846 21.2108 48.5878 20.8095 48.8499C20.1216 49.2532 19.4338 48.7894 19.4146 47.862C19.3955 45.6643 19.4146 43.4867 19.4146 41.289C19.4146 40.3817 19.3955 40.3817 18.6503 40.785C17.6376 41.3293 16.6058 41.8334 15.6695 42.5794C14.3702 43.6279 14.0836 45.0796 13.988 46.6522C13.9498 47.1361 13.9498 47.5999 13.8734 48.0838C13.7778 48.6483 13.4721 49.0112 12.8989 48.9709C12.3065 48.9104 11.9817 48.5072 12.0008 47.9023C12.1346 43.7892 12.5931 42.0552 16.109 39.8575C16.5103 39.5954 16.9497 39.3736 17.3892 39.172C18.9943 38.4461 20.37 37.3775 21.4974 35.9661C21.612 35.8048 21.7649 35.6839 21.8987 35.5226C22.7967 34.5749 23.4464 34.6959 23.9432 35.9057C24.5355 37.3372 25.1088 38.7687 25.682 40.2204C26.6183 42.5391 27.5546 44.8578 28.4718 47.1764C28.51 47.2974 28.5673 47.4184 28.6055 47.5192C28.7966 48.1039 28.6437 48.5878 28.1278 48.8499C27.5737 49.1322 27.1342 48.8499 26.8858 48.3257C26.389 47.1764 25.9304 46.0272 25.4718 44.8578C24.5929 42.7004 23.733 40.543 22.8541 38.4058C22.5865 37.7404 22.4146 37.7203 21.9751 38.2445C21.5356 38.7687 21.2872 39.3736 21.3063 40.0994C21.3254 41.3495 21.3063 42.5794 21.3063 43.8093Z" fill="white"/>
<path d="M35.1022 48.991C33.9557 48.991 32.8093 49.0112 31.6628 48.991C30.8029 48.9709 30.4781 48.6483 30.459 47.7611C30.4399 45.8659 30.4399 43.9908 30.459 42.0955C30.4781 41.168 30.8794 40.8051 31.7774 40.7849C32.1405 40.7849 32.4844 40.7849 32.8475 40.7849C33.5354 40.8051 34.2423 40.9261 34.3188 39.8171C34.3379 39.4341 34.7392 39.1921 35.1213 39.2123C35.5608 39.2324 35.9429 39.4945 36.0003 39.9583C36.0958 40.7245 36.5544 40.8051 37.1276 40.7849C37.7009 40.7648 38.2741 40.7043 38.8473 40.7849C39.4397 40.8656 39.7645 41.1882 39.7645 41.8132C39.7836 43.8496 39.7836 45.886 39.7645 47.9224C39.7645 48.6281 39.3824 48.9709 38.7327 48.991C37.548 48.991 36.3251 48.991 35.1022 48.991ZM35.1786 46.9748C35.1786 46.995 35.1786 46.995 35.1786 46.9748C35.8283 46.9748 36.4589 46.9345 37.1085 46.995C37.7582 47.0353 37.9493 46.753 37.9111 46.1078C37.8728 45.3618 37.9111 44.5956 37.8919 43.8496C37.8728 43.5069 38.083 42.9625 37.6244 42.8617C37.0894 42.7205 36.478 42.5794 35.9812 43.0028C35.1595 43.7085 35.1022 43.7085 34.2615 43.0028C33.8029 42.6197 33.2487 42.7205 32.7519 42.8415C32.2933 42.9625 32.4653 43.4665 32.4653 43.8093C32.4462 44.636 32.4653 45.4626 32.4653 46.2893C32.4653 46.7732 32.6373 46.9748 33.0959 46.9748C33.8029 46.9748 34.4908 46.9748 35.1786 46.9748Z" fill="white"/>
<path d="M48 47.4184C47.9618 47.741 47.9618 48.0233 47.9045 48.2854C47.7898 48.7491 47.4841 49.0112 47.0064 48.9911C46.5096 48.9709 46.1848 48.7088 46.1083 48.2047C46.0128 47.6402 45.9555 47.0555 45.9555 46.4707C45.9364 44.5755 45.1529 43.1439 43.6625 42.1157C42.7453 41.4705 41.7517 40.9866 40.7581 40.5027C39.6308 39.9381 38.5798 39.2728 37.7964 38.2042C37.5671 37.9017 37.376 37.8009 37.1658 38.2243C36.8792 38.7889 36.4206 39.0107 35.8474 38.6881C35.236 38.3655 35.2933 37.8009 35.5035 37.2565C35.7328 36.6718 35.9429 36.0871 36.2296 35.5427C36.6117 34.7765 37.2041 34.6959 37.8155 35.2604C38.1786 35.6234 38.5798 35.9661 38.8664 36.3895C39.669 37.5791 40.8154 38.2646 42.0383 38.8695C43.4523 39.555 44.8281 40.2809 45.9746 41.4301C46.9682 42.4181 47.5987 43.5875 47.7325 45.0392C47.7898 45.8457 47.9045 46.6522 48 47.4184Z" fill="white"/>
<path d="M35.9238 19.8967C35.9047 20.3402 35.7136 20.6628 35.2933 20.804C34.8538 20.9451 34.4143 20.8443 34.2423 20.4209C33.7838 19.4128 33.0003 19.312 32.1023 19.3321C30.8794 19.3724 29.6756 19.3523 28.4527 19.3321C27.1342 19.2918 26.1979 18.6264 25.6247 17.3764C25.3763 16.8118 25.3954 16.2674 25.9495 15.9247C26.5228 15.5819 26.9814 15.8642 27.268 16.3884C27.6501 17.1344 28.2616 17.336 28.9877 17.336C30.3443 17.3159 31.701 17.3159 33.0577 17.336C34.2997 17.3562 35.1595 18.0216 35.7328 19.1507C35.9047 19.4531 35.9429 19.6547 35.9238 19.8967Z" fill="white"/>
</svg>
