<svg width="60" height="60" viewBox="0 0 60 60" fill="none" xmlns="http://www.w3.org/2000/svg">
<circle cx="30" cy="30" r="30" fill="#559965"/>
<path d="M33.7022 14.9032C33.0779 18.1255 34.246 20.8241 35.9578 23.4623C37.5689 25.9394 38.9384 28.5776 40.3884 31.1554C40.7509 31.7999 41.2141 32.2026 41.9794 32.404C46.2085 33.5318 48.8266 37.62 48.2627 42.1312C47.7593 46.2395 44.0738 49.4618 39.8446 49.5826C36.8036 49.6631 34.3668 48.5152 32.5342 46.1187C32.0911 45.5346 31.5876 45.3333 30.8626 45.3534C26.2508 45.3937 21.6591 45.4138 17.0473 45.3735C13.1202 45.3333 10.7639 41.3457 12.6771 37.9221C15.9195 32.1221 19.2424 26.3825 22.5654 20.6429C23.0286 19.8574 23.2501 19.072 23.23 18.1456C23.1897 15.8296 23.2098 13.4734 23.23 11.1373C23.23 9.88863 23.532 9.58655 24.8008 9.58655C27.2376 9.58655 29.6744 9.58655 32.1314 9.58655C33.4404 9.58655 33.7022 9.86849 33.7224 11.1977C33.7022 12.4261 33.7022 13.6546 33.7022 14.9032ZM28.5265 29.4033C26.13 29.3832 23.7536 29.4637 21.357 29.363C20.2897 29.3228 19.6049 29.5644 19.1619 30.5915C18.7994 31.4374 18.7792 31.4776 19.6654 31.4776C20.773 31.4978 21.8806 31.4575 22.9883 31.5179C23.8341 31.5783 24.2369 32.2631 23.9147 32.9478C23.673 33.4513 23.2098 33.5318 22.7063 33.5318C21.1959 33.5318 19.6855 33.552 18.1751 33.5318C17.6917 33.5318 17.3695 33.6929 17.1278 34.1158C16.8459 34.6395 16.5438 35.1631 16.2216 35.6867C15.8994 36.2103 16.141 36.3714 16.6445 36.3513C17.3897 36.3513 18.1549 36.311 18.9001 36.3311C19.8265 36.3513 20.2897 36.7339 20.2897 37.3582C20.2897 38.0027 19.7862 38.3652 18.8799 38.3652C17.6716 38.3652 16.4633 38.3652 15.2549 38.3652C14.832 38.3652 14.5501 38.4659 14.3487 38.8888C13.3216 40.9631 14.7112 43.3194 17.0271 43.3395C21.357 43.3596 25.6869 43.3596 29.9967 43.3596C30.8626 43.3596 30.9029 43.2992 30.7619 42.4534C30.3189 40.0166 30.7418 37.761 32.2119 35.727C33.5613 33.8742 35.3536 32.6457 37.6293 32.1825C38.3745 32.0415 38.4349 31.9006 38.0523 31.236C37.8509 30.8936 37.6092 30.5512 37.4682 30.1887C37.2064 29.5644 36.7432 29.3832 36.0988 29.3832C33.6015 29.4235 31.064 29.4033 28.5265 29.4033ZM28.4862 27.3693C30.6411 27.3693 32.8161 27.3693 34.971 27.3693C35.8571 27.3693 35.8974 27.2887 35.4745 26.5436C34.3467 24.6102 33.239 22.6769 32.0911 20.7436C31.7689 20.1998 31.6279 19.656 31.6279 19.0317C31.6481 16.8769 31.6279 14.7019 31.6481 12.547C31.6682 11.8623 31.4064 11.6206 30.7217 11.6407C29.1911 11.681 27.6605 11.681 26.13 11.6407C25.4654 11.6206 25.264 11.8421 25.264 12.5067C25.3043 14.6414 25.264 16.7762 25.2841 18.9109C25.2841 19.5956 25.1432 20.1797 24.8008 20.7637C23.7133 22.6366 22.6459 24.5095 21.5786 26.3825C21.0549 27.3089 21.0751 27.3693 22.1223 27.3693C24.257 27.3693 26.3716 27.3693 28.4862 27.3693ZM32.6953 40.8423C32.6953 44.6083 35.7363 47.6291 39.462 47.609C43.2481 47.5888 46.3294 44.5478 46.3092 40.8221C46.2891 37.0964 43.1676 34.0554 39.4016 34.0957C35.6557 34.136 32.6751 37.1367 32.6953 40.8423Z" fill="white"/>
<path d="M43.5099 38.7881C43.5099 39.0902 43.369 39.3117 43.1676 39.5131C41.8183 40.8624 40.469 42.2117 39.0995 43.5611C38.6162 44.0444 38.1127 44.0243 37.6294 43.5812C36.9849 42.977 36.3606 42.3527 35.7564 41.7284C35.3335 41.2853 35.253 40.7819 35.7162 40.3388C36.1592 39.8958 36.6627 39.9159 37.1259 40.3388C37.2266 40.4194 37.3273 40.4999 37.4078 40.5805C38.3745 41.4867 38.3745 41.4867 39.3009 40.5805C40.1266 39.7548 40.9322 38.9492 41.7579 38.1437C42.0801 37.8214 42.4829 37.7207 42.9259 37.9221C43.3287 38.0832 43.4697 38.4055 43.5099 38.7881Z" fill="white"/>
</svg>
