<svg width="60" height="60" viewBox="0 0 60 60" fill="none" xmlns="http://www.w3.org/2000/svg">
<circle cx="30" cy="30" r="30" fill="#817BB1"/>
<path d="M14 24.6168C14.064 23.3272 14.1492 22.1227 14.7035 21.0036C15.2257 19.9378 16.0464 19.2023 17.1336 18.7547C18.8496 18.0405 20.5656 17.3477 22.2816 16.6336C24.4133 15.7383 25.5325 13.9797 25.4792 11.6881C25.4579 10.9207 25.9269 10.473 26.5983 10.6116C27.0673 10.7075 27.3018 11.0699 27.3125 11.6241C27.3657 15.5571 25.0209 17.6355 22.3669 18.6268C20.8854 19.181 19.4358 19.7885 17.9756 20.3854C16.5687 20.961 16.0464 22.1227 15.9185 23.5403C15.6947 25.9811 16.0571 28.3473 16.7925 30.6602C17.3468 32.3975 18.6045 33.4954 20.2459 34.1882C20.4164 34.2628 20.5869 34.2308 20.7575 34.2308C21.2904 34.2201 21.7061 34.4866 21.8127 34.9023C21.9619 35.4565 21.6102 35.9361 20.992 36.0427C20.3418 36.1493 19.7236 36.0214 19.1374 35.723C16.5261 34.4226 15.0445 32.3016 14.5542 29.4451C14.2984 27.9743 14 26.514 14 25.0112C14 24.8513 14 24.6914 14 24.6168Z" fill="white"/>
<path d="M44.2062 24.9686C44.1955 24.1372 44.0996 23.3165 43.9504 22.5064C43.7479 21.5045 43.1403 20.8224 42.2024 20.4387C40.4331 19.7139 38.6637 18.9998 36.9051 18.2644C33.8994 17.0067 32.695 14.3527 32.7909 11.5495C32.8122 10.942 33.1853 10.5796 33.7395 10.6009C34.2831 10.6116 34.6455 11.0166 34.6029 11.6241C34.4536 13.8198 35.7007 15.9302 38.0349 16.7722C39.655 17.3584 41.2324 18.0619 42.8312 18.712C44.7391 19.4901 45.6451 21.0036 45.8902 22.9754C46.2526 25.9065 45.6877 28.6777 44.4833 31.353C43.8438 32.7706 43.3322 34.2308 42.746 35.6803C42.6927 35.8189 42.6927 35.9681 42.682 36.1067C42.65 36.7142 42.277 37.0766 41.7334 37.0659C41.2111 37.0553 40.8701 36.6609 40.8487 36.0854C40.8381 35.7017 40.9233 35.3499 41.0619 34.9982C41.8933 32.8985 42.7353 30.8094 43.556 28.699C44.0037 27.5159 44.1955 26.2582 44.2062 24.9686Z" fill="white"/>
<path d="M40.124 26.4821C40.1453 27.452 39.8255 28.3686 39.687 29.3066C39.2713 32.0991 39.0048 34.9023 39.1754 37.7374C39.2926 39.6133 39.7829 41.4359 40.1559 43.2692C40.4544 44.7081 40.8701 46.1363 40.8381 47.6285C40.8274 48.2787 40.3798 48.6517 39.7722 48.5771C39.3672 48.5238 39.0155 48.2147 39.0155 47.8204C39.0155 46.0297 38.4932 44.3244 38.1308 42.6084C37.6619 40.434 37.2675 38.249 37.2782 36.0214C37.2995 33.4207 37.534 30.8414 38.0029 28.2834C38.1522 27.5053 38.344 26.7272 38.344 25.9172C38.344 25.4588 38.749 25.1071 39.2073 25.0965C39.6443 25.0858 40.06 25.4056 40.1133 25.8426C40.1453 26.0557 40.124 26.2689 40.124 26.4821Z" fill="white"/>
<path d="M23.923 35.5418C24.019 37.812 23.5393 39.6453 22.8252 41.4253C22.1537 43.1093 21.365 44.7614 20.7468 46.4667C20.6189 46.8078 20.5336 47.1382 20.5336 47.5113C20.5336 48.0868 20.1499 48.4812 19.649 48.5025C19.148 48.5132 18.7963 48.1721 18.711 47.6072C18.6364 47.0956 18.7643 46.6053 18.9349 46.1257C19.5957 44.2711 20.4271 42.4911 21.1732 40.6792C22.1004 38.4302 22.303 36.096 21.9725 33.7085C21.7061 31.7793 21.2691 29.8928 20.5336 28.0915C20.4484 27.8783 20.3738 27.6758 20.2352 27.484C19.8515 26.9297 19.9368 26.4075 20.4377 26.109C20.9387 25.7999 21.5675 25.9811 21.8553 26.546C22.3882 27.6332 22.7826 28.7736 23.1023 29.9461C23.6246 31.8753 23.9337 33.8577 23.923 35.5418Z" fill="white"/>
<path d="M27.824 25.5015C27.8134 24.1479 28.0052 22.4638 28.2291 20.7904C28.3037 20.1722 28.7193 19.8205 29.2736 19.8845C29.7959 19.9484 30.1156 20.3748 30.041 20.9929C29.8811 22.3892 29.7212 23.7961 29.6999 25.203C29.668 27.3347 29.8385 29.4451 30.2542 31.5449C30.5952 33.2502 30.9363 34.9556 31.0642 36.6929C31.1069 37.2578 30.8084 37.7055 30.3075 37.7801C29.7426 37.8653 29.3056 37.5669 29.2629 36.9594C29.0817 34.5292 28.3889 32.1737 28.0905 29.7649C27.92 28.4645 27.8134 27.1536 27.824 25.5015Z" fill="white"/>
<path d="M31.0749 41.5425C31.0536 42.7469 30.9151 43.93 30.6166 45.0918C30.4567 45.7206 30.0411 45.9978 29.4868 45.8699C28.9646 45.7526 28.6981 45.305 28.8366 44.6974C29.1138 43.461 29.2523 42.214 29.2417 40.935C29.231 40.3488 29.5934 39.9651 30.1157 39.9437C30.6592 39.9224 31.0323 40.2848 31.0749 40.8923C31.0962 41.1162 31.0749 41.3293 31.0749 41.5425Z" fill="white"/>
</svg>
