<svg width="60" height="60" viewBox="0 0 60 60" fill="none" xmlns="http://www.w3.org/2000/svg">
<circle cx="30" cy="30" r="30" fill="#ED6F73"/>
<path d="M29.5506 38.9425C25.2533 38.9649 21.482 38.2497 17.8338 36.8975C17.3078 36.7075 17.3078 36.7075 17.1624 37.2327C16.5916 39.2666 16.2559 41.3452 16.0992 43.4461C16.0433 44.2954 15.3942 44.776 14.6892 44.5301C14.2192 44.3625 13.9394 43.9155 13.9842 43.3679C14.3199 39.0096 15.3942 34.8412 17.2855 30.8964C17.6324 30.1812 18.1136 29.9912 18.8634 30.2594C21.6275 31.2652 24.4588 32.0362 27.3796 32.405C29.4946 32.6732 31.5873 32.5056 33.68 32.148C35.9294 31.7569 38.1116 31.1087 40.2154 30.2035C40.9093 29.9018 41.3681 30.0806 41.8269 30.807C43.1027 32.8632 43.9979 35.0871 44.6358 37.4115C45.1058 39.099 45.3856 40.8199 45.5535 42.5521C45.5647 42.6303 45.5647 42.7197 45.5647 42.798C45.5758 43.4908 45.1842 43.9825 44.5687 44.0272C43.9756 44.0608 43.4944 43.6249 43.4384 42.9209C43.3713 41.9822 43.2482 41.0658 43.0915 40.1383C42.9124 39.0766 42.6327 38.0373 42.3305 37.0092C42.2298 36.6851 42.0955 36.6293 41.7933 36.741C39.5888 37.5233 37.3282 38.082 35.0117 38.4508C33.0645 38.7637 31.1285 38.976 29.5506 38.9425ZM29.4163 36.8528C30.8487 36.7969 32.5273 36.6963 34.206 36.4393C36.5337 36.0817 38.8054 35.5341 41.0324 34.7742C41.3345 34.6736 41.4464 34.5618 41.2786 34.2378C41.0212 33.7572 40.775 33.2655 40.5512 32.7738C40.4169 32.4833 40.2602 32.4274 39.9581 32.5503C38.9173 32.9638 37.8542 33.3102 36.7687 33.5896C32.8855 34.6177 28.9799 34.9865 24.9959 34.1372C23.0375 33.7237 21.1127 33.232 19.2103 32.5838C18.9081 32.4833 18.785 32.5391 18.6843 32.8297C18.5164 33.299 18.3262 33.7684 18.1136 34.2266C17.9569 34.5507 18.024 34.7071 18.371 34.8412C21.8513 36.1822 25.4548 36.8192 29.4163 36.8528Z" fill="white"/>
<path d="M37.1156 21.7327C37.1156 19.0395 37.5744 16.6704 38.4697 14.3795C38.6375 13.9548 38.9173 13.6754 39.3761 13.5972C39.7678 13.5413 40.0923 13.709 40.3273 14.0107C40.6071 14.3683 40.5735 14.7706 40.4281 15.1617C39.9468 16.4022 39.5999 17.6762 39.4209 18.9948C39.0292 21.9451 39.1859 24.8171 40.6519 27.4992C40.7302 27.6333 40.7862 27.7785 40.8421 27.9238C41.0324 28.4602 40.8085 29.0302 40.305 29.2648C39.8238 29.4883 39.2194 29.3319 38.9621 28.829C38.0668 27.0521 37.2834 25.2418 37.1939 23.1967C37.1715 22.6491 37.1044 22.0792 37.1156 21.7327Z" fill="white"/>
<path d="M22.1423 21.9339C22.2206 23.8896 21.5156 25.6888 20.6875 27.4545C20.4972 27.8568 20.3182 28.2703 20.1279 28.6726C19.8482 29.2537 19.2886 29.4772 18.7403 29.2537C18.2031 29.0302 17.9569 28.4491 18.2031 27.8568C18.4829 27.1639 18.7962 26.4711 19.132 25.8005C20.1279 23.7778 20.2063 21.6769 19.8034 19.5089C19.546 18.1232 19.1431 16.771 18.5948 15.4635C18.55 15.3629 18.5053 15.2512 18.4717 15.1506C18.2815 14.5583 18.5165 13.9995 19.0424 13.7984C19.5908 13.5861 20.1615 13.7984 20.4077 14.3571C21.2806 16.3352 21.8625 18.3914 22.0751 20.5482C22.1087 20.9952 22.1535 21.4422 22.1423 21.9339Z" fill="white"/>
<path d="M14.7787 24.4372C13.8722 24.4372 13.0553 24.4372 12.2272 24.4372C11.8243 24.4372 11.4215 24.4483 11.0074 24.4372C10.3919 24.4148 9.98904 23.9902 10.0002 23.3867C10.0114 22.8056 10.4143 22.3809 11.0074 22.3809C12.0146 22.3698 13.0217 22.3698 14.0289 22.3809C14.2863 22.3809 14.4206 22.3809 14.2975 22.0457C14.1184 21.5763 14.3199 21.0958 14.7228 20.8499C15.1368 20.5929 15.6852 20.6376 16.0321 21.0064C16.6364 21.6434 17.2407 22.2915 17.8114 22.9509C18.2367 23.4426 18.2143 23.979 17.7667 24.4595C17.2519 25.0071 16.7147 25.5435 16.1776 26.0687C15.6628 26.5828 15.0697 26.6275 14.622 26.214C14.1856 25.8117 14.1856 25.2194 14.6108 24.6718C14.6444 24.616 14.678 24.5713 14.7787 24.4372Z" fill="white"/>
<path d="M44.2777 24.4707C44.3896 24.6271 44.4903 24.7389 44.5687 24.873C44.8484 25.3312 44.7589 25.9011 44.356 26.2364C43.9644 26.5605 43.3936 26.5828 43.0131 26.214C42.3865 25.6217 41.7822 24.9959 41.189 24.3589C40.8085 23.9455 40.7974 23.4202 41.1667 22.9844C41.771 22.2915 42.3976 21.6098 43.0355 20.9505C43.3712 20.6041 43.9196 20.5929 44.3113 20.8388C44.6918 21.0846 44.8932 21.554 44.7253 22.001C44.6022 22.3251 44.703 22.3586 45.0051 22.3586C45.9675 22.3474 46.9299 22.3474 47.9035 22.3586C48.5862 22.3586 49.0114 22.7609 49.0114 23.3867C49.0114 24.0125 48.5862 24.4148 47.9035 24.426C46.7397 24.4372 45.587 24.426 44.4232 24.4372C44.3896 24.4372 44.3672 24.4483 44.2777 24.4707Z" fill="white"/>
<path d="M31.5538 25.1859C31.5202 25.6776 31.3076 26.0017 30.9047 26.1805C30.4906 26.3593 30.0878 26.2811 29.7856 25.9682C29.5618 25.7223 29.4611 25.7559 29.2484 25.9794C28.9015 26.3481 28.342 26.3593 27.9391 26.0799C27.5251 25.7782 27.3796 25.2641 27.5698 24.8171C27.8832 24.0908 28.7784 23.4873 29.517 23.4873C30.2556 23.4985 31.1621 24.1131 31.453 24.8283C31.509 24.9624 31.5314 25.0965 31.5538 25.1859Z" fill="white"/>
</svg>
