<svg width="81" height="17" viewBox="0 0 81 17" fill="none" xmlns="http://www.w3.org/2000/svg">
<path fill-rule="evenodd" clip-rule="evenodd" d="M7.86162 5.32498H4.99216L4.43253 10.7444H7.27797L7.86162 5.32498ZM8.80993 5.32498L8.22628 10.7444H11.6627L11.5901 11.5559H8.15269L7.56903 16.8574H6.62047L7.20412 11.5559H4.33618L3.77706 16.8574H2.82849L3.41189 11.5559H0L0.0723245 10.7444H3.48422L4.06787 5.32498H0.631701L0.704026 4.51268H4.14171L4.60323 0.119141H5.55154L5.08876 4.51268H7.93394L8.39546 0.119141H9.34377L8.88251 4.51268H12.3202L12.2461 5.32498H8.80993Z" fill="#ED5338"/>
<path fill-rule="evenodd" clip-rule="evenodd" d="M17.0264 2.53007V14.468H18.5343C19.386 14.468 19.8956 14.0389 19.8956 12.8449V4.15368C19.8956 2.95993 19.386 2.53007 18.5343 2.53007H17.0264ZM14.3531 0.142578H18.5819C21.2569 0.142578 22.5703 1.59881 22.5703 4.27338V12.7252C22.5703 15.399 21.2569 16.8565 18.5819 16.8565H14.3531V0.142578Z" fill="#ED5338"/>
<path fill-rule="evenodd" clip-rule="evenodd" d="M24.2701 0.142578H26.9449V16.8565H24.2701V0.142578Z" fill="#ED5338"/>
<path fill-rule="evenodd" clip-rule="evenodd" d="M31.5633 7.1856H35.2349V9.57309H31.5633V14.468H36.183V16.8565H28.8881V0.142578H36.183V2.53007H31.5633V7.1856Z" fill="#ED5338"/>
<path fill-rule="evenodd" clip-rule="evenodd" d="M45.2498 0.142578V2.48239L40.1681 14.468H45.2498V16.8565H37.4208V14.5164L42.5025 2.53007H37.6635V0.142578H45.2498Z" fill="#ED5338"/>
<path fill-rule="evenodd" clip-rule="evenodd" d="M49.7701 16.8565V1.1456H46.2927V0.142578H54.3405V1.1456H50.8886V16.8565H49.7701Z" fill="#ED5338"/>
<path fill-rule="evenodd" clip-rule="evenodd" d="M61.5595 7.8782V8.88123H56.9158V15.8532H62.5086V16.8565H55.7981V0.142578H62.5086V1.1456H56.9158V7.8782H61.5595Z" fill="#ED5338"/>
<path fill-rule="evenodd" clip-rule="evenodd" d="M71.6 4.22541V5.61087H70.5301V4.15439C70.5301 2.3634 69.824 1.00228 67.9529 1.00228C66.0798 1.00228 65.3761 2.36365 65.3761 4.15439V12.8456C65.3761 14.6359 66.0798 15.9726 67.9529 15.9726C69.824 15.9726 70.5301 14.6359 70.5301 12.8456V10.8639H71.6V12.7736C71.6 15.1857 70.5301 17 67.9284 17C65.326 17 64.2576 15.1857 64.2576 12.7736L64.2578 4.22541C64.2578 1.81458 65.3257 0 67.9284 0C70.5301 0 71.6 1.81458 71.6 4.22541Z" fill="#ED5338"/>
<path fill-rule="evenodd" clip-rule="evenodd" d="M74.5393 9.00018V16.8565H73.4215V0.142578H74.5393V7.9979H79.8404V0.142578H80.9837V16.8565H79.8404V9.00018H74.5393Z" fill="#ED5338"/>
</svg>
