<svg width="49" height="43" viewBox="0 0 49 43" fill="none" xmlns="http://www.w3.org/2000/svg">
<g opacity="0.8">
<path d="M45.0745 18.9624C41.6504 11.8402 32.7855 15.5342 32.7855 15.5342C32.7855 15.5342 29.7273 6.40805 22.1345 8.51102C14.94 10.4902 14.6131 25.0948 24.097 34.6048C37.4682 35.5075 48.3022 25.6899 45.0745 18.9624Z" fill="#E54045"/>
<g filter="url(#filter0_d_124_126)">
<path d="M37.5409 3.20081C29.2962 -3.67572 20.4173 5.88433 20.4173 5.88433C20.4173 5.88433 11.4961 -3.67572 3.29367 3.20081C-4.48596 9.69996 3.33595 27.9395 20.4173 34.3548C37.4564 27.9395 45.3206 9.69996 37.5409 3.20081Z" fill="#EF5252"/>
</g>
<path d="M38.5135 18.3375H31.4949L28.8735 12.5512C28.7889 12.3835 28.6198 12.2577 28.4084 12.2577C28.197 12.2577 28.0279 12.4254 27.9856 12.5931L24.2649 27.6879L20.3751 7.85503C20.3328 7.64538 20.1637 7.47766 19.91 7.47766C19.6986 7.47766 19.4872 7.60345 19.4449 7.8131L15.0477 24.1239L13.0183 11.7965C12.976 11.5868 12.8492 11.461 12.6377 11.4191C12.4263 11.3772 12.2572 11.461 12.1304 11.6707L8.91706 17.457H1.8562C1.98304 17.7505 2.10988 18.086 2.27901 18.3795H9.21302C9.38214 18.3795 9.55127 18.2956 9.63583 18.1279L12.2995 13.3059L14.4558 26.472C14.4981 26.6816 14.6672 26.8493 14.8786 26.8493C15.09 26.8493 15.3014 26.7235 15.3437 26.5139L19.7832 10.0773L23.7153 30.036C23.7575 30.2457 23.9267 30.4134 24.1803 30.4134C24.3917 30.4134 24.6032 30.2457 24.6454 30.036L28.5775 14.1445L30.7761 18.9665C30.8607 19.1342 31.0298 19.26 31.1989 19.26H38.0484C38.2175 18.9665 38.3866 18.631 38.5135 18.3375Z" fill="#FFC1C1"/>
</g>
<defs>
<filter id="filter0_d_124_126" x="0.277588" y="0.712952" width="48.2729" height="41.6419" filterUnits="userSpaceOnUse" color-interpolation-filters="sRGB">
<feFlood flood-opacity="0" result="BackgroundImageFix"/>
<feColorMatrix in="SourceAlpha" type="matrix" values="0 0 0 0 0 0 0 0 0 0 0 0 0 0 0 0 0 0 127 0" result="hardAlpha"/>
<feOffset dx="4" dy="4"/>
<feGaussianBlur stdDeviation="2"/>
<feComposite in2="hardAlpha" operator="out"/>
<feColorMatrix type="matrix" values="0 0 0 0 0.4375 0 0 0 0 0.0929687 0 0 0 0 0.0929687 0 0 0 0.15 0"/>
<feBlend mode="normal" in2="BackgroundImageFix" result="effect1_dropShadow_124_126"/>
<feBlend mode="normal" in="SourceGraphic" in2="effect1_dropShadow_124_126" result="shape"/>
</filter>
</defs>
</svg>
