<svg width="60" height="61" viewBox="0 0 60 61" fill="none" xmlns="http://www.w3.org/2000/svg">
<circle cx="30" cy="30.4136" r="30" fill="#817BB1"/>
<path d="M30.0569 40.7371C28.1221 40.7371 26.1873 40.8023 24.2743 40.7154C21.1656 40.5849 18.6656 38.998 16.4047 37.0197C14.5786 35.411 12.9264 33.6501 11.5134 31.6719C10.7308 30.5849 10.8177 30.1284 11.9482 29.498C13.5569 28.6067 14.8395 27.2806 16.1438 26.0414C17.5569 24.6936 18.9047 23.2806 20.2525 21.8458C22.7308 19.2371 25.6873 18.7371 28.9264 20.324C29.6438 20.6936 30.209 20.7154 30.9482 20.3458C34.3612 18.7154 37.1438 19.2154 39.7525 21.911C41.8177 24.0632 43.8612 26.2588 46.1656 28.1501C46.8395 28.6936 47.5134 29.2371 48.296 29.6284C48.9699 29.9545 49.1873 30.498 48.7743 31.1067C46.1221 34.8893 43.0351 38.1936 38.6873 40.0632C37.5351 40.5632 36.296 40.7371 35.0351 40.7154C33.3612 40.7154 31.709 40.7371 30.0569 40.7371ZM44.3612 29.4545C44.2308 29.2371 44.209 29.1501 44.1438 29.0849C41.8395 27.0849 39.8395 24.8023 37.6873 22.6501C36.9047 21.8675 35.9264 21.498 34.8177 21.498C33.4047 21.4762 32.1438 21.9327 30.9699 22.6501C30.2743 23.0849 29.6656 23.0632 28.9917 22.6067C28.1873 22.0632 27.296 21.7588 26.3395 21.5849C24.6004 21.2371 23.1004 21.7154 21.9047 22.998C19.4264 25.6501 16.9482 28.324 14.0351 30.5197C13.6004 30.8458 13.5786 31.0849 13.9264 31.498C15.709 33.6719 17.6221 35.6936 20.0351 37.1936C21.7308 38.2588 23.5786 38.824 25.6004 38.6936C28.3612 38.5197 31.1438 38.5197 33.9047 38.6719C36.209 38.8023 38.2525 38.324 40.1656 37.0849C42.1004 35.8458 43.6873 34.1936 45.209 32.498C45.4047 32.2806 45.709 32.0632 45.7308 31.6501C44.3395 31.5632 42.9482 31.5414 41.6004 31.3675C39.9699 31.1501 38.5134 31.1501 36.9482 32.0414C34.383 33.498 31.4264 33.5197 28.5351 33.3893C27.9917 33.3675 27.5786 33.0632 27.5569 32.498C27.5351 31.8893 27.9047 31.5414 28.4917 31.4545C28.8395 31.411 29.1873 31.411 29.5569 31.411C31.3395 31.4545 33.0786 31.2806 34.796 30.7806C35.1004 30.6936 35.4482 30.6719 35.6656 30.3458C34.709 29.6719 33.709 29.2588 32.5351 29.5414C30.8395 29.9327 29.1438 29.9327 27.4482 29.5414C26.2525 29.2588 25.2525 29.6936 24.2743 30.411C24.6873 30.7371 25.1221 30.7806 25.5351 30.9327C26.1004 31.1501 26.5134 31.498 26.3177 32.1501C26.1221 32.824 25.6004 32.9762 24.9482 32.824C23.9917 32.5849 23.0134 32.3458 22.2743 31.6936C21.4917 31.0197 20.6873 31.0197 19.7743 31.1501C18.8395 31.2806 17.883 31.3675 16.9482 31.3893C16.3612 31.411 15.8612 31.1501 15.8177 30.4762C15.7743 29.8023 16.209 29.498 16.8177 29.4327C17.3395 29.3675 17.8395 29.324 18.3612 29.2806C20.6221 29.0414 22.9047 28.9327 24.9699 27.7371C25.8177 27.2371 26.7743 27.2154 27.7308 27.4762C29.2308 27.911 30.7308 27.9327 32.2308 27.4762C33.3395 27.1501 34.4047 27.3023 35.383 27.8458C36.6221 28.5197 37.9482 28.8458 39.3395 29.0414C40.9482 29.2806 42.5786 29.5197 44.3612 29.4545Z" fill="white"/>
<path d="M21.1873 25.5415C21.3395 23.9762 24.0351 21.998 25.5134 22.3241C25.9916 22.4328 26.2743 22.7371 26.3177 23.2154C26.3612 23.6936 26.1003 24.1501 25.6438 24.1719C24.4482 24.2588 23.8177 25.0849 23.1656 25.911C22.8395 26.3241 22.4482 26.6936 21.8612 26.4762C21.4047 26.3023 21.1873 25.9762 21.1873 25.5415Z" fill="white"/>
</svg>
