<svg width="35" height="35" viewBox="0 0 35 35" fill="none" xmlns="http://www.w3.org/2000/svg">
<circle cx="17.5" cy="17.5" r="17.5" fill="#E7F5FB"/>
<path d="M15.6976 8C15.7223 8.62384 15.6153 9.21442 15.2942 9.74676C14.9237 10.3623 14.3886 10.7782 13.7217 11.036C12.9231 11.3521 12.1245 11.6765 11.3342 12.0009C10.725 12.2505 10.3216 12.6913 10.1404 13.3318C10.0828 13.5397 10.0581 13.756 10.0416 13.9723C10.0169 14.2052 10.0005 14.4381 10.0005 14.6793C9.99225 15.3115 10.091 15.9353 10.2145 16.5508C10.2886 16.9418 10.3463 17.341 10.4944 17.7153C10.8979 18.6969 11.5894 19.3789 12.5856 19.7449C12.7173 19.7948 12.849 19.7532 12.9808 19.7615M22.0943 15.22C22.1355 15.6608 21.979 16.0767 21.9132 16.5092C21.8391 16.9751 21.7732 17.4492 21.7156 17.915C21.6168 18.7468 21.5756 19.5786 21.5839 20.4104C21.5921 21.1423 21.6744 21.866 21.8226 22.5813C21.979 23.3549 22.1684 24.1201 22.3084 24.8937C22.3742 25.2597 22.473 25.6257 22.4319 26M12.9728 15.6442C12.9975 15.6525 13.0139 15.6359 13.0386 15.6858C13.4338 16.5591 13.7137 17.4741 13.8702 18.4224C13.9689 19.0379 14.0348 19.6534 14.0348 20.2773C14.0348 20.8845 13.9278 21.475 13.7467 22.049C13.4997 22.8392 13.1292 23.5795 12.8164 24.3447C12.6517 24.744 12.5035 25.1432 12.3553 25.5508C12.3059 25.6756 12.3388 25.817 12.3306 25.9501M19.3281 8C19.2788 8.79852 19.4928 9.50554 19.9868 10.1294C20.3079 10.537 20.7277 10.8031 21.2052 10.9945C22.0614 11.3438 22.9259 11.6765 23.7739 12.0425C24.4325 12.3336 24.803 12.8494 24.9182 13.5813C25.0006 14.1137 25.017 14.646 24.9841 15.1701C24.9429 15.8189 24.7865 16.451 24.5395 17.0582C24.1526 17.9981 23.7821 18.9464 23.4034 19.8946C23.354 20.0194 23.3293 20.1442 23.3458 20.2773M17.0724 12.6248C17.023 13.0573 16.9654 13.4981 16.9242 13.9307C16.8913 14.305 16.8831 14.6876 16.8831 15.0619C16.8831 15.4529 16.8666 15.8355 16.9242 16.2264C16.9654 16.5092 16.9736 16.8004 17.0065 17.0915C17.0559 17.524 17.1465 17.9482 17.2288 18.3808C17.3441 18.963 17.4676 19.537 17.5335 20.1275C17.5499 20.2939 17.5499 20.4686 17.5746 20.6349M17.5746 22.6063C17.6075 23.305 17.517 23.9871 17.3523 24.6608" stroke="#92C02C" stroke-miterlimit="10" stroke-linecap="round" stroke-linejoin="round"/>
</svg>
