<svg width="22" height="19" viewBox="0 0 22 19" fill="none" xmlns="http://www.w3.org/2000/svg">
<path d="M22 4.57971C21.9243 6.13458 21.2299 7.51598 19.8286 8.50544C19.614 8.65964 19.3994 8.81385 19.1722 8.93592C18.5473 9.27003 18.3327 9.82901 18.2948 10.5036C18.2443 11.4096 18.2569 12.3155 18.0423 13.2022C17.6889 14.6543 16.8999 15.8429 15.9215 16.9352C14.9873 17.976 13.8448 18.6314 12.4814 18.8434C11.5283 18.9912 10.5752 19.094 9.61573 18.8691C8.49849 18.6057 7.57062 18.0403 6.85736 17.1279C6.75636 16.9994 6.65537 16.8838 6.52913 16.7874C6.37764 16.6717 6.24509 16.6846 6.11253 16.8324C5.99892 16.9609 5.95473 17.1279 5.85374 17.2628C5.10891 18.2587 4.1621 18.8306 2.88707 18.6892C2.6409 18.6635 2.41366 18.5736 2.19905 18.4386C1.31536 17.8861 0.639972 17.1408 0.179191 16.1963C-0.0606672 15.7015 -0.0922275 15.2132 0.286496 14.7571C0.715717 14.2495 1.23331 14.0182 1.88345 14.2045C2.09806 14.2623 2.30636 14.3394 2.50834 14.4294C2.69139 14.5065 2.75451 14.4487 2.79239 14.2623C2.92494 13.6841 3.03856 13.0994 3.2721 12.5533C3.66345 11.6409 4.30097 11.0112 5.28565 10.8313C6.04941 10.6964 6.7753 10.8442 7.45069 11.249C7.69055 11.3967 7.82941 11.6088 7.77892 11.9107C7.74104 12.142 7.54537 12.3412 7.30551 12.3926C7.12877 12.4312 6.9836 12.3669 6.83211 12.277C6.4597 12.0649 6.05572 11.9493 5.6265 11.9943C5.00792 12.0521 4.61026 12.4376 4.3704 12.9966C4.13686 13.5491 4.03586 14.1467 3.89069 14.7314C3.82756 14.9755 3.796 15.2325 3.59402 15.4253C3.25317 15.7594 2.85551 15.7401 2.44522 15.663C2.19274 15.618 1.96551 15.5088 1.73196 15.4188C1.63728 15.3803 1.5426 15.3417 1.43529 15.3546C1.25855 15.3803 1.17019 15.5216 1.24593 15.6758C1.62465 16.4083 2.14224 17.0187 2.86182 17.417C3.15217 17.5777 3.4804 17.507 3.78338 17.3978C4.28203 17.2179 4.66707 16.8966 4.93218 16.4147C5.25409 15.8429 5.68962 15.4188 6.40289 15.4638C6.83842 15.4895 7.17927 15.7208 7.47594 16.0228C7.72211 16.2734 7.92409 16.5689 8.18289 16.8002C9.16126 17.6933 10.329 17.8861 11.5851 17.7126C12.008 17.6548 12.4309 17.6355 12.8412 17.5134C13.7186 17.25 14.4508 16.7617 15.063 16.0678C15.9215 15.104 16.6284 14.0567 16.8999 12.7524C17.0324 12.1292 17.045 11.4931 17.0703 10.8635C17.0892 10.4458 17.1208 10.0346 17.2155 9.62341C17.3606 8.97447 17.7078 8.46689 18.2443 8.08781C18.6672 7.79226 19.1217 7.5481 19.513 7.20115C20.3526 6.45584 20.7818 5.50492 20.8007 4.38696C20.826 2.84493 19.6835 1.51494 18.1875 1.27079C15.953 0.91098 13.9774 2.4016 13.7059 4.67609C13.6365 5.26077 13.6744 5.84545 14.0531 6.35303C14.2551 6.62289 14.1667 6.97627 13.9142 7.1626C13.6554 7.35535 13.3209 7.3168 13.1063 7.05337C12.6645 6.52009 12.5067 5.87758 12.4877 5.19652C12.4309 2.67146 14.2109 0.493349 16.66 0.082143C18.2506 -0.187711 19.6519 0.197795 20.8007 1.38001C21.615 2.23455 21.9811 3.25614 22 4.57971Z" fill="#92C02C"/>
<path d="M12.4751 11.4546C12.4751 11.7501 12.2984 11.975 12.0143 12.0392C11.7492 12.1035 11.4399 11.975 11.3579 11.6923C11.1559 10.9598 10.6004 10.5486 10.0386 10.1503C9.71042 9.91896 9.37588 9.68766 9.0224 9.48848C7.34339 8.52472 6.39027 7.02767 5.91055 5.17082C5.81587 4.81101 5.74644 4.45121 5.71488 4.08498C5.67701 3.66735 5.89161 3.38464 6.2514 3.34609C6.57332 3.31397 6.83211 3.57097 6.88892 3.95005C7.05304 5.11299 7.41282 6.19883 8.11977 7.1369C8.42275 7.54168 8.78254 7.88863 9.20545 8.16491C9.98183 8.6725 10.7898 9.12868 11.4841 9.75834C11.8881 10.1181 12.2163 10.5358 12.393 11.0562C12.4435 11.1847 12.4877 11.3132 12.4751 11.4546Z" fill="#92C02C"/>
</svg>
