<svg width="22" height="18" viewBox="0 0 22 18" fill="none" xmlns="http://www.w3.org/2000/svg">
<path d="M11.0324 17.44C13.8557 17.44 16.6669 17.4019 19.4901 17.4527C20.8414 17.4908 22.0238 16.2968 21.9996 14.7726C21.9514 11.3812 22.253 12.2068 20.5398 9.19642C20.1657 8.52321 19.9365 7.83731 19.9124 7.04979C19.8641 5.61447 18.6938 4.36967 17.3304 4.26806C16.884 4.22995 16.4256 4.19185 15.9791 4.19185C15.6051 4.19185 15.4603 4.07753 15.5448 3.65837C15.6534 3.07408 15.6172 2.48979 15.3397 1.9436C14.8571 1.00366 14.1091 0.559089 13.1197 0.559089C11.7564 0.546387 10.3809 0.546387 9.00551 0.546387C7.34053 0.559089 6.27879 1.86739 6.4839 3.60756C6.55629 4.17915 6.49597 4.24266 5.95304 4.25536C5.45837 4.26806 4.9637 4.21725 4.46903 4.33157C3.05741 4.64912 2.16459 5.70338 2.08013 7.21491C2.04394 7.90082 1.86296 8.52321 1.52514 9.0948C1.16319 9.7172 0.83743 10.365 0.475476 10.9874C0.149718 11.559 0.0411318 12.2068 0.0170016 12.8546C-0.00712867 13.6929 -0.0191938 14.5312 0.0773271 15.3696C0.210043 16.4873 1.17525 17.4146 2.29731 17.4146C4.9637 17.44 7.64215 17.44 10.3085 17.44C10.5498 17.44 10.7911 17.44 11.0324 17.44ZM10.9842 15.6871C8.19715 15.6871 5.41011 15.6871 2.62306 15.6871C1.97155 15.6871 1.82677 15.522 1.8147 14.8361C1.8147 14.2137 1.83883 13.5913 1.80264 12.9816C1.76644 12.3465 1.93535 11.8257 2.24905 11.2795C2.99708 9.95853 3.84164 8.66294 3.87784 7.01168C3.8899 6.30037 4.33631 6.00823 5.07228 6.00823C9.01758 6.00823 12.9629 6.00823 16.9202 6.00823C17.7527 6.00823 18.1267 6.38929 18.1991 7.26572C18.2595 8.14216 18.4525 8.98048 18.8989 9.7553C19.2488 10.3523 19.5625 10.962 19.9124 11.559C20.0572 11.813 20.1778 12.0671 20.1778 12.3592C20.1899 13.2737 20.1778 14.201 20.1778 15.1155C20.1778 15.4458 19.9968 15.6109 19.7073 15.6617C19.5022 15.6998 19.285 15.6998 19.0799 15.6998C16.3773 15.6871 13.6747 15.6871 10.9842 15.6871ZM11.0445 4.25536C10.4413 4.25536 9.838 4.25536 9.23475 4.25536C8.29367 4.25536 8.23334 4.17915 8.24541 3.17569C8.24541 3.11218 8.24541 3.04867 8.25747 2.98516C8.2816 2.61681 8.45051 2.40087 8.81247 2.36277C9.00551 2.33736 9.19855 2.29926 9.39159 2.29926C10.5498 2.29926 11.7081 2.29926 12.8663 2.31196C13.6868 2.32466 13.9039 2.6041 13.8195 3.46784C13.8074 3.59486 13.7712 3.72188 13.7592 3.84889C13.7471 4.17915 13.5782 4.26806 13.2886 4.26806C12.5527 4.25536 11.7926 4.25536 11.0445 4.25536Z" fill="#92C02C"/>
<path d="M8.13633 11.1017C8.1484 11.6098 8.48622 11.9655 9.00502 12.0036C9.93404 12.0798 9.93403 12.0798 10.0547 13.0197C10.1391 13.6929 10.5373 14.1248 11.0561 14.0867C11.5749 14.0486 11.9368 13.5786 11.961 12.9181C11.961 12.8927 11.961 12.8546 11.961 12.8292C11.973 12.0036 11.973 11.9909 12.7452 12.0163C13.1434 12.029 13.4932 11.9401 13.7345 11.5717C14.1206 10.9747 13.7587 10.2253 13.0348 10.0856C12.6969 10.0221 12.2747 10.238 12.0454 9.94585C11.8283 9.69181 12.0092 9.27264 11.9489 8.92969C11.8524 8.42161 11.4784 8.05326 11.0199 8.04056C10.5976 8.02785 10.2115 8.3581 10.1029 8.86618C10.0547 9.10752 10.0426 9.37426 10.0547 9.6283C10.0668 9.94585 9.9461 10.0983 9.63241 10.0856C9.36697 10.0729 9.08948 10.0602 8.82405 10.1491C8.37764 10.3015 8.12427 10.6318 8.13633 11.1017Z" fill="#92C02C"/>
</svg>
