<svg width="38" height="30" viewBox="0 0 38 30" fill="none" xmlns="http://www.w3.org/2000/svg">
<path d="M18.9977 0C25.1244 0 31.2511 0 37.3884 0C38 0 38 0 38 0.603617C38 8.69421 38 16.7742 38 24.8648C38 25.4684 38 25.4684 37.3989 25.4684C36.0597 25.4684 34.7099 25.479 33.3707 25.4578C33.0438 25.4578 32.9383 25.5531 32.9383 25.8814C32.9594 27.0992 32.9489 28.3171 32.9489 29.5349C32.9489 30.0856 32.9489 30.0961 32.4322 29.8314C30.65 28.9419 28.8679 28.0523 27.0963 27.1416C26.7483 26.9616 26.4636 26.951 26.1051 27.131C24.3124 28.0523 22.5092 28.9524 20.6954 29.8526C20.2631 30.0644 20.242 30.0538 20.242 29.5772C20.242 28.3594 20.2314 27.1416 20.2525 25.9238C20.2631 25.532 20.126 25.4366 19.7569 25.4366C13.4087 25.4472 7.05001 25.4472 0.70184 25.4472C0.575298 25.4472 0.438211 25.4366 0.31167 25.4472C0.0902216 25.4578 -0.00468466 25.3519 0.00586048 25.1401C0.00586048 25.0236 0.00586048 24.9072 0.00586048 24.7801C0.00586048 16.7318 0.00586048 8.68362 0.00586048 0.635387C-0.0152298 0 -0.0152298 0 0.659659 0C6.77584 0 12.8815 0 18.9977 0ZM19.0082 2.5945C13.7145 2.5945 8.41034 2.5945 3.11668 2.5945C2.57887 2.5945 2.57887 2.5945 2.57887 3.13457C2.57887 9.5308 2.57887 15.9164 2.57887 22.3127C2.57887 22.8633 2.57887 22.8633 3.14831 22.8633C8.65288 22.8633 14.168 22.8633 19.6725 22.8633C19.7464 22.8633 19.8307 22.8527 19.9045 22.8633C20.1365 22.8845 20.242 22.7892 20.2314 22.5456C20.2209 22.1644 20.2314 21.7832 20.2314 21.3913C20.242 20.3747 20.1576 19.3475 20.2736 18.3415C20.6532 15.0587 23.3528 12.6971 26.6534 12.7077C30.1122 12.7077 32.9278 15.5564 32.9383 19.0298C32.9383 20.1841 32.9489 21.3278 32.9383 22.4821C32.9383 22.7786 33.0332 22.8845 33.3285 22.8739C33.8558 22.8527 34.383 22.8739 34.9103 22.8739C35.427 22.8739 35.427 22.8739 35.427 22.3444C35.427 15.9482 35.427 9.56257 35.427 3.16634C35.427 2.5945 35.427 2.5945 34.8681 2.5945C29.5744 2.5945 24.2913 2.5945 19.0082 2.5945ZM22.815 22.0056C22.815 23.2763 22.815 24.3247 22.815 25.3731C22.815 25.8496 22.8255 25.8602 23.2684 25.6378C24.2597 25.1401 25.2509 24.653 26.2316 24.1447C26.4742 24.0176 26.6851 24.0176 26.9276 24.1447C27.8872 24.6424 28.8574 25.119 29.8275 25.6061C30.3548 25.8708 30.3548 25.8708 30.3548 25.299C30.3548 24.2294 30.3653 23.1598 30.3548 22.0797C30.3337 20.9148 30.4286 19.7499 30.2915 18.5956C30.0911 16.7742 28.4777 15.334 26.6112 15.3128C24.7869 15.2916 23.1208 16.7213 22.8994 18.5109C22.7306 19.7499 22.8677 20.9889 22.815 22.0056Z" fill="#92C02C"/>
<path d="M19.0293 7.62464C22.6357 7.62464 26.2527 7.62464 29.8592 7.62464C30.397 7.62464 30.397 7.62464 30.4075 8.17531C30.4075 8.72598 30.397 9.28723 30.4075 9.8379C30.418 10.1344 30.302 10.2509 30.0173 10.2191C29.9435 10.2085 29.8592 10.2191 29.7853 10.2191C22.5936 10.2191 15.4018 10.2191 8.20998 10.2191C7.58782 10.2191 7.58782 10.2191 7.58782 9.59434C7.58782 9.09662 7.60891 8.58831 7.57727 8.09059C7.55618 7.71995 7.70381 7.62464 8.0518 7.62464C10.4983 7.62464 12.9447 7.62464 15.4018 7.62464C16.6039 7.62464 17.8166 7.62464 19.0293 7.62464Z" fill="#92C02C"/>
<path d="M12.6178 17.8438C11.0888 17.8438 9.55976 17.8332 8.03071 17.8544C7.67218 17.8544 7.54564 17.7379 7.55618 17.3778C7.57727 16.7954 7.56673 16.2129 7.55618 15.6305C7.55618 15.3764 7.61945 15.2493 7.91472 15.2493C11.0783 15.2599 14.2313 15.2599 17.3948 15.2493C17.6479 15.2493 17.7428 15.3446 17.7428 15.5987C17.7322 16.2024 17.7217 16.8166 17.7428 17.4202C17.7533 17.7485 17.6268 17.8544 17.3104 17.8438C15.7603 17.8332 14.1891 17.8438 12.6178 17.8438Z" fill="#92C02C"/>
</svg>
