<svg width="22" height="22" viewBox="0 0 22 22" fill="none" xmlns="http://www.w3.org/2000/svg">
<path d="M21.9984 3.35053C21.9731 4.05509 22.0616 4.88546 21.872 5.69695C21.3158 8.03708 19.9126 9.62862 17.6498 10.4653C17.4538 10.5408 17.3464 10.5911 17.3843 10.849C17.4602 11.3774 17.2769 11.8429 16.8534 12.1889C16.7206 12.2959 16.6827 12.4154 16.6827 12.5727C16.689 13.3087 16.6764 14.051 16.689 14.787C16.7143 16.5484 16.0759 18.077 14.9761 19.4232C13.9648 20.6625 12.6944 21.5054 11.1016 21.8451C7.24594 22.6755 3.39032 20.0774 2.72033 16.2024C2.60655 15.5544 2.63184 14.9002 2.62552 14.2523C2.61919 13.749 2.61919 13.2458 2.62552 12.7425C2.63184 12.5664 2.56863 12.4972 2.40429 12.4468C1.08959 12.082 0.293182 11.2327 0.0466755 9.89912C-0.275679 8.1629 1.11487 6.45183 2.88466 6.31973C4.53436 6.20021 5.99444 7.37027 6.24095 8.99327C6.46217 10.4401 5.53935 11.931 4.08559 12.3839C3.85173 12.4594 3.7822 12.5538 3.78852 12.7928C3.82013 13.6547 3.76324 14.5228 3.82645 15.3846C3.99078 17.7625 5.55199 19.7692 7.83376 20.5241C10.4632 21.3922 13.2253 20.3039 14.6538 17.8379C15.2353 16.8377 15.5324 15.7746 15.5134 14.6234C15.5071 14.0006 15.5071 13.3842 15.5134 12.7614C15.5134 12.6041 15.4692 12.5223 15.3175 12.4594C14.6411 12.1826 14.3188 11.692 14.3314 10.956C14.3377 10.7672 14.2619 10.7043 14.0912 10.6603C11.3417 9.93058 9.69204 8.16919 9.13582 5.395C9.07894 5.11821 9.06629 4.83513 9.06629 4.55205C9.07262 3.6462 9.0979 2.74034 9.05997 1.84077C9.01573 0.796521 9.85638 -0.0653008 10.9183 0.00389659C11.3165 0.0290593 11.7083 0.0164779 12.0623 0.236651C12.5932 0.570057 12.8903 1.04186 12.8966 1.67722C12.903 2.08611 12.903 2.495 12.8966 2.9039C12.8903 3.82862 12.1508 4.55834 11.2216 4.57092C10.9688 4.57092 10.716 4.58351 10.4632 4.54576C10.2862 4.5206 10.2672 4.57092 10.2735 4.7219C10.3115 5.51452 10.5264 6.25682 10.9246 6.94251C11.8537 8.53405 13.2569 9.42103 15.0899 9.62862C15.7157 9.377 16.3857 9.65379 17.0177 9.4399C17.6371 9.23231 18.225 8.9681 18.7369 8.5655C19.9884 7.58416 20.69 6.30715 20.7975 4.71561C20.8101 4.57092 20.7912 4.5206 20.6205 4.54576C20.2918 4.60238 19.9568 4.59609 19.6282 4.55834C18.8254 4.47027 18.1807 3.74685 18.1681 2.94793C18.1618 2.50758 18.1618 2.06724 18.1681 1.62689C18.1807 0.758777 18.9202 0.0227686 19.7925 0.0101873C20.2666 0.00389659 20.7406 -0.0338474 21.1704 0.242942C21.6887 0.582638 21.9858 1.04815 21.9921 1.67092C22.0047 2.19305 21.9984 2.70889 21.9984 3.35053ZM3.13749 11.346C4.21833 11.346 5.07794 10.4967 5.09058 9.42103C5.0969 8.37049 4.20569 7.4898 3.13749 7.4898C2.08194 7.4898 1.20336 8.3642 1.19704 9.40845C1.1844 10.4779 2.06297 11.346 3.13749 11.346ZM11.7273 2.29999C11.7273 2.11127 11.7336 1.92255 11.7273 1.73383C11.7083 1.40043 11.5061 1.19912 11.1711 1.17396C11.051 1.16767 10.9372 1.16767 10.8171 1.17396C10.4695 1.19283 10.2609 1.40043 10.2546 1.74641C10.2419 2.10498 10.2419 2.46984 10.2546 2.82841C10.2672 3.17439 10.4758 3.3757 10.8234 3.40086C10.9435 3.40715 11.0573 3.40715 11.1774 3.40086C11.5061 3.3757 11.7147 3.17439 11.7336 2.84099C11.7336 2.65856 11.7273 2.48242 11.7273 2.29999ZM20.8228 2.30628C20.8291 2.30628 20.8291 2.30628 20.8228 2.30628C20.8228 2.14272 20.8291 1.97917 20.8228 1.80932C20.8165 1.38784 20.6015 1.18025 20.1717 1.17396C20.0769 1.17396 19.9821 1.16767 19.8873 1.17396C19.565 1.19912 19.3564 1.39413 19.3437 1.71496C19.3311 2.0924 19.3311 2.46984 19.3437 2.84728C19.3564 3.18069 19.5713 3.3757 19.9063 3.40086C20.0264 3.40715 20.1401 3.40715 20.2602 3.40086C20.5952 3.3757 20.7975 3.17439 20.8165 2.84728C20.8354 2.66485 20.8228 2.48242 20.8228 2.30628Z" fill="#92C02C"/>
<path d="M3.16277 8.59695C3.62418 8.59695 4.00343 8.98069 3.9971 9.4399C3.99078 9.89283 3.62418 10.264 3.16909 10.2703C2.71401 10.2766 2.3158 9.88654 2.3158 9.43361C2.3158 8.98068 2.70136 8.59695 3.16277 8.59695Z" fill="#92C02C"/>
</svg>
