<svg width="40" height="40" viewBox="0 0 40 40" fill="none" xmlns="http://www.w3.org/2000/svg">
<circle cx="20" cy="20" r="20" fill="#069BCD"/>
<path d="M29.3309 13.037C29.3483 13.3903 29.2266 13.7159 29.1512 14.0526C28.7455 15.8961 28.334 17.7342 27.9225 19.5777C27.4646 21.6365 27.0067 23.6898 26.5488 25.7486C26.4503 26.1957 26.3633 26.6427 26.2474 27.0843C25.975 28.0723 25.2795 28.2379 24.4622 27.6915C23.2392 26.869 22.0453 26.0025 20.8397 25.158C20.6078 24.9924 20.3644 24.8378 20.1441 24.6667C20.0282 24.5784 19.9413 24.5895 19.8485 24.6833C19.7326 24.7937 19.6109 24.9041 19.4892 25.0145C18.8922 25.5664 18.2952 26.1184 17.6982 26.6703C17.5475 26.8138 17.3736 26.9242 17.165 26.9794C16.9157 27.0512 16.8404 26.9905 16.852 26.7531C16.8752 26.2784 16.9099 25.8038 16.9505 25.3291C17.0027 24.6281 17.0606 23.9271 17.1128 23.2261C17.1302 23.0329 17.1418 22.8398 17.1534 22.6466C17.1592 22.5362 17.2287 22.4699 17.3041 22.4037C17.9069 21.8849 18.5096 21.3715 19.1124 20.8527C19.6225 20.4167 20.1383 19.9806 20.6484 19.5446C21.7091 18.6338 22.764 17.7231 23.8189 16.8124C24.4332 16.2825 25.0534 15.7471 25.6678 15.2117C25.7489 15.14 25.8475 15.0627 25.7779 14.9468C25.7084 14.8364 25.5867 14.875 25.4823 14.9026C25.0998 15.0075 24.7926 15.2503 24.4622 15.4435C22.8219 16.4205 21.1874 17.403 19.5529 18.3799C18.1851 19.1968 16.823 20.0193 15.4551 20.8417C15.2233 20.9797 14.9856 21.1176 14.7596 21.2612C14.6553 21.3274 14.5567 21.3384 14.435 21.2998C13.1251 20.9079 11.8094 20.516 10.4937 20.1296C10.3372 20.08 10.1749 20.0358 10.0184 19.9861C9.8677 19.942 9.717 19.8813 9.58949 19.7874C9.25911 19.5446 9.24752 19.2355 9.56051 18.9705C9.76337 18.7994 10.001 18.678 10.2502 18.5842C11.8731 17.9881 13.496 17.3975 15.1131 16.8013C16.568 16.2659 18.017 15.7305 19.466 15.1952C21.7439 14.3617 24.0217 13.5282 26.2996 12.6948C26.8328 12.5126 27.366 12.3084 27.8935 12.1097C28.0384 12.0545 28.1833 12.0159 28.334 12.0048C28.8962 11.9552 29.3019 12.2919 29.3309 12.8328C29.3367 12.899 29.3309 12.9708 29.3309 13.037Z" fill="white"/>
</svg>
