<svg width="40" height="40" viewBox="0 0 40 40" fill="none" xmlns="http://www.w3.org/2000/svg">
<circle cx="20" cy="20" r="20" fill="#ED812B"/>
<path d="M14.4201 19.5425C14.8065 19.5201 15.1584 19.7552 15.5044 19.9735C15.9832 20.2759 16.4908 20.5222 17.0272 20.7182C17.5982 20.9309 18.1923 21.0317 18.798 21.0877C19.8651 21.1828 20.9148 21.0821 21.93 20.7461C22.5876 20.5278 23.1817 20.1807 23.7642 19.8112C24.2314 19.5145 24.7333 19.4137 25.2581 19.6768C26.1464 20.1247 26.2445 21.2556 25.5119 21.8994C24.2026 23.0415 22.6337 23.5622 20.9264 23.775C20.8629 23.7806 20.7764 23.7582 20.7533 23.8253C20.7245 23.9037 20.8168 23.9429 20.8629 23.9933C22.1088 25.2082 23.3547 26.4175 24.6006 27.6324C24.8659 27.8899 25.0505 28.1754 25.0678 28.5505C25.0851 29.088 24.6986 29.6422 24.1449 29.883C23.6316 30.1013 23.1009 30.0061 22.6741 29.5974C21.7512 28.7073 20.8283 27.8059 19.9112 26.9101C19.8651 26.8654 19.8189 26.8206 19.7728 26.7758C19.5709 26.6022 19.4671 26.6022 19.2767 26.787C18.5038 27.5316 17.7424 28.2818 16.9695 29.0264C16.7273 29.2615 16.4908 29.5135 16.2254 29.7262C15.5737 30.2581 14.6969 29.9334 14.3335 29.4463C13.8433 28.7913 13.9529 28.041 14.5816 27.498C15.0199 27.1173 15.4237 26.6974 15.8448 26.2887C16.3696 25.7792 16.8945 25.2698 17.4194 24.7603C17.6905 24.4972 17.9559 24.234 18.2269 23.9709C18.2673 23.9317 18.3308 23.8925 18.3135 23.8365C18.2962 23.7694 18.2212 23.7918 18.1635 23.7862C17.0906 23.6574 16.0466 23.4278 15.0834 22.9352C14.4143 22.5937 13.7625 22.213 13.278 21.6307C12.9377 21.2276 12.9204 20.7741 13.1684 20.3151C13.4107 19.8504 13.774 19.5313 14.4201 19.5425Z" fill="white"/>
<path d="M19.525 9.00037C22.5244 9.00037 25.0162 11.3574 24.9989 14.3918C24.9816 17.2862 22.6109 19.6376 19.4904 19.6544C16.5026 19.6712 14.0223 17.3198 14.0223 14.3358C14.0166 11.2398 16.6699 8.96678 19.525 9.00037ZM19.5135 11.7828C18.0484 11.7772 16.889 12.8914 16.8833 14.3134C16.8775 15.8306 18.0484 16.8775 19.5193 16.8775C21.0651 16.8719 22.1206 15.713 22.1379 14.3526C22.161 12.9361 20.9728 11.7884 19.5135 11.7828Z" fill="white"/>
</svg>
