<svg width="14" height="22" viewBox="0 0 14 22" fill="none" xmlns="http://www.w3.org/2000/svg">
<path d="M0.0052657 19.1427C0.0326271 18.5391 -0.0631378 17.8147 0.0873499 17.0904C0.388325 15.6014 1.22285 14.4343 2.34466 13.4283C3.26127 12.5966 4.31468 11.9527 5.42282 11.4027C6.88665 10.6783 8.35049 9.91372 9.63647 8.89423C11.2918 7.57963 12.3042 5.83578 12.6189 3.75656C12.7557 2.84439 12.6736 1.93222 12.6873 1.02005C12.6873 0.885905 12.6873 0.738348 12.6873 0.604205C12.7009 0.268848 12.9609 0.0139761 13.2892 0.000561838C13.6312 -0.0128524 13.9733 0.21519 13.9733 0.550548C13.9869 2.40172 14.1511 4.2663 13.3576 6.03699C12.5505 7.84792 11.4013 9.36373 9.6912 10.4637C8.37785 11.3356 6.98242 12.0734 5.58699 12.7978C4.31468 13.4551 3.16551 14.2734 2.28994 15.4136C1.63327 16.2587 1.30493 17.2111 1.31861 18.2842C1.33229 19.1427 1.31861 20.0147 1.31861 20.8732C1.31861 21.3159 1.07236 21.5976 0.67562 21.5976C0.278879 21.5976 0.0189464 21.3293 0.0189464 20.8866C0.0052657 20.3366 0.0052657 19.8 0.0052657 19.1427Z" fill="#92C02C"/>
<path d="M0.429391 2.03955C0.429391 1.59688 0.429391 1.14079 0.429391 0.698122C0.429391 0.268864 0.703005 0.000578722 1.08606 0.000578722C1.46912 0.000578722 1.72906 0.268864 1.72906 0.698122C1.74274 1.55664 1.7017 2.42856 1.75642 3.28708C1.86586 4.89679 2.49518 6.30529 3.4665 7.59306C3.78116 8.00891 4.12318 8.38451 4.51992 8.71986C4.68409 8.85401 4.80721 9.00156 4.83457 9.21619C4.87562 9.47106 4.73881 9.73935 4.50624 9.87349C4.25998 10.0076 3.95901 9.98081 3.72644 9.77959C2.67302 8.85401 1.87954 7.75404 1.27759 6.50651C0.60724 5.09801 0.319946 3.59561 0.429391 2.03955Z" fill="#92C02C"/>
<path d="M13.9869 19.4245C13.9869 20.1354 13.9869 20.7122 13.9869 21.3025C13.9869 21.7317 13.727 22 13.3439 22C12.9472 22 12.6872 21.7317 12.6872 21.289C12.6872 20.4037 12.6599 19.5318 12.6872 18.6464C12.742 17.1172 12.1263 15.8563 11.1413 14.7429C10.8951 14.4746 10.6215 14.2331 10.3615 13.9648C10.1016 13.6966 10.0742 13.321 10.3205 13.0527C10.5667 12.7844 10.9498 12.7576 11.2508 13.0124C12.5641 14.1526 13.5491 15.5075 13.9185 17.2245C14.069 18.0025 13.9596 18.7806 13.9869 19.4245Z" fill="#92C02C"/>
<path d="M7.18762 2.9383C6.31206 2.9383 5.42281 2.9383 4.54725 2.9383C4.09579 2.9383 3.80849 2.69684 3.80849 2.30782C3.80849 1.91881 4.08211 1.66394 4.53357 1.66394C6.31206 1.66394 8.09055 1.66394 9.86904 1.66394C10.3205 1.66394 10.6078 1.9054 10.6078 2.29441C10.6078 2.68342 10.3342 2.9383 9.88272 2.9383C8.97979 2.9383 8.09055 2.9383 7.18762 2.9383Z" fill="#92C02C"/>
<path d="M7.18763 20.7524C6.31207 20.7524 5.42283 20.7524 4.54726 20.7524C4.0958 20.7524 3.82219 20.4976 3.82219 20.1085C3.82219 19.7195 4.10948 19.4647 4.56094 19.4647C6.33943 19.4647 8.11792 19.4647 9.89641 19.4647C10.3479 19.4647 10.6215 19.7195 10.6215 20.1085C10.6215 20.4976 10.3342 20.739 9.88273 20.7524C8.9798 20.7524 8.07688 20.7524 7.18763 20.7524Z" fill="#92C02C"/>
<path d="M7.42017 5.83579C6.87294 5.83579 6.32572 5.83579 5.77849 5.83579C5.35439 5.83579 5.08077 5.58092 5.08077 5.19191C5.08077 4.81631 5.35439 4.56144 5.79217 4.56144C6.88662 4.56144 7.9674 4.56144 9.06185 4.56144C9.48595 4.56144 9.77325 4.81631 9.75957 5.20532C9.75957 5.58092 9.48596 5.83579 9.04817 5.84921C8.51463 5.83579 7.9674 5.83579 7.42017 5.83579Z" fill="#92C02C"/>
<path d="M7.42017 15.7489C7.9674 15.7489 8.51463 15.7489 9.06185 15.7489C9.48596 15.7489 9.77325 16.0038 9.77325 16.3928C9.77325 16.7684 9.49964 17.0367 9.06185 17.0367C7.9674 17.0367 6.88662 17.0367 5.79217 17.0367C5.36807 17.0367 5.08077 16.7818 5.08077 16.3928C5.08077 16.0172 5.35439 15.7624 5.79217 15.7489C6.32572 15.7489 6.87294 15.7489 7.42017 15.7489Z" fill="#92C02C"/>
</svg>
