<svg width="35" height="35" viewBox="0 0 35 35" fill="none" xmlns="http://www.w3.org/2000/svg">
<circle cx="17.5" cy="17.5" r="17.5" fill="#E7F5FB"/>
<path d="M25.748 23.4526C25.748 23.8406 25.748 24.2237 25.748 24.6117C25.748 26.0606 24.6314 27.146 23.3168 26.984C22.2858 26.8563 21.2728 26.6156 20.2913 26.2571C19.1657 25.8494 18.0987 25.3042 17.0902 24.6215C16.0727 23.9339 15.1317 23.1383 14.2943 22.2051C12.732 20.4713 11.575 18.4576 10.8096 16.1787C10.4089 14.9852 10.1522 13.7573 10.0172 12.4951C9.87311 11.1493 10.6475 10.0344 11.8721 9.80357C11.9261 9.79374 11.9847 9.78392 12.0387 9.78392C12.8491 9.78392 13.6595 9.76919 14.4699 9.78883C15.4109 9.80848 16.2753 10.6238 16.4509 11.6798C16.5859 12.4705 16.7615 13.2465 16.9821 14.0176C17.2298 14.8919 17.0407 15.6924 16.4419 16.3555C16.3158 16.493 16.1897 16.6354 16.0592 16.773C15.9691 16.8614 15.9601 16.94 16.0277 17.0578C16.712 18.1777 17.5359 19.1501 18.5219 19.9556C18.702 20.103 18.8911 20.2356 19.0712 20.3829C19.1837 20.4762 19.2603 20.4664 19.3593 20.3534C19.5484 20.1423 19.724 19.9212 19.9446 19.7444C20.5659 19.2484 21.2413 19.1059 21.9706 19.3859C22.6144 19.6315 23.2718 19.8083 23.9471 19.9212C24.9826 20.098 25.7435 21.0754 25.748 22.2247C25.7525 22.6275 25.748 23.04 25.748 23.4526ZM24.2938 23.4526C24.2938 23.0891 24.2938 22.7306 24.2938 22.3672C24.2938 21.7974 24.1092 21.5469 23.5869 21.4585C22.8846 21.3357 22.2002 21.154 21.5294 20.8888C21.2233 20.766 20.9576 20.8348 20.728 21.0902C20.4669 21.3799 20.2057 21.6648 19.9401 21.9497C19.5844 22.3377 19.2873 22.3721 18.8506 22.0921C17.8421 21.4389 16.9326 20.6629 16.1312 19.7248C15.4649 18.9488 14.8886 18.1089 14.4069 17.1904C14.2313 16.8516 14.2628 16.5077 14.5104 16.2278C14.7896 15.9135 15.0642 15.5991 15.3523 15.2995C15.627 15.0147 15.6765 14.6856 15.5504 14.3074C15.3118 13.6051 15.1497 12.8782 15.0462 12.1365C14.9696 11.6061 14.7355 11.3703 14.2448 11.3654C13.5694 11.3605 12.8941 11.3605 12.2188 11.3654C11.719 11.3752 11.4174 11.7485 11.4714 12.2937C11.5389 12.9518 11.638 13.6051 11.7911 14.2485C12.1693 15.8594 12.7771 17.3623 13.61 18.7572C14.3934 20.0686 15.3343 21.2228 16.4554 22.1953C18.0762 23.6049 19.8861 24.5921 21.9121 25.1078C22.4614 25.2453 23.0106 25.3779 23.5734 25.3975C23.9966 25.4123 24.2848 25.093 24.2893 24.6314C24.2938 24.2384 24.2938 23.8455 24.2938 23.4526Z" fill="#92C02C"/>
<path d="M19.3596 9.00289C19.8774 9.06183 20.3816 9.1797 20.8724 9.36143C22.097 9.80837 23.146 10.5647 23.9969 11.6207C24.9289 12.7798 25.5007 14.1256 25.7123 15.653C25.7303 15.7758 25.7438 15.8986 25.7438 16.0165C25.7483 16.434 25.4737 16.763 25.0865 16.8122C24.7488 16.8564 24.3976 16.5911 24.3211 16.208C24.249 15.8249 24.213 15.432 24.105 15.0538C23.8529 14.1501 23.4522 13.3348 22.8669 12.6325C22.0069 11.5912 20.9399 10.9429 19.6838 10.6581C19.5262 10.6237 19.3596 10.6089 19.202 10.5746C18.7878 10.4862 18.5402 10.1178 18.5807 9.6905C18.6258 9.33196 18.9544 8.9636 19.3596 9.00289Z" fill="#92C02C"/>
<path d="M18.585 12.9567C18.5895 12.4262 19.0128 12.0481 19.463 12.1512C20.3544 12.3575 21.1243 12.8093 21.7546 13.5362C22.3219 14.1944 22.6911 14.9557 22.8532 15.8348C22.9387 16.2965 22.7136 16.6845 22.2994 16.7975C21.9347 16.8957 21.561 16.6501 21.4485 16.213C21.3539 15.8397 21.2549 15.4714 21.0658 15.1374C20.6606 14.4301 20.0888 13.9635 19.3459 13.7523C19.1118 13.6836 18.8732 13.6296 18.7201 13.3889C18.6301 13.2514 18.585 13.0893 18.585 12.9567Z" fill="#92C02C"/>
</svg>
