<svg width="22" height="12" viewBox="0 0 22 12" fill="none" xmlns="http://www.w3.org/2000/svg">
<path d="M11.0376 11.9868C9.91702 11.9868 8.7964 12.0235 7.68838 11.9746C5.88784 11.9013 4.43985 11.0092 3.13037 9.89711C2.07271 8.9928 1.11578 8.00294 0.297356 6.89088C-0.155927 6.27986 -0.105562 6.02323 0.549179 5.66884C1.48093 5.1678 2.22381 4.42235 2.97928 3.72579C3.7977 2.96812 4.57836 2.17379 5.35901 1.36724C6.7944 -0.0992074 8.50681 -0.380277 10.3829 0.511814C10.7984 0.719562 11.1258 0.731782 11.5539 0.524035C13.5307 -0.392498 15.1424 -0.111428 16.6533 1.40391C17.8495 2.61373 19.033 3.84799 20.3677 4.91117C20.758 5.21668 21.1484 5.52219 21.6016 5.74216C21.992 5.92547 22.1179 6.23098 21.8786 6.57315C20.3425 8.69951 18.5546 10.557 16.0363 11.608C15.369 11.889 14.6513 11.9868 13.921 11.9746C12.9515 11.9746 11.9946 11.9868 11.0376 11.9868ZM19.3226 5.6444C19.2471 5.52219 19.2345 5.47331 19.1967 5.43665C17.8621 4.31237 16.7037 3.02922 15.4571 1.8194C15.0039 1.37947 14.4373 1.17172 13.7951 1.17172C12.9767 1.1595 12.2464 1.41613 11.5665 1.8194C11.1635 2.06381 10.811 2.05159 10.4207 1.79496C9.95479 1.48945 9.43855 1.31836 8.88454 1.2206C7.87725 1.02507 7.00846 1.29392 6.31594 2.01493C4.88055 3.50582 3.44515 5.00893 1.75793 6.2432C1.50611 6.4265 1.49352 6.56093 1.69498 6.79312C2.72745 8.01516 3.83548 9.15166 5.2331 9.99487C6.21521 10.5937 7.28546 10.9114 8.45644 10.8381C10.0555 10.7403 11.6672 10.7403 13.2663 10.8259C14.6009 10.8992 15.7845 10.6303 16.8925 9.93377C18.0131 9.2372 18.9323 8.30845 19.8137 7.35526C19.927 7.23305 20.1033 7.11085 20.1159 6.87866C19.31 6.82978 18.5042 6.81756 17.7236 6.7198C16.7792 6.59759 15.9356 6.59759 15.029 7.09863C13.5433 7.9174 11.8309 7.92962 10.1562 7.85629C9.84147 7.84407 9.60224 7.67299 9.58965 7.35526C9.57706 7.01309 9.79111 6.81756 10.1311 6.76868C10.3325 6.74424 10.534 6.74424 10.748 6.74424C11.7805 6.76868 12.7878 6.67091 13.7825 6.38984C13.9588 6.34096 14.1602 6.32874 14.2862 6.14543C13.7321 5.7666 13.153 5.53441 12.473 5.69328C11.4909 5.91325 10.5088 5.91325 9.52669 5.69328C8.83418 5.53441 8.25498 5.77882 7.68838 6.1821C7.92761 6.3654 8.17944 6.38984 8.41867 6.47539C8.74604 6.59759 8.98527 6.79312 8.87195 7.15973C8.75863 7.53856 8.45644 7.62411 8.0787 7.53856C7.52469 7.40414 6.95809 7.26971 6.52999 6.9031C6.07671 6.52427 5.61083 6.52427 5.08201 6.59759C4.54058 6.67091 3.98657 6.71979 3.44515 6.73202C3.10519 6.74424 2.81559 6.59759 2.79041 6.21876C2.76523 5.83992 3.01705 5.66884 3.3696 5.63218C3.67179 5.59552 3.96139 5.57107 4.26358 5.54663C5.57306 5.41221 6.89514 5.35111 8.0913 4.67898C8.58235 4.39791 9.13636 4.38569 9.69038 4.53234C10.5592 4.77675 11.428 4.78897 12.2968 4.53234C12.9389 4.34903 13.5559 4.43457 14.1225 4.74008C14.8402 5.11892 15.6082 5.30223 16.4141 5.41221C17.3458 5.54663 18.2902 5.68106 19.3226 5.6444Z" fill="#92C02C"/>
<path d="M5.90043 3.44472C5.98856 2.56485 7.54987 1.45279 8.40607 1.6361C8.68308 1.6972 8.84676 1.86829 8.87195 2.13714C8.89713 2.40599 8.74603 2.66262 8.48162 2.67484C7.7891 2.72372 7.42396 3.1881 7.04622 3.65247C6.85736 3.88466 6.63072 4.09241 6.29075 3.9702C6.02634 3.87244 5.90043 3.68913 5.90043 3.44472Z" fill="#92C02C"/>
</svg>
