<svg width="83" height="64" viewBox="0 0 83 64" fill="none" xmlns="http://www.w3.org/2000/svg">
<circle cx="28" cy="29" r="28" fill="#F4F9FB"/>
<path d="M38.063 47.2014C38.063 50.322 38.063 53.4223 38.063 56.543C38.063 59.6838 40.1815 61.771 43.3185 61.7913C44.1741 61.7913 45.05 61.8318 45.8852 61.5481C47.963 60.8389 49.3074 58.9746 49.3481 56.6848C49.3481 55.6716 49.3685 54.6584 49.6741 53.6858C50.7129 50.4638 54.0537 48.2956 57.2926 48.7617C60.8981 49.2885 63.4852 52.0647 63.587 55.5703C63.6074 56.2593 63.5666 56.928 63.6889 57.6169C64.0963 59.9878 66.0722 61.7305 68.5166 61.7913C72.1222 61.8926 74.2611 59.846 74.2611 56.2593C74.2611 51.9228 74.2611 47.6066 74.2611 43.2702C74.2611 42.8244 74.2203 42.561 73.7315 42.3381C72.8759 41.9733 72.4074 41.2438 72.4074 40.2914C72.387 39.0756 72.387 37.8598 72.4074 36.6439C72.4074 36.1779 72.2852 35.955 71.8574 35.7118C68.5981 34.0502 67.0092 30.4635 67.9259 26.9984C68.8629 23.513 72.0611 21.1624 75.7278 21.3448C77.4796 21.4259 79.0278 22.0743 80.3722 23.2091C80.6166 23.432 80.7592 23.6144 80.4129 23.8373C80.3722 23.8575 80.3315 23.898 80.3111 23.9386C79.9852 24.2628 79.7203 24.7289 79.3333 24.8707C78.9055 25.0126 78.6 24.4452 78.2333 24.2223C75.9315 22.8646 72.9981 23.2901 71.2055 25.2557C69.4129 27.2416 69.3315 30.2609 71.0018 32.3683C72.6315 34.4149 75.5648 35.0228 77.887 33.807C80.2907 32.5507 81.4111 29.8151 80.5963 27.2213C80.5148 26.9579 80.1481 26.6337 80.4944 26.4108C81.0037 26.0865 81.574 25.8231 82.1444 25.6407C82.287 25.6002 82.3889 25.9852 82.4703 26.1879C83.8555 29.7137 82.3889 33.7462 79.0074 35.57C78.437 35.8739 78.2129 36.1779 78.2537 36.8263C78.3148 37.88 78.274 38.954 78.274 40.0077C78.274 41.102 77.8259 41.9328 76.8074 42.3583C76.3185 42.561 76.4204 42.8852 76.4204 43.2094C76.4204 47.6472 76.4204 52.0647 76.4204 56.5024C76.4204 58.9341 75.5241 60.9605 73.5278 62.4195C71.1241 64.1621 68.4555 64.3648 65.787 63.2097C63.1389 62.075 61.7537 59.927 61.55 57.0293C61.4889 56.1174 61.5907 55.2056 61.3055 54.3139C60.5926 51.9836 58.2907 50.5044 55.8259 50.7881C53.5037 51.0717 51.65 53.0373 51.487 55.3879C51.4259 56.4011 51.487 57.4143 51.2426 58.4072C50.4685 61.5278 47.7389 63.7366 44.5204 63.8379C43.2778 63.8784 42.0352 63.8784 40.813 63.4732C37.9407 62.5005 36.0055 59.9067 35.9648 56.8672C35.9241 53.625 35.9648 50.3828 35.9648 47.1406C36.6778 47.2014 37.3704 47.2014 38.063 47.2014ZM76.1555 38.5487C76.1555 38.0219 76.1352 37.4748 76.1555 36.9479C76.1555 36.6642 76.0741 36.5224 75.7685 36.5629C75.5241 36.5832 75.2592 36.6034 75.0148 36.5629C74.587 36.5021 74.5055 36.6845 74.5055 37.0695C74.5259 37.9814 74.5463 38.8932 74.5055 39.8051C74.4852 40.3725 74.6889 40.5143 75.2592 40.5346C76.0129 40.5751 76.2778 40.332 76.1759 39.6025C76.1148 39.258 76.1555 38.9135 76.1555 38.5487Z" fill="#393185"/>
<path d="M38.063 47.2013C37.3704 47.2013 36.6574 47.2013 35.9648 47.2013C35.1704 46.6745 34.8241 45.9652 34.8648 45.0129C34.9056 44.1212 34.8852 43.2499 34.8648 42.3583C34.8444 41.1222 34.2537 40.3725 33.0722 40.0685C25.1278 38.1434 20.1574 33.1383 17.7333 25.4786C17.3667 24.3844 17.2037 23.2293 17.0204 22.0743C16.8778 21.1827 17.3259 20.514 17.8352 19.8858C18.5074 19.6021 19.2 19.5008 19.913 19.7237C21.0741 20.4532 21.0741 21.669 21.2574 22.8038C22.337 29.2882 27.5722 34.7189 34.0093 35.9752C40.5074 37.2518 46.9444 34.3946 50.5907 28.5384C51.8333 26.5323 52.6278 24.3641 52.9333 22.0135C52.9741 21.7298 53.0148 21.4664 53.0759 21.1827C53.3204 20.1898 54.2778 19.4603 55.1944 19.5616C56.213 19.6629 57.0685 20.5748 57.0278 21.6488C56.9463 23.7359 56.4167 25.7623 55.5815 27.6671C52.8111 34.1312 48.0852 38.3866 41.1389 40.0482C39.7741 40.3725 39.1833 41.1019 39.163 42.5204C39.163 43.3715 39.1426 44.2428 39.163 45.0939C39.2037 46.026 38.8574 46.7353 38.063 47.2013Z" fill="#92C02C"/>
<path d="M19.9333 19.7237C19.2204 19.5008 18.5278 19.6021 17.8556 19.8858C17.8556 15.0833 17.8759 10.2605 17.8352 5.45803C17.8352 4.85012 17.9574 4.60695 18.6093 4.66774C19.2815 4.72853 19.9741 4.66774 20.6667 4.68801C20.9926 4.68801 21.1352 4.58669 21.0944 4.2422C21.0741 3.99904 21.0944 3.73561 21.0944 3.49244C21.0944 3.31007 21.0944 3.1277 21.1148 2.96559C21.2778 1.54712 22.3167 0.979739 24.6185 1.02027C25.9019 1.04053 26.9 1.89161 26.9204 3.08717C26.9611 4.85012 26.9815 6.63333 26.9204 8.39627C26.8796 9.85526 25.8407 10.4632 23.6204 10.4429C22.1537 10.4429 21.1963 9.65263 21.0944 8.37601C21.0741 8.13284 21.0944 7.86942 21.0741 7.62625C21.0537 7.24124 21.2778 6.77517 20.5037 6.77517C19.7704 6.77517 19.913 7.18045 19.8926 7.60599C19.9333 11.6182 19.9333 15.671 19.9333 19.7237ZM23.213 5.70119C23.213 6.39016 23.2537 7.05887 23.1926 7.74783C23.1315 8.55838 23.6815 8.31522 24.0889 8.35575C24.4963 8.37601 24.8833 8.4368 24.8426 7.7681C24.7815 6.5928 24.8222 5.39724 24.8222 4.20168C24.8222 3.04664 24.8222 3.06691 23.6815 3.10743C23.2537 3.1277 23.1722 3.28981 23.1926 3.65455C23.213 4.32326 23.213 5.01223 23.213 5.70119Z" fill="#393185"/>
<path d="M56.1926 11.1927C56.1926 13.1582 56.1722 15.1441 56.1926 17.1097C56.1926 17.5757 56.0704 17.7176 55.6019 17.7176C54.0945 17.7176 54.0945 17.7379 54.0945 16.2181C54.0945 13.2798 54.0945 10.3416 54.0945 7.40335C54.0945 6.93728 53.9926 6.7549 53.4833 6.7549C52.9333 6.7549 52.9333 7.01833 52.9333 7.40335C52.9537 7.90994 52.9945 8.41653 52.8315 8.90286C52.4241 10.1187 51.4259 10.5442 49.2259 10.4226C48.187 10.3619 47.3519 9.65262 47.1278 8.63943C47.087 8.4368 47.087 8.23416 47.087 8.03152C47.087 6.49148 47.0667 4.95143 47.087 3.39112C47.087 1.91187 48.0241 1 49.5315 0.979736C49.8167 0.979736 50.0815 0.979736 50.3667 0.979736C52.0778 0.979736 52.9333 1.85108 52.9537 3.55323C52.9537 3.65455 52.9741 3.75587 52.9537 3.85719C52.8519 4.4651 53.0352 4.72853 53.7074 4.66774C54.3389 4.60695 54.9908 4.688 55.6222 4.64748C56.1111 4.60695 56.213 4.80959 56.213 5.25539C56.1926 7.24123 56.1926 9.20682 56.1926 11.1927ZM50.8759 5.78225C50.8759 5.07301 50.8556 4.36378 50.8759 3.65455C50.9167 2.80347 50.3056 3.16822 49.9185 3.12769C49.5519 3.08717 49.1648 3.00611 49.2056 3.65455C49.2667 4.99196 49.2667 6.32937 49.2056 7.66677C49.1852 8.29495 49.4296 8.39627 49.9593 8.33548C50.4074 8.29495 50.9778 8.49759 50.8963 7.66677C50.8148 7.05886 50.8759 6.41042 50.8759 5.78225Z" fill="#393185"/>
<path d="M75.3204 31.8617C73.6704 31.8617 72.4482 30.6256 72.4482 28.9842C72.4482 27.3023 73.6907 26.0662 75.3815 26.0662C77.0315 26.0662 78.2944 27.3631 78.2741 29.0247C78.2333 30.6661 76.9704 31.8617 75.3204 31.8617Z" fill="#92C02C"/>
</svg>
