<svg width="74" height="67" viewBox="0 0 74 67" fill="none" xmlns="http://www.w3.org/2000/svg">
<circle cx="28" cy="28" r="28" fill="#F4F9FB"/>
<path d="M61.3634 21.5361C61.3102 24.5313 61.6114 27.5264 61.0445 30.5041C60.3534 34.0772 58.7234 37.1775 56.1719 39.7873C56.0833 39.8749 55.9416 39.9449 55.977 40.1201C56.6857 40.2602 57.3945 40.3303 58.0855 40.5229C62.0013 41.5739 64.1629 44.2712 64.9425 48.0721C65.1551 49.1405 65.474 49.6485 66.5903 50.0338C69.1063 50.9271 70.4352 52.8713 70.5769 55.5337C70.6124 56.3044 70.6124 57.0576 70.5769 57.8282C70.5592 58.2836 70.6833 58.5113 71.1262 58.704C72.5437 59.3346 73.2524 60.8234 72.9335 62.3472C72.65 63.7835 71.392 64.8519 69.8328 64.957C68.3621 65.0621 66.9624 64.0988 66.484 62.6625C65.9524 61.0861 66.6966 59.3871 68.2736 58.669C68.6634 58.4938 68.7874 58.2836 68.7697 57.8808C68.7342 57.005 68.7874 56.1292 68.6988 55.2535C68.4862 52.9764 66.484 51.2774 64.1629 51.3475C61.8772 51.4176 59.9991 53.2392 59.9105 55.4987C59.875 56.3044 59.9105 57.1101 59.8928 57.9333C59.875 58.3011 59.9814 58.4938 60.3534 58.669C61.7886 59.2995 62.5682 60.8234 62.2493 62.2772C61.9127 63.8536 60.6192 64.9395 59.0068 64.9746C57.5008 65.0096 56.1365 63.9762 55.7289 62.5049C55.3214 61.0161 56.0302 59.3871 57.5008 58.7215C57.9792 58.5113 58.0678 58.2486 58.0678 57.7932C58.0678 56.7248 57.9437 55.6388 58.1741 54.5879C58.7234 52.1357 60.2294 50.5243 62.6568 49.8061C63.2061 49.6485 63.3656 49.5084 63.2593 48.9128C62.6923 45.9527 61.328 43.6232 58.3335 42.5022C57.6957 42.257 57.0224 42.0993 56.3491 42.0468C56.2428 42.257 56.42 42.3445 56.4908 42.4496C58.3335 45.2171 58.2272 48.5976 56.1365 51.1899C53.8331 54.0799 51.4588 56.9174 49.1554 59.79C48.8719 60.1403 48.7125 60.0527 48.429 59.825C46.728 58.4588 45.0093 57.1101 43.3261 55.7264C42.9894 55.4636 42.7945 55.4987 42.511 55.7439C40.8278 57.1101 39.1268 58.4238 37.4613 59.8075C37.0892 60.1052 36.912 60.0527 36.6463 59.7024C34.3783 56.8999 32.0926 54.1149 29.8247 51.3125C27.7339 48.7202 27.5213 45.5674 29.2223 42.6773C29.2931 42.5547 29.4349 42.4496 29.364 42.2219C28.0174 42.5022 26.848 43.0802 25.8026 43.956C23.8359 45.5849 22.8259 47.7743 22.2058 50.1564C21.7628 51.8379 21.5856 53.5545 21.6034 55.2885C21.0009 55.2885 20.3808 55.2885 19.7784 55.2885C19.7429 52.2583 20.239 49.3157 21.5679 46.5658C23.2157 43.1152 25.8912 40.9258 29.7538 40.2777C29.8424 40.2602 29.9133 40.2252 30.0905 40.1726C29.8424 39.9099 29.6298 39.6822 29.4172 39.4545C26.1393 35.8813 24.5092 31.6951 24.5092 26.8608C24.5092 25.3545 24.4915 23.8482 24.4915 22.3243C24.5801 22.1141 24.5801 21.904 24.4915 21.6938C24.5092 21.6412 24.5269 21.5712 24.5446 21.5186C34.7858 21.5186 45.0271 21.5186 55.2683 21.5186C55.4455 21.5186 55.6226 21.5011 55.7998 21.4836C57.6425 21.5011 59.503 21.5186 61.3634 21.5361ZM45.2928 44.6566C45.4169 44.6391 45.5586 44.6391 45.6826 44.6215C51.4765 43.2553 55.3746 38.0708 55.8707 32.4308C55.8884 32.133 55.8353 32.0279 55.534 32.0454C54.9139 32.0629 54.2938 32.0629 53.6736 32.0805C53.2129 32.0629 52.6637 32.1855 52.3093 31.9929C51.8486 31.7301 52.203 31.1171 52.1144 30.6617C52.0435 30.3114 52.2384 30.2238 52.5751 30.2238C53.6382 30.2413 54.7013 30.2238 55.7644 30.2413C56.101 30.2413 56.2782 30.1538 56.4022 29.821C57.2173 27.8242 58.0501 25.8099 58.9005 23.8307C59.0954 23.3928 58.9714 23.3227 58.5462 23.3227C48.1455 23.3227 37.7271 23.3402 27.3264 23.3227C26.8126 23.3227 26.848 23.4803 27.0075 23.8307C27.8225 25.7574 28.6376 27.7016 29.4172 29.6458C29.5943 30.1012 29.8247 30.2413 30.3208 30.2413C36.2033 30.2238 42.1035 30.2238 47.986 30.2238C49.12 30.2238 49.0668 30.2238 49.1377 31.3098C49.1731 31.9403 48.9428 32.0629 48.3581 32.0629C42.4933 32.0454 36.6285 32.0629 30.7638 32.0279C30.1613 32.0279 29.9664 32.168 30.055 32.7811C30.5157 36.1966 31.8623 39.1742 34.4492 41.5213C37.4967 44.3238 41.1113 45.4973 45.2928 44.6566ZM29.9133 46.5658C29.9487 47.9845 30.4094 49.1756 31.2776 50.244C33.1912 52.5736 35.087 54.9031 36.9829 57.2502C37.231 57.5655 37.3727 57.6005 37.7094 57.3378C38.8965 56.3569 40.1013 55.3936 41.3239 54.4477C41.6606 54.2025 41.6428 54.0449 41.3948 53.7296C38.3649 50.0513 35.3528 46.3556 32.3584 42.6598C32.0749 42.292 31.9155 42.3796 31.6497 42.6423C30.498 43.7107 29.9664 45.0594 29.9133 46.5658ZM55.9416 46.6358C55.9416 45.0419 55.3569 43.7107 54.2052 42.5898C53.9394 42.327 53.7976 42.327 53.5496 42.6248C50.5375 46.3381 47.5076 50.0514 44.4601 53.7471C44.212 54.0449 44.2652 54.185 44.5487 54.3952C45.7889 55.3585 47.0115 56.3219 48.2164 57.3203C48.5176 57.5655 48.6593 57.513 48.8897 57.2327C50.8032 54.8506 52.7523 52.5035 54.6836 50.1214C55.4986 49.123 55.9593 47.9495 55.9416 46.6358ZM37.1247 45.4973C37.231 45.7075 37.2487 45.7776 37.3018 45.8476C39.0914 48.0371 40.8987 50.2265 42.6705 52.4335C42.954 52.7663 43.0603 52.6086 43.2552 52.3809C44.9739 50.2615 46.6926 48.1597 48.4113 46.0403C48.4999 45.9177 48.6948 45.8126 48.553 45.5674C46.728 46.3381 44.8499 46.7409 42.8831 46.7234C40.9341 46.7409 39.0382 46.303 37.1247 45.4973ZM69.6556 63.188C70.4706 63.2055 71.1971 62.5049 71.1971 61.6992C71.1971 60.9285 70.5238 60.2279 69.7265 60.1928C68.8937 60.1578 68.185 60.8234 68.1672 61.6466C68.1318 62.4523 68.8228 63.1705 69.6556 63.188ZM60.4598 61.6816C60.4598 60.8584 59.7687 60.1753 58.936 60.1928C58.1386 60.2103 57.4653 60.8584 57.4476 61.6641C57.4299 62.4698 58.1209 63.188 58.9537 63.188C59.7687 63.188 60.4598 62.5049 60.4598 61.6816ZM57.3413 35.2508C58.7765 32.746 59.4852 30.1362 59.5384 27.2812C58.0323 29.7509 57.5362 32.4308 57.3413 35.2508ZM26.3342 27.2287C26.405 30.0487 27.0606 32.6585 28.4958 35.1457C28.3895 32.3082 27.7694 29.6983 26.3342 27.2287Z" fill="#393185"/>
<path d="M55.7821 21.4836C55.6049 21.5011 55.4277 21.5186 55.2505 21.5186C45.0093 21.5186 34.7681 21.5186 24.5269 21.5186C24.5269 15.9487 24.5269 10.3612 24.5092 4.7913C24.5092 4.26584 24.7041 4.09068 25.1825 3.98559C30.9232 2.68944 36.6817 1.37578 42.4224 0.0621169C42.7236 -0.00794507 43.0426 -0.0254606 43.3438 0.0446014C47.4544 0.972923 51.5651 1.91876 55.6758 2.8646C55.7112 2.88211 55.7644 2.89963 55.7998 2.91714C55.7998 9.10011 55.7821 15.3006 55.7821 21.4836ZM42.9717 18.8212C43.769 18.8212 44.5663 18.7862 45.3637 18.8387C45.8952 18.8738 46.1078 18.7336 46.0724 18.1556C46.0193 17.2974 46.0901 16.4391 46.0547 15.5984C46.0193 15.0203 46.2319 14.8977 46.7634 14.9153C47.6671 14.9503 48.5707 14.9153 49.4921 14.9328C49.8819 14.9503 50.0413 14.8452 50.0413 14.4248C50.0236 12.7258 50.0236 11.0093 50.0413 9.3103C50.0413 8.92496 49.935 8.76732 49.5098 8.78483C48.5353 8.80235 47.5608 8.78483 46.5862 8.80235C46.1787 8.81986 46.0547 8.67974 46.0547 8.27688C46.0724 7.31353 46.0547 6.35018 46.0724 5.38683C46.0901 5.00149 45.9661 4.86136 45.5586 4.86136C43.8399 4.87888 42.1035 4.87888 40.3848 4.86136C39.9241 4.86136 39.8355 5.019 39.8355 5.42186C39.8533 6.36769 39.8178 7.29602 39.8533 8.24185C39.871 8.67974 39.7115 8.80235 39.2863 8.80235C38.3118 8.78483 37.3373 8.80235 36.3627 8.78483C35.9907 8.78483 35.8666 8.87241 35.8666 9.25775C35.8843 10.9918 35.8843 12.7083 35.8666 14.4423C35.8666 14.8802 36.0261 14.9503 36.4159 14.9503C37.3904 14.9328 38.3649 14.9678 39.3394 14.9328C39.7469 14.9153 39.871 15.0554 39.871 15.4582C39.8533 16.4216 39.871 17.3849 39.8533 18.3483C39.8533 18.7161 39.9596 18.8387 40.3317 18.8387C41.1999 18.8037 42.0858 18.8212 42.9717 18.8212Z" fill="#92C02C"/>
<path d="M55.782 21.4836C55.782 15.2831 55.782 9.10014 55.7998 2.89966C57.3767 3.10984 58.8828 3.61779 60.442 3.88053C61.2039 4.00313 61.3988 4.3009 61.3988 5.07158C61.3456 10.5714 61.3633 16.0538 61.3633 21.5537C59.5029 21.5186 57.6425 21.5011 55.782 21.4836Z" fill="#B9CE19"/>
<path fill-rule="evenodd" clip-rule="evenodd" d="M20.8648 55.0005C17.9697 55.04 16 57.0072 16 59.9462C16 62.8609 18.1068 64.9606 20.8651 64.9995M20.8655 55.0005C23.8583 54.9615 26 57.0926 26 60C26 62.8541 23.804 65.0385 20.8655 64.9995M20.8385 53.0007C16.8538 53.0546 14 55.9081 14 59.9462C14 63.9304 16.9615 66.9455 20.8385 66.9993C24.8769 67.0531 28 63.9842 28 60C28 55.962 24.9308 52.9469 20.8385 53.0007Z" fill="#393185"/>
<path d="M16 59.9615C16 57.0772 18.0385 55.039 20.8846 55.0005C23.8077 54.962 26 57.1157 26 60C26 62.8459 23.7692 65.038 20.8846 64.9995C18.1154 64.961 16 62.8074 16 59.9615Z" fill="white"/>
<path d="M18 59.9769C18 58.2463 19.2231 57.0234 20.9308 57.0003C22.6846 56.9772 24 58.2694 24 60C24 61.7075 22.6615 63.0228 20.9308 62.9997C19.2692 62.9766 18 61.6844 18 59.9769Z" fill="#92C02C"/>
<path d="M24.4914 21.6937C24.58 21.9039 24.58 22.1141 24.4914 22.3243C24.4206 22.1316 24.4206 21.9039 24.4914 21.6937Z" fill="#42B4DE"/>
<path d="M45.2928 44.6566C41.1113 45.4973 37.4968 44.3238 34.4138 41.5038C31.8446 39.1567 30.4803 36.1791 30.0196 32.7635C29.931 32.1505 30.1259 32.0104 30.7283 32.0104C36.5931 32.0279 42.4579 32.0104 48.3227 32.0454C48.9074 32.0454 49.1377 31.9403 49.1023 31.2922C49.0491 30.2063 49.0846 30.2063 47.9506 30.2063C42.0681 30.2063 36.1679 30.2063 30.2854 30.2238C29.7893 30.2238 29.5589 30.0837 29.3817 29.6283C28.6021 27.6841 27.7871 25.7398 26.972 23.8131C26.8303 23.4628 26.7771 23.3052 27.291 23.3052C37.6917 23.3227 48.1101 23.3227 58.5107 23.3052C58.936 23.3052 59.06 23.3752 58.8651 23.8131C58.0146 25.8099 57.1819 27.8067 56.3668 29.8034C56.2428 30.1187 56.0656 30.2238 55.729 30.2238C54.6659 30.2063 53.6027 30.2238 52.5396 30.2063C52.203 30.2063 52.0258 30.2763 52.079 30.6442C52.1676 31.0996 51.7955 31.7126 52.2739 31.9754C52.6282 32.1855 53.1775 32.0454 53.6382 32.0629C53.6736 32.8686 53.5496 33.6744 53.3724 34.445C52.2916 38.9816 49.8819 42.4847 45.4523 44.4114C45.3814 44.4639 45.3106 44.534 45.2928 44.6566Z" fill="#FDFDFD"/>
<path d="M29.9133 46.5657C29.9664 45.0769 30.498 43.7282 31.632 42.6248C31.8977 42.362 32.0395 42.292 32.3407 42.6423C35.3351 46.3556 38.3649 50.0338 41.3771 53.7121C41.6251 54.0273 41.6428 54.1675 41.3062 54.4302C40.0836 55.376 38.8788 56.3394 37.6916 57.3203C37.3727 57.583 37.231 57.548 36.9652 57.2327C35.0693 54.8856 33.1734 52.556 31.2599 50.2265C30.3917 49.1755 29.9487 47.967 29.9133 46.5657Z" fill="#FDFDFD"/>
<path d="M55.9415 46.6358C55.9415 47.967 55.4986 49.123 54.6658 50.1389C52.7345 52.5035 50.8032 54.8681 48.8719 57.2502C48.6416 57.5305 48.5175 57.583 48.1986 57.3378C46.9938 56.3394 45.7712 55.3761 44.5309 54.4127C44.2474 54.185 44.1943 54.0624 44.4423 53.7646C47.4899 50.0689 50.5197 46.3556 53.5318 42.6423C53.7799 42.3445 53.9216 42.3445 54.1874 42.6072C55.3568 43.6932 55.9415 45.0419 55.9415 46.6358Z" fill="#FDFDFD"/>
<path d="M37.1246 45.4973C39.0559 46.303 40.9341 46.7409 42.8831 46.7409C44.8498 46.7409 46.728 46.3381 48.553 45.5849C48.677 45.8301 48.4998 45.9352 48.4112 46.0578C46.6925 48.1772 44.9739 50.279 43.2552 52.3984C43.078 52.6261 42.954 52.8013 42.6705 52.451C40.8986 50.244 39.0914 48.0546 37.3018 45.8651C37.2487 45.7951 37.2309 45.7075 37.1246 45.4973Z" fill="#CDD1E2"/>
<path d="M45.2928 44.6566C45.3105 44.534 45.3814 44.4639 45.4877 44.4289C49.9173 42.5022 52.327 38.9991 53.4078 34.4625C53.6027 33.6743 53.7267 32.8861 53.6736 32.0804C54.2937 32.0629 54.9139 32.0629 55.534 32.0454C55.8352 32.0279 55.8884 32.1505 55.8706 32.4307C55.3923 38.0882 51.4942 43.2728 45.6826 44.6215C45.5586 44.639 45.4168 44.639 45.2928 44.6566Z" fill="#CDD1E2"/>
<path d="M42.9717 18.8212C42.0858 18.8212 41.1999 18.8037 40.314 18.8212C39.9242 18.8387 39.8179 18.6986 39.8356 18.3308C39.8533 17.3674 39.8179 16.4041 39.8533 15.4407C39.871 15.0379 39.7293 14.8977 39.3217 14.9153C38.3472 14.9328 37.3727 14.9153 36.3982 14.9328C36.0261 14.9328 35.8489 14.8627 35.8489 14.4248C35.8667 12.6908 35.8667 10.9743 35.8489 9.24023C35.8489 8.85489 35.9907 8.76731 36.3451 8.76731C37.3196 8.78483 38.2941 8.7498 39.2686 8.78483C39.6938 8.80234 39.8533 8.67974 39.8356 8.22433C39.8001 7.2785 39.8356 6.35017 39.8179 5.40434C39.8001 5.00148 39.9064 4.82633 40.3671 4.84384C42.0858 4.86136 43.8222 4.86136 45.5409 4.84384C45.9484 4.84384 46.0725 4.98397 46.0547 5.36931C46.037 6.33266 46.0724 7.29601 46.037 8.25936C46.0193 8.66222 46.161 8.78483 46.5686 8.78483C47.5431 8.76731 48.5176 8.80234 49.4921 8.76731C49.8996 8.7498 50.0237 8.90744 50.0237 9.29278C50.0059 10.9918 50.0059 12.7083 50.0237 14.4073C50.0237 14.8277 49.8642 14.9328 49.4744 14.9153C48.5707 14.8977 47.6494 14.9328 46.7457 14.8977C46.2142 14.8802 46.0016 15.0028 46.037 15.5808C46.0902 16.4391 46.0193 17.2974 46.0547 18.1381C46.0902 18.7161 45.8775 18.8387 45.346 18.8212C44.5664 18.8037 43.7691 18.8212 42.9717 18.8212ZM39.5344 13.1287C40.1722 13.1287 40.6683 13.1462 41.1822 13.1287C41.5365 13.1112 41.7137 13.2162 41.6783 13.6016C41.6429 14.1095 41.6429 14.6175 41.6783 15.1079C41.7314 15.7385 41.3594 16.6143 41.8555 16.9471C42.2984 17.2623 43.1312 17.0171 43.8045 17.0521C44.1589 17.0697 44.2475 16.9295 44.2475 16.5967C44.2297 15.5984 44.2475 14.5825 44.2297 13.5841C44.2297 13.2513 44.3006 13.1112 44.6727 13.1287C45.1865 13.1637 45.6826 13.1462 46.1965 13.1287C46.8521 13.0936 47.7734 13.4264 48.0923 12.9885C48.429 12.5507 48.1809 11.6924 48.2164 11.0268C48.2341 10.6765 48.0923 10.5714 47.7557 10.5889C47.2241 10.6064 46.6926 10.6064 46.161 10.5889C45.5409 10.5889 44.7259 10.7991 44.3715 10.4838C43.964 10.116 44.2829 9.29278 44.2475 8.66222C44.1943 8.01415 44.531 7.15589 44.1057 6.78806C43.6982 6.42024 42.83 6.73552 42.1744 6.68297C41.7314 6.64794 41.6606 6.84061 41.6783 7.22595C41.696 8.10172 41.6606 8.9775 41.696 9.85327C41.7314 10.4313 41.5897 10.6765 40.9518 10.624C40.1014 10.5714 39.2332 10.6415 38.3649 10.5889C37.8334 10.5539 37.6562 10.7115 37.7094 11.237C37.7625 11.85 37.5145 12.6558 37.8157 13.0061C38.17 13.3914 39.0205 13.0586 39.5344 13.1287Z" fill="#393185"/>
<path d="M39.5343 13.1287C39.0205 13.0586 38.1877 13.4089 37.8157 13.0061C37.4967 12.6558 37.7625 11.8325 37.7093 11.237C37.6562 10.7115 37.8334 10.5539 38.3649 10.5889C39.2331 10.6415 40.1013 10.5539 40.9518 10.624C41.5897 10.6765 41.7314 10.4313 41.696 9.85327C41.6428 8.9775 41.696 8.10172 41.6783 7.22595C41.6605 6.85812 41.7314 6.64794 42.1744 6.68297C42.83 6.73552 43.6804 6.42024 44.1057 6.78806C44.5132 7.1734 44.1943 8.01415 44.2474 8.66222C44.3006 9.29278 43.9639 10.116 44.3715 10.4838C44.7258 10.7991 45.5409 10.5714 46.161 10.5889C46.6926 10.5889 47.2241 10.6064 47.7557 10.5889C48.0923 10.5714 48.2341 10.6765 48.2163 11.0268C48.1809 11.6924 48.429 12.5507 48.0923 12.9885C47.7734 13.4264 46.852 13.0936 46.1964 13.1287C45.6826 13.1462 45.1865 13.1637 44.6727 13.1287C44.3183 13.1112 44.2297 13.2338 44.2297 13.5841C44.2474 14.5825 44.2297 15.5984 44.2474 16.5967C44.2474 16.9295 44.1765 17.0697 43.8045 17.0521C43.1489 17.0171 42.3161 17.2623 41.8554 16.947C41.3593 16.6143 41.7314 15.7385 41.6783 15.1079C41.6428 14.6 41.6428 14.1095 41.6783 13.6016C41.696 13.2162 41.5365 13.1112 41.1821 13.1287C40.6683 13.1462 40.1545 13.1287 39.5343 13.1287Z" fill="#FDFDFD"/>
</svg>
