<svg width="74" height="65" viewBox="0 0 74 65" fill="none" xmlns="http://www.w3.org/2000/svg">
<circle cx="28" cy="28" r="28" fill="#F4F9FB"/>
<path fill-rule="evenodd" clip-rule="evenodd" d="M36.2159 38.0968L65.1148 56.0574L64.0591 57.7561L35.1602 39.7955L36.2159 38.0968Z" fill="#392D88"/>
<path fill-rule="evenodd" clip-rule="evenodd" d="M56.8014 38.8491L26.6897 57.5823L25.6332 55.8841L55.7449 37.1509L56.8014 38.8491Z" fill="#392D88"/>
<path d="M25.3949 40.5887C22.7779 40.6045 20.1768 40.5887 17.5598 40.6045C17.113 40.6045 16.9853 40.4941 17.0013 40.0526C17.0332 38.1603 17.0173 36.2681 17.0013 34.3758C17.0013 33.9974 17.0811 33.8555 17.48 33.887C18.0705 33.9185 18.6768 33.887 19.2673 33.9028C19.5705 33.9185 19.6822 33.8239 19.746 33.5243C20.5439 29.6137 23.4162 27.2641 27.4375 27.2011C28.0758 27.1853 28.7141 27.2011 29.3524 27.2011C30.23 27.2011 30.1183 27.2957 30.1343 26.4599C30.1343 25.8134 30.1502 25.1511 30.1343 24.5046C30.1183 24.1419 30.1981 24 30.613 24C41.097 24.0158 51.597 24.0158 62.0811 24C62.4481 24 62.5598 24.1104 62.5438 24.4731C62.5119 25.1984 62.5598 25.9396 62.5279 26.6649C62.496 27.1222 62.6556 27.2326 63.1024 27.2168C65.129 27.138 66.9641 27.6583 68.5279 28.9671C69.9162 30.134 70.7939 31.5848 71.113 33.3666C71.1768 33.7451 71.2726 33.9501 71.7353 33.9028C72.3258 33.8555 72.9322 33.9185 73.5226 33.887C73.9056 33.8712 73.9853 33.9974 73.9853 34.3443C73.9694 36.2523 73.9694 38.1603 73.9853 40.0841C73.9853 40.4941 73.8736 40.6045 73.4587 40.6045C70.7619 40.5887 68.0811 40.6045 65.3843 40.5887H25.3949ZM45.5013 35.5427C42.3258 35.5427 39.1662 35.5427 35.9907 35.5427C30.4215 35.5427 24.8683 35.5427 19.2992 35.5269C18.8045 35.5269 18.629 35.6373 18.6609 36.1419C18.7087 36.8042 18.6609 37.4823 18.6768 38.1445C18.6928 39.0591 18.5651 38.9488 19.5226 38.9488C35.0013 38.9488 50.4641 38.9488 65.9428 38.9488C67.8896 38.9488 69.8524 38.933 71.7992 38.9645C72.2141 38.9645 72.3577 38.8541 72.3417 38.4442C72.3098 37.7188 72.2938 36.9777 72.3417 36.2523C72.3896 35.6373 72.1662 35.5112 71.5758 35.5112C62.879 35.5427 54.1981 35.5427 45.5013 35.5427ZM46.3311 33.887C50.9907 33.887 55.6662 33.887 60.3258 33.9028C60.7885 33.9028 60.9322 33.8081 60.9162 33.3193C60.8843 31.9947 60.8843 30.6859 60.9162 29.3614C60.9322 28.9041 60.7726 28.7937 60.3417 28.8095C59.3204 28.841 58.3151 28.8252 57.2939 28.8252C48.98 28.8252 40.6662 28.8252 32.3524 28.8095C31.8736 28.8095 31.746 28.9356 31.7619 29.3929C31.7939 30.6859 31.8098 31.9947 31.7619 33.2878C31.746 33.8081 31.9215 33.887 32.4002 33.887C37.0439 33.887 41.6875 33.887 46.3311 33.887ZM55.2832 40.6202C48.6609 40.6202 42.0385 40.6202 35.4481 40.6202H55.2832ZM46.3949 25.6399C41.847 25.6399 37.2992 25.6399 32.7673 25.6399C31.7779 25.6399 31.7939 25.6399 31.7779 26.6491C31.7619 27.0749 31.8736 27.2326 32.3364 27.2168C33.4853 27.1853 34.6502 27.2011 35.7992 27.2011C43.9694 27.2011 52.1396 27.2011 60.3258 27.2168C60.7726 27.2168 61.0119 27.1222 60.9162 26.6334C60.9002 26.523 60.9002 26.3968 60.9162 26.2865C60.996 25.7819 60.8204 25.6242 60.2779 25.6242C55.6502 25.6399 51.0226 25.6399 46.3949 25.6399ZM21.3736 33.887C24.2141 33.887 27.0385 33.887 29.863 33.887C30.1183 33.887 30.1502 33.7608 30.1502 33.5558C30.1502 32.1051 30.1502 30.6386 30.1502 29.1879C30.1502 28.9041 30.0385 28.8095 29.7673 28.8252C28.8577 28.841 27.9322 28.7937 27.0226 28.841C24.0545 29.0145 21.7566 31.0802 21.3736 33.887ZM69.5332 33.887C69.5332 33.7766 69.5332 33.6978 69.5173 33.6189C68.9109 30.5598 66.0864 28.5256 62.8949 28.8095C62.6236 28.841 62.5598 28.9198 62.5598 29.1721C62.5598 30.6229 62.5598 32.0894 62.5598 33.5401C62.5598 33.7924 62.6236 33.887 62.8949 33.887C65.097 33.887 67.2992 33.887 69.5332 33.887ZM29.8949 40.6518C29.9747 40.7464 30.0545 40.8095 30.1343 40.841L29.8949 40.6518Z" fill="#392D88"/>
<path d="M45.5018 35.5427C54.1986 35.5427 62.8795 35.5427 71.5763 35.527C72.1667 35.527 72.3901 35.6374 72.3423 36.2681C72.2784 36.9935 72.3103 37.7188 72.3423 38.46C72.3582 38.8857 72.2146 38.9961 71.7997 38.9803C69.8529 38.9646 67.8901 38.9646 65.9433 38.9646C50.4646 38.9646 35.0018 38.9646 19.5231 38.9646C18.5816 38.9646 18.6933 39.0749 18.6774 38.1604C18.6774 37.4981 18.7093 36.82 18.6614 36.1577C18.6295 35.6531 18.805 35.5427 19.2997 35.5427C24.8689 35.5585 30.422 35.5585 35.9912 35.5585C39.1667 35.5427 42.3263 35.5427 45.5018 35.5427Z" fill="#7BC100"/>
<path d="M46.3316 33.887C41.688 33.887 37.0444 33.887 32.4008 33.9028C31.922 33.9028 31.7465 33.8239 31.7625 33.3035C31.8103 32.0105 31.7944 30.7017 31.7625 29.4087C31.7465 28.9356 31.8901 28.8252 32.3529 28.8252C40.6667 28.841 48.9806 28.841 57.2944 28.841C58.3157 28.841 59.321 28.8568 60.3423 28.8252C60.7731 28.8095 60.9327 28.9198 60.9167 29.3771C60.8848 30.7017 60.8848 32.0105 60.9167 33.3351C60.9327 33.8081 60.7891 33.9185 60.3263 33.9185C55.6667 33.887 51.0071 33.887 46.3316 33.887Z" fill="white"/>
<path d="M46.3955 25.64C51.0231 25.64 55.6508 25.6557 60.2625 25.6242C60.805 25.6242 60.9806 25.7819 60.9008 26.2865C60.8848 26.3969 60.8848 26.523 60.9008 26.6334C60.9806 27.1222 60.7572 27.2168 60.3103 27.2168C52.1401 27.2011 43.9699 27.2011 35.7838 27.2011C34.6348 27.2011 33.4699 27.1853 32.321 27.2168C31.8582 27.2326 31.7465 27.0749 31.7625 26.6492C31.7944 25.64 31.7625 25.64 32.7519 25.64C37.3157 25.64 41.8636 25.64 46.3955 25.64Z" fill="white"/>
<path d="M21.3741 33.887C21.7571 31.0644 24.055 29.0145 27.0071 28.841C27.9167 28.7937 28.8422 28.841 29.7518 28.8252C30.0231 28.8252 30.1348 28.9041 30.1348 29.1879C30.1188 30.6386 30.1348 32.1051 30.1348 33.5558C30.1348 33.7608 30.1029 33.887 29.8475 33.887C27.039 33.887 24.2146 33.887 21.3741 33.887Z" fill="white"/>
<path d="M69.5337 33.887C67.2997 33.887 65.0976 33.887 62.8795 33.887C62.6082 33.887 62.5444 33.7924 62.5444 33.5401C62.5444 32.0893 62.5444 30.6229 62.5444 29.1721C62.5444 28.9356 62.6242 28.841 62.8795 28.8095C66.0869 28.5256 68.8954 30.5598 69.5018 33.6189C69.5337 33.6978 69.5337 33.7766 69.5337 33.887Z" fill="white"/>
<path d="M18 57.9462C18 53.9081 20.8538 51.0546 24.8385 51.0007C28.9308 50.9469 32 53.962 32 58C32 61.9842 28.8769 65.0531 24.8385 64.9993C20.9615 64.9455 18 61.9304 18 57.9462Z" fill="white"/>
<path fill-rule="evenodd" clip-rule="evenodd" d="M24.8648 53.0005C21.9697 53.04 20 55.0072 20 57.9462C20 60.8609 22.1068 62.9606 24.8651 62.9995M24.8655 53.0005C27.8583 52.9615 30 55.0926 30 58C30 60.8541 27.804 63.0385 24.8655 62.9995M24.8385 51.0007C20.8538 51.0546 18 53.9081 18 57.9462C18 61.9304 20.9615 64.9455 24.8385 64.9993C28.8769 65.0531 32 61.9842 32 58C32 53.962 28.9308 50.9469 24.8385 51.0007Z" fill="#393185"/>
<path d="M22 57.9769C22 56.2463 23.2231 55.0234 24.9308 55.0003C26.6846 54.9772 28 56.2694 28 58C28 59.7075 26.6615 61.0228 24.9308 60.9997C23.2692 60.9766 22 59.6844 22 57.9769Z" fill="#92C02C"/>
<path d="M66.1091 51.0007C70.0391 51.0548 73 54.0274 73 57.973C73 62.0807 69.9852 65.0533 65.8937 64.9993C61.8561 64.9452 58.8952 61.8645 59.0028 57.7568C59.1105 53.8653 62.1253 50.9467 66.1091 51.0007Z" fill="white"/>
<path fill-rule="evenodd" clip-rule="evenodd" d="M65.8648 53.0005C62.9697 53.04 61 55.0072 61 57.9462C61 60.8609 63.1068 62.9606 65.8651 62.9995M65.8655 53.0005C68.8583 52.9615 71 55.0926 71 58C71 60.8541 68.804 63.0385 65.8655 62.9995M65.8385 51.0007C61.8538 51.0546 59 53.9081 59 57.9462C59 61.9304 61.9615 64.9455 65.8385 64.9993C69.8769 65.0531 73 61.9842 73 58C73 53.962 69.9308 50.9469 65.8385 51.0007Z" fill="#393185"/>
<path d="M63 57.9769C63 56.2463 64.2231 55.0234 65.9308 55.0003C67.6846 54.9772 69 56.2694 69 58C69 59.7075 67.6615 61.0228 65.9308 60.9997C64.2692 60.9766 63 59.6844 63 57.9769Z" fill="#92C02C"/>
</svg>
