<svg width="160" height="160" viewBox="0 0 160 160" fill="none" xmlns="http://www.w3.org/2000/svg">
<path d="M159.989 24.3675C159.805 29.4916 160.448 35.5306 159.069 41.4324C155.024 58.4515 144.819 70.0264 128.362 76.1111C126.937 76.6601 126.156 77.0262 126.431 78.9019C126.983 82.7449 125.65 86.1305 122.57 88.6467C121.605 89.4245 121.329 90.2937 121.329 91.4375C121.375 96.7903 121.283 102.189 121.375 107.542C121.559 120.352 116.916 131.469 108.917 141.26C101.562 150.272 92.3227 156.403 80.7386 158.873C52.6977 164.913 24.6569 146.018 19.7842 117.835C18.9568 113.123 19.1406 108.365 19.0947 103.653C19.0487 99.9928 19.0487 96.3328 19.0947 92.6728C19.1406 91.3918 18.6809 90.8885 17.4858 90.5225C7.92428 87.869 2.13224 81.6927 0.339458 71.9936C-2.00494 59.3665 8.10816 46.9224 20.9794 45.9617C32.9772 45.0924 43.5959 53.602 45.3887 65.4056C46.9976 75.9281 40.2862 86.771 29.7134 90.065C28.0126 90.614 27.5069 91.3003 27.5529 93.0388C27.7827 99.3066 27.369 105.62 27.8287 111.888C29.0239 129.182 40.3781 143.776 56.9728 149.266C76.0958 155.579 96.1841 147.665 106.573 129.731C110.802 122.456 112.963 114.724 112.825 106.352C112.779 101.823 112.779 97.3393 112.825 92.81C112.825 91.6663 112.503 91.0715 111.4 90.614C106.481 88.601 104.137 85.0325 104.229 79.6797C104.275 78.3072 103.723 77.8497 102.482 77.5294C82.4854 72.2224 70.4876 59.4123 66.4423 39.2364C66.0286 37.2234 65.9367 35.1646 65.9367 33.1058C65.9827 26.5178 66.1665 19.9297 65.8907 13.3874C65.5689 5.79288 71.6828 -0.474915 79.4055 0.0283389C82.3015 0.21134 85.1516 0.11984 87.7258 1.7211C91.5872 4.14587 93.7477 7.57714 93.7937 12.1979C93.8397 15.1717 93.8397 18.1455 93.7937 21.1192C93.7477 27.8445 88.3694 33.1516 81.612 33.2431C79.7732 33.2431 77.9345 33.3346 76.0958 33.0601C74.8086 32.8771 74.6707 33.2431 74.7167 34.3411C74.9925 40.1056 76.5555 45.5042 79.4515 50.491C86.2089 62.0658 96.4139 68.5166 109.745 70.0264C114.296 68.1963 119.168 70.2094 123.765 68.6538C128.27 67.1441 132.545 65.2226 136.269 62.2945C145.37 55.1575 150.473 45.8702 151.254 34.2953C151.346 33.2431 151.209 32.8771 149.967 33.0601C147.577 33.4718 145.141 33.4261 142.75 33.1516C136.912 32.5111 132.223 27.2498 132.132 21.4395C132.086 18.237 132.086 15.0344 132.132 11.8319C132.223 5.51838 137.602 0.16559 143.945 0.0740892C147.393 0.0283389 150.841 -0.246163 153.967 1.76685C157.736 4.23737 159.897 7.62289 159.943 12.1522C160.034 15.9495 159.989 19.701 159.989 24.3675ZM22.8181 82.5162C30.6788 82.5162 36.9305 76.3399 37.0224 68.5166C37.0684 60.8763 30.5868 54.4712 22.8181 54.4712C15.1414 54.4712 8.75172 60.8305 8.70575 68.4251C8.61381 76.2027 15.0035 82.5162 22.8181 82.5162ZM85.2895 16.7272C85.2895 15.3547 85.3355 13.9822 85.2895 12.6097C85.1516 10.1849 83.6806 8.7209 81.2442 8.5379C80.3708 8.49215 79.5434 8.49215 78.67 8.5379C76.1417 8.67515 74.6248 10.1849 74.5788 12.7012C74.4869 15.309 74.4869 17.9625 74.5788 20.5702C74.6707 23.0865 76.1877 24.5505 78.716 24.7335C79.5894 24.7793 80.4168 24.7793 81.2902 24.7335C83.6806 24.5505 85.1976 23.0865 85.3355 20.6617C85.3355 19.335 85.2895 18.054 85.2895 16.7272ZM151.438 16.773C151.484 16.773 151.484 16.773 151.438 16.773C151.438 15.5835 151.484 14.3939 151.438 13.1587C151.392 10.0934 149.829 8.58365 146.704 8.5379C146.014 8.5379 145.325 8.49215 144.635 8.5379C142.291 8.7209 140.774 10.1392 140.682 12.4724C140.59 15.2175 140.59 17.9625 140.682 20.7075C140.774 23.1323 142.337 24.5505 144.773 24.7335C145.646 24.7793 146.474 24.7793 147.347 24.7335C149.783 24.5505 151.254 23.0865 151.392 20.7075C151.53 19.3807 151.438 18.054 151.438 16.773Z" fill="white" fill-opacity="0.2"/>
<path d="M23.002 62.5233C26.3577 62.5233 29.1158 65.3141 29.0699 68.6538C29.0239 71.9479 26.3577 74.6471 23.048 74.6929C19.7382 74.7386 16.8422 71.9021 16.8422 68.6081C16.8422 65.3141 19.6463 62.5233 23.002 62.5233Z" fill="white" fill-opacity="0.2"/>
</svg>
