<svg width="35" height="35" viewBox="0 0 35 35" fill="none" xmlns="http://www.w3.org/2000/svg">
<circle cx="17.5" cy="17.5" r="17.5" fill="#E7F5FB"/>
<path fill-rule="evenodd" clip-rule="evenodd" d="M26.7603 9.23966C27.0048 9.48416 27.0692 9.85597 26.9212 10.1685L19.17 26.5321C19.0221 26.8444 18.6939 27.0301 18.35 26.996C18.0061 26.9619 17.7207 26.7155 17.6369 26.3802L16.0334 19.9666L9.61976 18.3631C9.2845 18.2793 9.03805 17.9939 9.004 17.65C8.96995 17.3061 9.15564 16.9779 9.46795 16.83L25.8315 9.07878C26.144 8.93076 26.5158 8.99516 26.7603 9.23966ZM12.2346 17.3301L16.9066 18.4981C17.1997 18.5714 17.4286 18.8003 17.5019 19.0934L18.6699 23.7654L24.4617 11.5383L12.2346 17.3301Z" fill="#92C02C"/>
</svg>
