<svg width="35" height="35" viewBox="0 0 35 35" fill="none" xmlns="http://www.w3.org/2000/svg">
<circle cx="17.5" cy="17.5" r="17.5" fill="#E7F5FB"/>
<path fill-rule="evenodd" clip-rule="evenodd" d="M17.5003 15.125C16.1886 15.125 15.1253 16.1883 15.1253 17.5C15.1253 18.8117 16.1886 19.875 17.5003 19.875C18.812 19.875 19.8753 18.8117 19.8753 17.5C19.8753 16.1883 18.812 15.125 17.5003 15.125ZM19.8753 14.333C19.2138 13.8361 18.3914 13.5417 17.5003 13.5417C15.3142 13.5417 13.542 15.3139 13.542 17.5C13.542 19.6861 15.3142 21.4583 17.5003 21.4583C18.8652 21.4583 20.0687 20.7675 20.7804 19.7165C21.3551 20.3028 22.1561 20.6667 23.042 20.6667C24.7909 20.6667 26.2087 19.2489 26.2087 17.5C26.2087 17.0628 25.8542 16.7083 25.417 16.7083C24.9798 16.7083 24.6253 17.0628 24.6253 17.5C24.6253 18.3744 23.9164 19.0833 23.042 19.0833C22.1675 19.0833 21.4587 18.3744 21.4587 17.5V14.3333C21.4587 13.8961 21.1042 13.5417 20.667 13.5417C20.2299 13.5417 19.8755 13.8959 19.8753 14.333Z" fill="#92C02C"/>
<path d="M10.3753 17.5C10.3753 13.565 13.5653 10.375 17.5003 10.375C21.4354 10.375 24.6253 13.565 24.6253 17.5C24.6253 17.7648 24.8257 17.9925 25.0902 18.0063L25.6271 18.0345C25.9394 18.0508 26.2087 17.8127 26.2087 17.5C26.2087 12.6905 22.3098 8.79166 17.5003 8.79166C12.6908 8.79166 8.79199 12.6905 8.79199 17.5C8.79199 22.3095 12.6908 26.2083 17.5003 26.2083C19.2802 26.2083 20.9354 25.6743 22.3144 24.7578C22.9618 24.3275 22.6265 23.4265 21.8502 23.3858C21.6494 23.3753 21.4518 23.4332 21.2815 23.54C20.1857 24.2275 18.8894 24.625 17.5003 24.625C13.5653 24.625 10.3753 21.435 10.3753 17.5Z" fill="#92C02C"/>
</svg>
