<svg width="60" height="61" viewBox="0 0 60 61" fill="none" xmlns="http://www.w3.org/2000/svg">
<circle cx="30" cy="30.4136" r="30" fill="#559965"/>
<path d="M18.0089 44.4792C18.0553 43.4365 17.8931 42.1853 18.1479 40.9341C18.6577 38.3621 20.0711 36.3463 21.9711 34.6084C23.5236 33.1719 25.3077 32.0597 27.1845 31.1097C29.6638 29.8584 32.1431 28.5377 34.3211 26.7767C37.1248 24.506 38.8394 21.4938 39.3723 17.9023C39.604 16.3267 39.465 14.7511 39.4882 13.1755C39.4882 12.9438 39.4882 12.6889 39.4882 12.4572C39.5114 11.878 39.9516 11.4377 40.5077 11.4145C41.087 11.3914 41.6662 11.7853 41.6662 12.3645C41.6894 15.5621 41.9675 18.7828 40.6236 21.8414C39.2565 24.9694 37.3101 27.5877 34.4138 29.4877C32.1894 30.9938 29.826 32.2682 27.4626 33.5194C25.3077 34.6548 23.3614 36.0682 21.8784 38.0377C20.7662 39.4975 20.2101 41.1426 20.2333 42.9963C20.2565 44.4792 20.2333 45.9853 20.2333 47.4682C20.2333 48.2328 19.8162 48.7194 19.1443 48.7194C18.4723 48.7194 18.0321 48.256 18.0321 47.4914C18.0089 46.5414 18.0089 45.6145 18.0089 44.4792Z" fill="white"/>
<path d="M18.7273 14.9365C18.7273 14.1719 18.7273 13.3841 18.7273 12.6195C18.7273 11.878 19.1907 11.4146 19.8394 11.4146C20.4882 11.4146 20.9285 11.878 20.9285 12.6195C20.9516 14.1024 20.8821 15.6085 20.9748 17.0914C21.1602 19.8719 22.226 22.3048 23.8712 24.5292C24.4041 25.2475 24.9833 25.8963 25.6553 26.4755C25.9333 26.7073 26.1419 26.9621 26.1882 27.3329C26.2577 27.7731 26.026 28.2365 25.6321 28.4682C25.2151 28.6999 24.7053 28.6536 24.3114 28.306C22.5273 26.7073 21.1833 24.8073 20.1638 22.6524C19.0285 20.2195 18.5419 17.6243 18.7273 14.9365Z" fill="white"/>
<path d="M41.6894 44.9658C41.6894 46.1938 41.6894 47.1902 41.6894 48.2097C41.6894 48.9511 41.2491 49.4146 40.6004 49.4146C39.9284 49.4146 39.4882 48.9511 39.4882 48.1865C39.4882 46.6572 39.4418 45.1511 39.4882 43.6219C39.5808 40.9804 38.5382 38.8024 36.8699 36.8792C36.4528 36.4158 35.9894 35.9987 35.5491 35.5353C35.1089 35.0719 35.0625 34.4231 35.4796 33.9597C35.8967 33.4963 36.5455 33.4499 37.0552 33.8902C39.2796 35.8597 40.9479 38.1999 41.5735 41.1658C41.8284 42.5097 41.643 43.8536 41.6894 44.9658Z" fill="white"/>
<path d="M30.1735 16.4889C28.6906 16.4889 27.1845 16.4889 25.7016 16.4889C24.937 16.4889 24.4504 16.0719 24.4504 15.3999C24.4504 14.728 24.9138 14.2877 25.6784 14.2877C28.6906 14.2877 31.7028 14.2877 34.715 14.2877C35.4796 14.2877 35.9662 14.7048 35.9662 15.3767C35.9662 16.0487 35.5028 16.4889 34.7382 16.4889C33.2089 16.4889 31.7028 16.4889 30.1735 16.4889Z" fill="white"/>
<path d="M30.1736 47.2596C28.6906 47.2596 27.1845 47.2596 25.7016 47.2596C24.937 47.2596 24.4736 46.8194 24.4736 46.1474C24.4736 45.4755 24.9601 45.0352 25.7248 45.0352C28.737 45.0352 31.7492 45.0352 34.7614 45.0352C35.526 45.0352 35.9894 45.4755 35.9894 46.1474C35.9894 46.8194 35.5028 47.2364 34.7382 47.2596C33.2089 47.2596 31.6797 47.2596 30.1736 47.2596Z" fill="white"/>
<path d="M30.5674 21.4938C29.6406 21.4938 28.7137 21.4938 27.7869 21.4938C27.0686 21.4938 26.6052 21.0536 26.6052 20.3816C26.6052 19.7329 27.0686 19.2926 27.8101 19.2926C29.6637 19.2926 31.4942 19.2926 33.3479 19.2926C34.0662 19.2926 34.5528 19.7329 34.5296 20.4048C34.5296 21.0536 34.0662 21.4938 33.3247 21.517C32.4211 21.4938 31.4942 21.4938 30.5674 21.4938Z" fill="white"/>
<path d="M30.5674 38.617C31.4942 38.617 32.4211 38.617 33.3479 38.617C34.0662 38.617 34.5528 39.0572 34.5528 39.7292C34.5528 40.378 34.0894 40.8414 33.3479 40.8414C31.4942 40.8414 29.6637 40.8414 27.8101 40.8414C27.0918 40.8414 26.6052 40.4011 26.6052 39.7292C26.6052 39.0804 27.0686 38.6402 27.8101 38.617C28.7137 38.617 29.6406 38.617 30.5674 38.617Z" fill="white"/>
</svg>
