<svg width="135" height="160" viewBox="0 0 135 160" fill="none" xmlns="http://www.w3.org/2000/svg">
<path d="M0 59.0914C0.269209 53.6624 0.628155 48.5923 2.9613 43.8811C5.15984 39.3943 8.61469 36.2984 13.1912 34.4139C20.415 31.4078 27.6388 28.4913 34.8626 25.4852C43.8362 21.7162 48.5474 14.313 48.323 4.66632C48.2333 1.43581 50.2075 -0.448659 53.0342 0.134628C55.0084 0.538442 55.9955 2.06396 56.0404 4.39711C56.2647 20.9535 46.3937 29.7028 35.2215 33.8755C28.9849 36.2087 22.8828 38.7662 16.7358 41.2788C10.8132 43.7017 8.61469 48.5923 8.07628 54.5598C7.13404 64.8346 8.65956 74.7953 11.7555 84.5317C14.0886 91.8452 19.3831 96.4667 26.2928 99.3831C27.0107 99.6972 27.7285 99.5626 28.4464 99.5626C30.6898 99.5177 32.4397 100.639 32.8884 102.389C33.5165 104.722 32.0359 106.741 29.4335 107.19C26.6966 107.639 24.0942 107.1 21.6265 105.844C10.6338 100.37 4.39708 91.4414 2.33315 79.4167C1.25631 73.2249 0 67.078 0 60.7516C0 60.0785 0 59.4055 0 59.0914Z" fill="#FCFDFA" fill-opacity="0.2"/>
<path d="M127.156 60.5721C127.112 57.0724 126.708 53.6175 126.08 50.2075C125.227 45.9899 122.67 43.1184 118.721 41.5031C111.273 38.4521 103.825 35.4459 96.4217 32.35C83.7689 27.0555 78.6988 15.8834 79.1026 4.08302C79.1924 1.52554 80.7627 1.88909e-05 83.0959 0.0897553C85.3842 0.134623 86.9097 1.83961 86.7302 4.3971C86.1021 13.64 91.3516 22.5239 101.178 26.0684C107.998 28.5362 114.638 31.4975 121.368 34.2345C129.4 37.5098 133.214 43.8811 134.246 52.1817C135.771 64.5205 133.393 76.1862 128.323 87.4481C125.631 93.4156 123.477 99.5626 121.01 105.665C120.785 106.248 120.785 106.876 120.74 107.459C120.606 110.017 119.035 111.542 116.747 111.497C114.549 111.453 113.113 109.793 113.023 107.37C112.978 105.754 113.337 104.274 113.92 102.793C117.42 93.954 120.965 85.1599 124.419 76.276C126.304 71.2956 127.112 66.0011 127.156 60.5721Z" fill="#FCFDFA" fill-opacity="0.2"/>
<path d="M109.972 66.9434C110.062 71.0264 108.716 74.885 108.132 78.8335C106.383 90.5889 105.261 102.389 105.979 114.324C106.472 122.221 108.536 129.893 110.107 137.611C111.363 143.668 113.113 149.68 112.978 155.962C112.933 158.699 111.049 160.269 108.491 159.955C106.786 159.731 105.306 158.43 105.306 156.77C105.306 149.232 103.107 142.053 101.582 134.829C99.6074 125.676 97.9473 116.478 97.9922 107.1C98.0819 96.1526 99.069 85.2945 101.043 74.5261C101.671 71.2507 102.479 67.9753 102.479 64.5654C102.479 62.636 104.184 61.1554 106.113 61.1105C107.953 61.0656 109.703 62.4117 109.927 64.2513C110.062 65.1486 109.972 66.046 109.972 66.9434Z" fill="#FCFDFA" fill-opacity="0.2"/>
<path d="M41.7722 105.081C42.1761 114.638 40.157 122.356 37.1508 129.849C34.3241 136.938 31.0039 143.892 28.4015 151.071C27.8631 152.507 27.5042 153.898 27.5042 155.468C27.5042 157.891 25.8889 159.551 23.7801 159.641C21.6713 159.686 20.1906 158.25 19.8317 155.872C19.5176 153.718 20.056 151.655 20.7739 149.635C23.5558 141.828 27.0555 134.335 30.1962 126.708C34.0998 117.241 34.9523 107.414 33.5614 97.364C32.4397 89.2429 30.6001 81.3012 27.5042 73.7185C27.1452 72.8211 26.8311 71.9686 26.2478 71.161C24.6326 68.8278 24.9915 66.6293 27.1003 65.373C29.2091 64.0718 31.8564 64.8346 33.0678 67.2126C35.3112 71.7891 36.9713 76.59 38.3174 81.5255C40.5159 89.6467 41.8171 97.9922 41.7722 105.081Z" fill="#FCFDFA" fill-opacity="0.2"/>
<path d="M58.1939 62.8155C58.1491 57.1173 58.9567 50.0281 59.8989 42.9838C60.213 40.3814 61.9629 38.9008 64.296 39.17C66.4945 39.4392 67.8406 41.2339 67.5265 43.8363C66.8535 49.714 66.1805 55.6366 66.0907 61.5592C65.9561 70.5328 66.674 79.4167 68.4239 88.2558C69.8597 95.4347 71.2954 102.614 71.8339 109.927C72.0133 112.305 70.757 114.19 68.6482 114.504C66.2702 114.863 64.4306 113.606 64.2511 111.049C63.4884 100.819 60.5719 90.903 59.3156 80.7628C58.5977 75.2889 58.1491 69.7701 58.1939 62.8155Z" fill="#FCFDFA" fill-opacity="0.2"/>
<path d="M71.879 130.342C71.7892 135.412 71.2059 140.393 69.9496 145.283C69.2766 147.93 67.5267 149.097 65.1936 148.559C62.9951 148.065 61.8734 146.181 62.4566 143.623C63.6232 138.418 64.2065 133.169 64.1616 127.785C64.1168 125.317 65.6423 123.702 67.8408 123.612C70.1291 123.522 71.6995 125.048 71.879 127.605C71.9687 128.547 71.879 129.445 71.879 130.342Z" fill="#FCFDFA" fill-opacity="0.2"/>
</svg>
