<svg width="35" height="35" viewBox="0 0 35 35" fill="none" xmlns="http://www.w3.org/2000/svg">
<circle cx="17.5" cy="17.5" r="17.5" fill="#E7F5FB"/>
<path d="M15.4372 24.1212C14.4165 24.1212 13.4005 24.1212 12.3798 24.1212C11.8252 24.1212 11.3078 23.9836 10.8651 23.6232C9.97488 22.8928 9.74184 21.6738 10.3058 20.6588C10.6833 19.9759 11.0701 19.3024 11.4477 18.6194C12.5802 16.6037 13.7128 14.5832 14.8453 12.5674C14.8966 12.4726 14.9059 12.3777 14.9059 12.2781C14.9059 11.0734 14.9059 9.87345 14.9059 8.66875C14.9059 8.18497 15.0877 8 15.5584 8C16.6956 8 17.8282 8 18.9654 8C19.4128 8 19.6039 8.19446 19.6039 8.64978C19.6039 9.845 19.6039 11.045 19.6039 12.2402C19.6039 12.3919 19.6365 12.5247 19.7157 12.6575C20.6852 14.3792 21.6546 16.1056 22.6147 17.8321C22.7126 18.0028 22.8198 18.0977 23.0155 18.1451C24.6234 18.5388 25.7886 19.9 25.975 21.579C26.2127 23.7228 24.726 25.6958 22.6287 25.9614C21.058 26.1606 19.7856 25.5867 18.8535 24.273C18.7696 24.1591 18.6857 24.1117 18.5506 24.1117C17.5112 24.1259 16.4765 24.1212 15.4372 24.1212ZM17.2689 16.9831C16.0944 16.9831 14.9152 16.9878 13.7407 16.9783C13.5916 16.9783 13.503 17.021 13.4424 17.1586C13.3725 17.3151 13.2793 17.4574 13.1954 17.6092C13.1069 17.7799 13.1069 17.7799 13.2933 17.7846C13.806 17.7846 14.3186 17.7799 14.8313 17.7894C15.1855 17.7941 15.4186 18.0502 15.3813 18.3775C15.3487 18.6526 15.1296 18.8328 14.8034 18.8328C14.0996 18.8376 13.3958 18.8376 12.6874 18.8328C12.5616 18.8328 12.4823 18.8708 12.4217 18.9846C12.2726 19.2597 12.1188 19.5348 11.9603 19.8004C11.8858 19.9237 11.9184 19.9616 12.0535 19.9569C12.445 19.9522 12.8319 19.9474 13.2234 19.9569C13.6475 19.9664 13.8899 20.3648 13.7034 20.7253C13.5962 20.9292 13.4098 21.0051 13.1908 21.0051C12.6082 21.0051 12.0256 21.0051 11.443 21.0051C11.3451 21.0051 11.2612 21.0146 11.21 21.1189C10.9723 21.5979 11.0049 22.077 11.2426 22.537C11.457 22.9449 11.8485 23.0825 12.2726 23.0825C14.2161 23.0872 16.1643 23.0825 18.1078 23.0872C18.2476 23.0872 18.2709 23.0493 18.243 22.9117C17.9493 21.4557 18.3035 20.1846 19.3429 19.1364C19.9068 18.5672 20.5966 18.2162 21.3796 18.0787C21.5287 18.0502 21.5381 18.0028 21.4682 17.8842C21.3377 17.6613 21.2025 17.4384 21.0906 17.2013C21.0114 17.0353 20.9042 16.9783 20.7224 16.9831C19.5759 16.9878 18.4201 16.9831 17.2689 16.9831ZM17.2735 15.9349C18.2476 15.9349 19.217 15.9349 20.1911 15.9349C20.4009 15.9349 20.4009 15.9349 20.2983 15.7499C19.7717 14.8156 19.2403 13.8812 18.709 12.9469C18.6158 12.7809 18.5739 12.6149 18.5739 12.4251C18.5785 11.377 18.5739 10.3288 18.5785 9.27585C18.5785 9.09087 18.5226 9.04344 18.3502 9.04818C17.6231 9.05767 16.896 9.05293 16.1643 9.05293C15.9312 9.05293 15.9312 9.05293 15.9312 9.28533C15.9312 10.3477 15.9312 11.4054 15.9312 12.4678C15.9312 12.6243 15.8986 12.7666 15.8194 12.9089C15.2927 13.8528 14.7661 14.7966 14.2394 15.7357C14.1322 15.9254 14.1415 15.9349 14.3559 15.9349C15.33 15.9349 16.2994 15.9349 17.2735 15.9349ZM24.973 22.0343C24.9777 20.4075 23.6773 19.0984 22.074 19.0795C20.6152 19.0605 19.1565 20.251 19.1611 22.0343C19.1658 23.7987 20.5966 24.9749 22.0368 24.9749C23.6587 24.9654 24.973 23.6611 24.973 22.0343Z" fill="#92C02C"/>
<path d="M21.5755 23.4574C21.4264 23.4621 21.3052 23.3957 21.2026 23.2914C20.9277 23.0163 20.6573 22.7412 20.387 22.4614C20.1773 22.2385 20.1726 21.9539 20.373 21.7452C20.5734 21.5318 20.8671 21.527 21.0908 21.7357C21.2213 21.8543 21.3471 21.9823 21.459 22.1151C21.5429 22.21 21.5941 22.2005 21.6827 22.1151C22.1255 21.6598 22.5682 21.2092 23.0157 20.7539C23.1648 20.6021 23.3419 20.55 23.5423 20.6164C23.7381 20.678 23.8453 20.8298 23.8825 21.029C23.9152 21.1998 23.8499 21.3468 23.7381 21.4654C23.1368 22.0819 22.5309 22.6985 21.9204 23.3151C21.8272 23.41 21.7107 23.4621 21.5755 23.4574Z" fill="#92C02C"/>
</svg>
