<svg width="16" height="16" viewBox="0 0 16 16" fill="none" xmlns="http://www.w3.org/2000/svg">
<path fill-rule="evenodd" clip-rule="evenodd" d="M8.00012 1.45455C4.38517 1.45455 1.45467 4.38505 1.45467 8C1.45467 11.615 4.38517 14.5455 8.00012 14.5455C11.6151 14.5455 14.5456 11.615 14.5456 8C14.5456 4.38505 11.6151 1.45455 8.00012 1.45455ZM0.00012207 8C0.00012207 3.58172 3.58184 0 8.00012 0C12.4184 0 16.0001 3.58172 16.0001 8C16.0001 12.4183 12.4184 16 8.00012 16C3.58184 16 0.00012207 12.4183 0.00012207 8ZM8.00012 2.90909C8.40178 2.90909 8.7274 3.2347 8.7274 3.63636V7.55052L11.2345 8.80405C11.5937 8.98368 11.7393 9.42053 11.5597 9.77979C11.3801 10.139 10.9432 10.2847 10.584 10.105L7.67488 8.65049C7.42849 8.5273 7.27285 8.27547 7.27285 8V3.63636C7.27285 3.2347 7.59846 2.90909 8.00012 2.90909Z" fill="#92C02C"/>
</svg>
