<svg width="40" height="40" viewBox="0 0 40 40" fill="none" xmlns="http://www.w3.org/2000/svg">
<circle cx="20" cy="20" r="20" fill="#3B5998"/>
<path d="M17.9038 24.8436C17.9038 23.714 17.8838 22.5845 17.9118 21.4569C17.9258 20.8981 17.7878 20.6409 17.1619 20.6529C16.004 20.675 16.002 20.6409 16 19.4349C16 19.26 16 19.0832 16 18.9083C16.002 17.63 16.002 17.6059 17.2359 17.5797C17.7738 17.5677 17.9198 17.3426 17.9118 16.8461C17.9018 16.1467 17.8658 15.4472 18.0258 14.7498C18.3558 13.2946 19.2297 12.4202 20.6836 12.1529C21.7715 11.9539 22.8714 12.0062 23.9693 12.0062C24.4553 12.0062 24.6272 12.2434 24.6112 12.7097C24.5913 13.2865 24.5833 13.8654 24.6132 14.4402C24.6392 14.9548 24.4333 15.1819 23.9253 15.1738C23.5013 15.1678 23.0774 15.1839 22.6534 15.2C22.1415 15.2181 21.8735 15.4834 21.8755 16.006C21.8755 16.0803 21.8715 16.1567 21.8675 16.2311C21.8255 17.5697 21.8255 17.5697 23.1314 17.5697C24.7072 17.5697 24.7072 17.5697 24.4833 19.1535C24.2713 20.6549 24.2713 20.6871 22.7594 20.6509C22.0795 20.6348 21.8395 20.8378 21.8495 21.5393C21.8855 23.7965 21.8435 26.0556 21.8735 28.3128C21.8815 28.9982 21.6475 29.2655 20.9616 29.2273C20.1656 29.1851 19.3637 29.2092 18.5658 29.2152C18.0938 29.2192 17.8958 29.0082 17.9018 28.5278C17.9178 27.2998 17.9078 26.0697 17.9078 24.8396C17.9058 24.8436 17.9038 24.8436 17.9038 24.8436Z" fill="white"/>
</svg>
