<svg width="16" height="18" viewBox="0 0 16 18" fill="none" xmlns="http://www.w3.org/2000/svg">
<path d="M11.1667 1.35C11.1667 1.1567 11.3234 1 11.5167 1H11.5944C11.7877 1 11.9444 1.1567 11.9444 1.35C11.9444 2.09558 12.5489 2.7 13.2944 2.7H15C15.2761 2.7 15.5 2.92386 15.5 3.2V16.5C15.5 16.7761 15.2761 17 15 17H1C0.723857 17 0.5 16.7761 0.5 16.5V3.2C0.5 2.92386 0.723858 2.7 1 2.7H2.70556C3.45114 2.7 4.05556 2.09558 4.05556 1.35C4.05556 1.1567 4.21226 1 4.40556 1H4.48333C4.67663 1 4.83333 1.1567 4.83333 1.35C4.83333 2.09558 5.43775 2.7 6.18333 2.7H9.81667C10.5622 2.7 11.1667 2.09559 11.1667 1.35ZM5.33333 3.4H2.62778C1.88219 3.4 1.27778 4.00442 1.27778 4.75C1.27778 5.49558 1.88219 6.1 2.62778 6.1H13.3722C14.1178 6.1 14.7222 5.49558 14.7222 4.75C14.7222 4.00442 14.1178 3.4 13.3722 3.4H5.33333ZM2.77778 6.8C1.94935 6.8 1.27778 7.47157 1.27778 8.3V14.8C1.27778 15.6284 1.94935 16.3 2.77778 16.3H13.2222C14.0507 16.3 14.7222 15.6284 14.7222 14.8V8.3C14.7222 7.47157 14.0506 6.8 13.2222 6.8H2.77778ZM4.05556 9.85C4.05556 9.6567 4.21226 9.5 4.40556 9.5H4.48333C4.67663 9.5 4.83333 9.6567 4.83333 9.85C4.83333 10.0433 4.67663 10.2 4.48333 10.2H4.40556C4.21226 10.2 4.05556 10.0433 4.05556 9.85ZM8.03889 9.5C8.23219 9.5 8.38889 9.6567 8.38889 9.85C8.38889 10.0433 8.23219 10.2 8.03889 10.2H7.96111C7.76781 10.2 7.61111 10.0433 7.61111 9.85C7.61111 9.6567 7.76781 9.5 7.96111 9.5H8.03889ZM11.1667 9.85C11.1667 9.6567 11.3234 9.5 11.5167 9.5H11.5944C11.7877 9.5 11.9444 9.6567 11.9444 9.85C11.9444 10.0433 11.7877 10.2 11.5944 10.2H11.5167C11.3234 10.2 11.1667 10.0433 11.1667 9.85ZM4.48333 12.9C4.67663 12.9 4.83333 13.0567 4.83333 13.25C4.83333 13.4433 4.67663 13.6 4.48333 13.6H4.40556C4.21226 13.6 4.05556 13.4433 4.05556 13.25C4.05556 13.0567 4.21226 12.9 4.40556 12.9H4.48333ZM7.61111 13.25C7.61111 13.0567 7.76781 12.9 7.96111 12.9H8.03889C8.23219 12.9 8.38889 13.0567 8.38889 13.25C8.38889 13.4433 8.23219 13.6 8.03889 13.6H7.96111C7.76781 13.6 7.61111 13.4433 7.61111 13.25ZM11.5944 12.9C11.7877 12.9 11.9444 13.0567 11.9444 13.25C11.9444 13.4433 11.7877 13.6 11.5944 13.6H11.5167C11.3234 13.6 11.1667 13.4433 11.1667 13.25C11.1667 13.0567 11.3234 12.9 11.5167 12.9H11.5944Z" fill="#BDBDBD" stroke="#92C02C"/>
</svg>
