<svg width="22" height="16" viewBox="0 0 22 16" fill="none" xmlns="http://www.w3.org/2000/svg">
<path d="M10.9917 16C8.09419 16 5.20539 16 2.30791 16C1.24088 16 0.390722 15.3763 0.0784191 14.3801C0.0263686 14.2155 0.000343392 14.0423 0.000343392 13.869C0.000343392 13.0807 0.00901847 12.2924 0.000343392 11.4954C-0.00833169 10.9497 0.14782 10.4473 0.416747 9.97947C0.798451 9.31244 1.18883 8.65408 1.58788 7.99572C1.91754 7.44997 2.08236 6.87823 2.09104 6.23719C2.09971 4.81651 3.21012 3.68169 4.63284 3.56908C5.17069 3.52576 5.71722 3.53443 6.25508 3.52576C6.61943 3.5171 6.65413 3.48245 6.60208 3.12728C6.5587 2.82409 6.50665 2.52955 6.50665 2.22636C6.4893 1.03091 7.47826 0.0173718 8.67542 0.00870915C10.1675 4.64516e-05 11.6683 0.00870915 13.1604 4.64508e-05C14.4444 -0.00861625 15.7456 1.1955 15.442 2.65949C15.416 2.77211 15.4246 2.89339 15.4073 3.01466C15.3292 3.5864 15.3292 3.57774 15.9191 3.57774C16.4049 3.57774 16.8994 3.54309 17.3852 3.60373C18.8686 3.77698 19.8229 4.81651 19.901 6.31515C19.9357 6.94753 20.1092 7.51927 20.4388 8.06502C20.8292 8.71472 21.2022 9.37308 21.5839 10.0228C21.8702 10.5166 21.9917 11.045 21.9917 11.6081C21.9917 12.2751 21.9917 12.9508 21.9917 13.6178C21.9917 15.0645 21.0634 15.9827 19.606 15.9827C16.7346 16 13.8631 16 10.9917 16ZM10.9743 14.6313C12.05 14.6313 13.1171 14.6313 14.1928 14.6313C16.0059 14.6313 17.8103 14.64 19.6234 14.6313C20.3 14.6313 20.569 14.3455 20.569 13.6784C20.569 12.9335 20.569 12.1885 20.569 11.4348C20.569 11.1229 20.4996 10.8371 20.3347 10.5685C20.0224 10.0488 19.7275 9.52035 19.4152 9.00059C18.9207 8.18629 18.5043 7.35468 18.4869 6.36713C18.4696 5.35359 17.9838 4.89447 16.9688 4.89447C12.9783 4.89447 8.9964 4.89447 5.00587 4.89447C4.01691 4.89447 3.48773 5.43156 3.47038 6.4191C3.4617 7.05148 3.3229 7.66653 3.01927 8.22961C2.61154 8.96594 2.18646 9.6936 1.75271 10.4213C1.54451 10.7678 1.44041 11.1316 1.44908 11.5301C1.45776 12.2231 1.44908 12.9161 1.45776 13.6091C1.45776 14.4234 1.66596 14.6313 2.47274 14.6313C5.29214 14.6313 8.13757 14.6313 10.9743 14.6313ZM10.9223 3.5864C11.677 3.5864 12.4404 3.5864 13.1951 3.5864C13.8631 3.5864 13.8631 3.5864 13.9325 2.9367C13.9499 2.7981 13.9759 2.65949 13.9846 2.52089C14.0279 1.66328 13.7764 1.36009 12.9175 1.34276C11.5642 1.31678 10.2109 1.32544 8.8576 1.34276C8.16359 1.35143 7.80792 1.83654 7.91202 2.52089C7.94672 2.75478 7.99877 2.98868 8.00744 3.23123C8.01612 3.52576 8.15492 3.59507 8.41517 3.5864C9.25666 3.57774 10.0895 3.5864 10.9223 3.5864Z" fill="white"/>
<path d="M12.5363 10.7418C11.6774 10.7505 11.7902 10.6292 11.7815 11.5128C11.7815 11.6947 11.7902 11.8853 11.7555 12.0586C11.6774 12.4831 11.3218 12.7776 10.9401 12.7429C10.541 12.7083 10.2374 12.3791 10.22 11.9546C10.2027 11.6514 10.2027 11.3482 10.22 11.045C10.2287 10.8198 10.1333 10.7332 9.90772 10.7418C9.61277 10.7505 9.32649 10.7505 9.03154 10.7418C8.57176 10.7332 8.22475 10.3953 8.22475 9.97953C8.22475 9.56372 8.58911 9.22588 9.03154 9.21721C9.30046 9.20855 9.56939 9.20855 9.84699 9.22588C10.1159 9.2432 10.246 9.15658 10.22 8.86204C10.194 8.60216 10.2113 8.34228 10.22 8.0824C10.2287 7.59729 10.5584 7.23346 10.9748 7.22479C11.4085 7.21613 11.7468 7.54531 11.7815 8.03042C11.7989 8.28164 11.7902 8.5242 11.7902 8.77542C11.7902 9.20855 11.7902 9.20855 12.2413 9.22588C12.4582 9.22588 12.6751 9.22588 12.8919 9.22588C13.4298 9.23454 13.7508 9.51175 13.7595 9.97953C13.7595 10.4473 13.4385 10.7418 12.9093 10.7418C12.7792 10.7418 12.6577 10.7418 12.5363 10.7418Z" fill="white"/>
</svg>
