<svg width="113" height="94" viewBox="0 0 113 94" fill="none" xmlns="http://www.w3.org/2000/svg">
<path d="M56.5093 59.0003C50.2947 59.0003 44.0801 59.0003 37.8656 59.0003C35.303 59.0003 33.5998 57.3124 33.5844 54.7652C33.5691 52.663 33.5844 50.5454 33.5844 48.4432C33.5691 45.6505 35.794 44.1621 37.8656 44.1774C48.6989 44.2234 59.5321 44.2081 70.3654 44.2081C71.194 44.2081 71.194 44.2081 71.194 43.4102C71.194 38.8221 71.2094 34.2494 71.194 29.6614C71.1634 22.4801 66.2224 16.4957 59.1792 15.0994C51.2154 13.5342 43.2208 19.1657 42.024 27.2063C41.8398 28.4492 41.8091 29.6921 41.8091 30.935C41.8245 33.3288 41.8091 35.7225 41.8091 38.1316C41.8091 39.1904 41.226 39.8656 40.3207 39.8962C39.4307 39.9269 38.7556 39.1904 38.7556 38.1316C38.7556 35.1394 38.7249 32.1472 38.7709 29.155C38.8937 20.8689 45.1082 13.5649 53.2562 12.0918C63.0614 10.3272 72.3756 16.8486 74.0021 26.6538C74.1709 27.6973 74.2476 28.7407 74.2476 29.7995C74.2476 34.3262 74.2476 38.8528 74.2476 43.3795C74.2476 44.2081 74.2476 44.2541 75.0455 44.2081C77.4086 44.0546 79.4494 45.8653 79.4188 48.5506C79.3881 50.6375 79.4341 52.7243 79.4034 54.8266C79.3881 56.9288 78.1605 58.4939 76.2424 58.9543C75.8741 59.0463 75.5212 59.031 75.153 59.031C68.9384 59.0003 62.7238 59.0003 56.5093 59.0003ZM56.5093 55.9314C62.6778 55.9314 68.8617 55.9314 75.0302 55.9314C76.0276 55.9314 76.3038 55.6705 76.3038 54.6731C76.3038 52.6169 76.3038 50.5761 76.3038 48.5199C76.3038 47.4918 76.0429 47.2463 74.9995 47.2463C62.6778 47.2463 50.3407 47.2463 38.019 47.2463C36.9756 47.2463 36.7301 47.4918 36.7147 48.5353C36.7147 50.5301 36.7147 52.5249 36.7147 54.5197C36.7147 55.7472 36.9142 55.9467 38.1725 55.9467C44.2643 55.9314 50.3868 55.9314 56.5093 55.9314Z" fill="#92C02C"/>
<path d="M44.6475 29.2318C44.7395 23.2781 49.5424 18.1837 55.4654 17.708C55.9258 17.6773 56.3708 17.5852 56.8311 17.6927C57.5983 17.8768 58.0433 18.4292 58.0126 19.2271C57.9973 20.0097 57.5216 20.5468 56.739 20.6695C56.0025 20.7923 55.2506 20.7462 54.5141 20.9304C50.6933 21.8357 47.9619 25.1041 47.7471 29.017C47.7317 29.2011 47.7164 29.4006 47.6857 29.5847C47.563 30.5208 47.0105 31.0271 46.1359 30.9964C45.2766 30.9811 44.7089 30.4133 44.6321 29.4927C44.6321 29.4313 44.6475 29.3239 44.6475 29.2318Z" fill="#92C02C"/>
<path d="M81.9958 30.5667C81.1519 30.5667 80.3079 30.582 79.464 30.5667C78.5586 30.5514 77.9909 30.0143 77.9602 29.1703C77.9295 28.219 78.4052 27.5592 79.3259 27.5285C81.0905 27.4824 82.8398 27.4824 84.6044 27.5285C85.5097 27.5592 86.0315 28.2497 85.9701 29.1703C85.924 30.0143 85.3563 30.536 84.451 30.5514C84.0367 30.5667 83.607 30.5514 83.1927 30.5514C82.8091 30.5667 82.3948 30.5667 81.9958 30.5667Z" fill="#92C02C"/>
<path d="M58.0286 4.00524C58.0286 4.80316 58.044 5.61643 58.0286 6.41435C58.0133 7.3964 57.3842 8.02553 56.4635 8.02553C55.5428 8.01018 54.9904 7.42709 54.9751 6.42969C54.9597 4.81851 54.9597 3.20732 54.9751 1.59614C54.9751 0.598742 55.5428 0.0156477 56.4635 0.000303134C57.4302 -0.0150415 57.998 0.552709 58.0286 1.5808C58.044 2.39406 58.0286 3.19198 58.0286 4.00524Z" fill="#92C02C"/>
<path d="M30.9448 30.5668C30.1469 30.5668 29.3336 30.5821 28.5357 30.5668C27.5997 30.5514 27.0319 30.0143 27.0012 29.1397C26.9706 28.1883 27.5076 27.5439 28.4743 27.5285C30.1622 27.4978 31.8501 27.4978 33.5227 27.5285C34.4741 27.5439 35.0265 28.1577 35.0111 29.063C34.9958 29.9376 34.382 30.5514 33.4613 30.5668C32.6327 30.5821 31.7888 30.5668 30.9448 30.5668Z" fill="#92C02C"/>
<path d="M41.8084 12.721C41.7777 13.3041 41.5168 13.7337 40.9951 14.0099C40.4581 14.3015 39.8903 14.3322 39.43 13.9179C38.0643 12.6903 36.7754 11.386 35.5324 10.0203C35.0261 9.45259 35.1335 8.63932 35.6552 8.08692C36.1923 7.53451 37.0669 7.41176 37.6193 7.93347C38.9236 9.16104 40.1819 10.45 41.4401 11.7389C41.7163 12.0305 41.8237 12.3681 41.8084 12.721Z" fill="#92C02C"/>
<path d="M72.4059 14.685C71.7767 14.6697 71.3624 14.3321 71.0555 13.8257C70.764 13.3347 70.81 12.8283 71.1169 12.3527C71.255 12.1532 71.4238 11.969 71.6079 11.7849C72.6821 10.7108 73.7255 9.62132 74.815 8.57788C75.751 7.6879 77.0553 8.04082 77.4082 9.2377C77.5616 9.77476 77.4082 10.2504 77.0399 10.6187C75.843 11.8463 74.6155 13.0585 73.3879 14.2707C73.127 14.5469 72.7741 14.6697 72.4059 14.685Z" fill="#92C02C"/>
<path d="M10.548 84.4005C10.548 85.2285 10.35 85.9125 9.954 86.4525C9.558 86.9805 9.006 87.3705 8.298 87.6225C7.59 87.8745 6.768 88.0005 5.832 88.0005H1.368V75.4005H5.58C6.408 75.4005 7.14 75.5205 7.776 75.7605C8.412 75.9885 8.91 76.3365 9.27 76.8045C9.642 77.2725 9.828 77.8665 9.828 78.5865C9.828 79.2105 9.66 79.7445 9.324 80.1885C8.988 80.6205 8.532 80.9565 7.956 81.1965C8.7 81.4245 9.318 81.8025 9.81 82.3305C10.302 82.8465 10.548 83.5365 10.548 84.4005ZM5.346 77.4525H3.96V80.4405H5.346C5.91 80.4405 6.354 80.3085 6.678 80.0445C7.002 79.7685 7.164 79.3965 7.164 78.9285C7.164 78.4605 7.002 78.1005 6.678 77.8485C6.354 77.5845 5.91 77.4525 5.346 77.4525ZM3.96 85.9485H5.616C6.264 85.9485 6.804 85.7985 7.236 85.4985C7.668 85.1985 7.884 84.7245 7.884 84.0765C7.884 83.4645 7.668 83.0205 7.236 82.7445C6.804 82.4565 6.264 82.3125 5.616 82.3125H3.96V85.9485ZM12.741 75.4005H15.333V80.1165H21.201V75.4005H23.793V88.0005H21.201V82.4745H15.333V88.0005H12.741V75.4005ZM29.0071 75.4005V83.0145L37.9351 74.7705V88.0005H35.4331V80.3865L26.4871 88.6305V75.4005H29.0071ZM43.4631 80.9625L42.6351 88.0005H39.9351L41.8071 74.7705L47.0991 82.8885L52.3551 74.7705L54.2631 88.0005H51.5451L50.7351 80.9625L47.0991 86.8305L43.4631 80.9625ZM65.3058 88.0005L63.9918 85.1565H59.6718L58.3758 88.0005H55.4418L61.8318 74.6445L68.2398 88.0005H65.3058ZM61.8318 79.5045L60.2838 83.1045H63.3798L61.8318 79.5045ZM69.6063 75.4005H72.1983V80.1165H78.0663V75.4005H80.6583V88.0005H78.0663V82.4745H72.1983V88.0005H69.6063V75.4005ZM85.8724 75.4005V83.0145L94.8004 74.7705V88.0005H92.2984V80.3865L83.3524 88.6305V75.4005H85.8724ZM97.5203 75.4005H105.548V77.5965H100.04V80.2425H105.188V82.3845H100.04V85.8045H105.548V88.0005H97.5203V75.4005ZM108.229 75.4005H111.145L110.623 84.0045H108.769L108.229 75.4005ZM108.211 86.9925C108.211 86.5965 108.349 86.2725 108.625 86.0205C108.913 85.7565 109.273 85.6245 109.705 85.6245C110.137 85.6245 110.491 85.7565 110.767 86.0205C111.043 86.2725 111.181 86.5965 111.181 86.9925C111.181 87.3885 111.043 87.7245 110.767 88.0005C110.491 88.2645 110.137 88.3965 109.705 88.3965C109.273 88.3965 108.913 88.2645 108.625 88.0005C108.349 87.7245 108.211 87.3885 108.211 86.9925Z" fill="#92C02C"/>
</svg>
