<svg width="160" height="135" viewBox="0 0 160 135" fill="none" xmlns="http://www.w3.org/2000/svg">
<path d="M54.6744 13.6704C57.3811 14.773 59.0326 12.8894 60.9593 10.5464C69.6298 -0.204015 86.1449 -3.19023 98.0724 3.70104C99.0358 4.25234 99.8157 4.16046 100.825 3.93075C114.542 0.806705 126.928 3.19568 137.204 13.2569C142.434 18.3565 144.819 24.9721 145.737 32.139C145.829 32.966 146.058 33.5173 146.792 33.9307C160.417 41.9706 163.766 59.75 155.6 72.7516C153.994 75.3243 153.627 77.943 153.352 80.6995C152.526 88.5096 148.443 93.747 140.92 96.1819C139.36 96.6872 137.755 97.1926 136.149 97.5601C134.864 97.8358 134.589 98.2033 135.369 99.4437C138.718 104.819 141.195 110.608 143.214 116.626C144.361 120.026 143.948 121.358 141.195 123.701C138.856 125.677 136.241 127.193 133.259 128.02C130.69 128.755 128.992 128.203 127.524 125.906C123.9 120.393 120.138 114.972 115.826 109.964C114.266 108.173 112.707 106.748 110 106.565C104.357 106.243 100.045 103.165 96.2833 99.1222C96.0539 98.8924 95.8245 98.6168 95.5952 98.3411C93.8519 96.3197 93.8519 96.3197 91.4664 97.4223C85.6402 100.133 79.6764 100.087 73.7127 98.1114C72.1529 97.6061 71.3271 97.8817 70.2261 99.0762C58.9867 111.205 41.7835 114.145 27.3328 106.335C26.0942 105.692 25.5437 105.784 24.7638 106.932C19.4881 114.972 14.1207 123.012 8.75331 131.006C8.29456 131.741 7.78993 132.43 7.19356 133.027C5.67967 134.543 3.52353 134.681 1.87203 133.487C0.174642 132.292 -0.467611 130.179 0.358143 128.295C0.67927 127.56 1.13802 126.871 1.5509 126.228C7.01005 118.004 12.4692 109.781 17.9742 101.603C18.7541 100.454 18.7082 99.7653 17.7449 98.7087C3.24828 82.4912 6.87243 57.0395 25.406 45.3243C26.5988 44.5892 27.1034 43.7163 27.3328 42.3381C28.8467 32.6444 32.7002 24.1911 40.6825 18.1268C44.6278 15.0946 49.1694 13.6704 54.6744 13.6704ZM150.554 62.8741C150.783 62.2768 150.875 62.0471 150.921 61.7715C152.939 53.4101 148.948 44.5892 141.195 40.7761C138.534 39.4897 137.387 37.7439 137.25 34.8036C136.975 28.969 135.048 23.7776 131.103 19.2753C124.726 12.1084 108.578 7.88174 97.7972 14.7271C91.7875 18.5402 87.2459 23.1344 85.732 30.2554C84.6768 35.4009 85.2273 40.4085 86.833 45.3702C87.7046 48.0808 86.6495 50.4698 84.264 51.2508C81.8785 52.0318 79.6306 50.7454 78.6672 48.0808C77.4286 44.6352 77.0157 41.0517 76.5569 37.4683C76.3734 36.1819 77.4286 34.2523 75.7312 33.6551C74.4467 33.1957 72.9787 34.1604 71.6483 34.7118C69.171 35.7684 66.6938 34.8955 65.6845 32.6903C64.6752 30.4392 65.6386 28.0961 68.1159 26.8557C70.8225 25.5234 73.7127 24.8343 76.7404 24.7424C77.8873 24.7424 78.4837 24.3289 78.8966 23.2263C80.4104 19.3672 82.7042 16.0134 85.6402 13.1191C86.9247 11.8327 88.3927 10.7301 89.8608 9.44376C89.4937 9.30594 89.2644 9.16811 88.9891 9.12217C79.6306 6.7332 69.4463 11.3274 64.9046 19.9185C63.2072 23.1804 61.7392 23.8235 58.2527 22.8128C52.9312 21.2967 48.2978 22.6291 44.2608 26.3044C40.5449 29.7041 38.3428 33.9767 36.9207 38.7546C36.3702 40.5464 36.462 40.5923 38.297 40.3626C51.6008 38.433 62.8861 42.43 71.4648 52.8128C80.0434 63.2416 81.7867 75.1405 77.2451 87.9124C76.4652 90.0716 76.4652 90.0716 78.7589 90.531C84.4933 91.6796 89.2185 89.9338 93.072 85.5693C96.4209 81.8021 100.32 78.6781 104.862 76.4728C109.128 74.3595 113.67 73.165 118.441 73.3029C121.928 73.4407 123.992 76.5647 122.524 79.5509C121.606 81.4346 119.955 82.0318 117.982 82.0318C111.239 81.9859 105.917 85.1099 101.192 89.6122C100.687 90.0716 100.366 90.531 100.917 91.2202C104.082 95.1712 107.569 98.5709 113.257 98.1114C114.633 98.0196 115.826 98.479 116.973 99.26C118.212 100.133 119.313 101.098 120.368 102.154C124.909 106.84 128.671 112.124 132.341 117.453C132.662 117.958 132.846 118.923 133.855 118.418C134.864 117.912 134.36 117.177 134.13 116.488C132.02 110.699 129.176 105.232 125.781 100.133C124.175 97.698 124.221 95.9981 125.919 93.6551C127.616 91.2661 130.231 90.3013 132.892 89.5203C134.956 88.9231 137.112 88.3718 139.177 87.6826C141.929 86.7638 143.764 84.9261 144.544 82.1237C145.462 78.7699 145.599 75.2784 144.911 72.0624C143.351 64.7117 138.856 59.7041 131.47 57.6367C125.093 55.845 118.762 56.3503 112.431 57.7745C111.56 57.9583 110.688 58.3258 109.725 58.1421C107.66 57.8205 106.192 56.2125 105.963 54.1911C105.779 52.2156 107.064 50.332 109.22 49.6888C113.211 48.5402 117.294 47.9889 121.423 47.8511C122.891 47.8052 123.396 47.5755 122.799 46.0134C121.515 42.6137 121.469 39.0303 121.744 35.4928C121.973 32.5984 124.084 30.6689 126.561 30.9445C129.176 31.2661 130.736 33.5632 130.369 36.4575C129.818 40.9598 131.057 44.9568 133.717 48.5862C134.084 49.0915 134.589 49.505 135.185 49.6888C141.792 52.0318 146.93 56.2585 150.554 62.8741ZM44.3066 48.5862C29.5807 48.5402 17.5155 60.3473 17.4696 74.9568C17.4237 89.9797 29.1219 101.879 43.9855 101.971C58.7573 102.062 70.8225 90.2554 70.9143 75.6918C71.006 60.577 59.3078 48.6781 44.3066 48.5862Z" fill="white" fill-opacity="0.2"/>
<path d="M54.0303 92.8291C41.2311 91.4968 31.2303 83.7326 28.2943 70.042C27.7897 67.6071 27.5144 65.1721 27.5603 62.6913C27.652 59.5672 29.1659 57.7755 31.8267 57.7755C34.5333 57.7755 36.0931 59.5672 36.1848 62.6453C36.2766 65.6316 36.6436 68.5718 37.6528 71.4202C40.2677 78.679 45.5893 82.5381 52.9293 83.9623C53.6174 84.1002 54.3056 84.192 54.9478 84.3299C57.6545 84.8352 59.0766 86.7188 58.7555 89.3375C58.4802 91.5427 56.5534 92.9669 54.0303 92.8291Z" fill="white" fill-opacity="0.2"/>
</svg>
