<svg width="160" height="90" viewBox="0 0 160 90" fill="none" xmlns="http://www.w3.org/2000/svg">
<path d="M80.2737 89.8215C72.1238 89.8215 63.9738 90.0962 55.9155 89.73C42.8207 89.1805 32.2899 82.4958 22.7663 74.1627C15.0743 67.3863 8.11478 59.969 2.16259 51.6359C-1.13401 47.0573 -0.767724 45.1343 3.99403 42.4787C10.7704 38.7242 16.1731 33.1383 21.6675 27.9187C27.6197 22.2412 33.2971 16.289 38.9746 10.2453C49.4139 -0.743398 61.8677 -2.84956 75.5119 3.83521C78.5338 5.39194 80.9147 5.48351 84.0282 3.92679C98.405 -2.94113 110.126 -0.83497 121.115 10.52C129.814 19.5856 138.422 28.8344 148.129 36.8012C150.967 39.0905 153.806 41.3798 157.103 43.0281C159.942 44.4017 160.857 46.691 159.117 49.255C147.946 65.1886 134.942 79.1076 116.628 86.9828C111.775 89.089 106.555 89.8215 101.244 89.73C94.1927 89.73 87.2332 89.8215 80.2737 89.8215ZM140.528 42.2955C139.979 41.3798 139.887 41.0135 139.613 40.7388C129.906 32.3142 121.481 22.6991 112.416 13.6334C109.119 10.3368 104.998 8.78011 100.328 8.78011C94.3758 8.68854 89.0646 10.6116 84.1197 13.6334C81.1894 15.4649 78.6254 15.3733 75.7867 13.4503C72.3985 11.161 68.644 9.87898 64.6148 9.1464C57.2891 7.68125 50.9706 9.69584 45.9341 15.0986C35.4949 26.2704 25.0556 37.5338 12.785 46.7826C10.9535 48.1562 10.8619 49.1635 12.3271 50.9033C19.836 60.0606 27.8944 68.5768 38.0589 74.8953C45.2015 79.3823 52.9852 81.7632 61.5014 81.2137C73.1311 80.4812 84.8523 80.4812 96.482 81.1222C106.189 81.6716 114.796 79.657 122.855 74.4374C131.005 69.2178 137.689 62.2583 144.1 55.1157C144.924 54.1999 146.206 53.2842 146.297 51.5443C140.437 51.1781 134.576 51.0865 128.899 50.3539C122.031 49.4382 115.895 49.4382 109.302 53.1926C98.4966 59.328 86.0427 59.4195 73.8636 58.8701C71.5743 58.7785 69.8345 57.4965 69.7429 55.1157C69.6513 52.5516 71.208 51.0865 73.6805 50.7202C75.1457 50.537 76.6108 50.537 78.1675 50.537C85.6765 50.7202 93.0022 49.9876 100.236 47.8815C101.518 47.5152 102.984 47.4236 103.899 46.05C99.8701 43.2113 95.6578 41.4714 90.7129 42.6618C83.5703 44.3101 76.4277 44.3101 69.285 42.6618C64.2486 41.4714 60.0362 43.3028 55.9155 46.3247C57.6554 47.6983 59.4868 47.8815 61.2267 48.5225C63.6076 49.4382 65.3474 50.9033 64.5233 53.6505C63.6991 56.4892 61.5014 57.1302 58.7542 56.4892C54.725 55.4819 50.6043 54.4747 47.4908 51.7275C44.1942 48.8887 40.8061 48.8887 36.96 49.4382C33.0224 49.9876 28.9933 50.3539 25.0556 50.4455C22.5832 50.537 20.477 49.4382 20.2939 46.5994C20.1107 43.7607 21.9422 42.4787 24.5062 42.204C26.7039 41.9293 28.8101 41.7461 31.0078 41.563C40.5314 40.5557 50.1464 40.0978 58.8458 35.0613C62.4171 32.9552 66.4463 32.8636 70.4755 33.9625C76.794 35.7939 83.1124 35.8855 89.4309 33.9625C94.1011 32.5889 98.5881 33.2299 102.709 35.5192C107.929 38.3579 113.514 39.7315 119.375 40.5557C126.151 41.563 133.019 42.5703 140.528 42.2955Z" fill="white" fill-opacity="0.2"/>
<path d="M42.9122 25.8126C43.5532 19.2194 54.9082 10.8863 61.1351 12.2599C63.1497 12.7178 64.3401 13.9998 64.5232 16.0144C64.7064 18.0289 63.6075 19.952 61.6845 20.0435C56.648 20.4098 53.9924 23.8896 51.2453 27.3693C49.8717 29.1092 48.2234 30.6659 45.7509 29.7502C43.8279 29.0176 42.9122 27.644 42.9122 25.8126Z" fill="white" fill-opacity="0.2"/>
</svg>
