<svg width="60" height="61" viewBox="0 0 60 61" fill="none" xmlns="http://www.w3.org/2000/svg">
<circle cx="30" cy="30.4136" r="30" fill="#EE61AD"/>
<path d="M48.9973 17.2009C48.9536 18.4178 49.1064 19.8521 48.7789 21.2538C47.8182 25.2958 45.3945 28.0448 41.486 29.49C41.1476 29.6204 40.962 29.7073 41.0275 30.1528C41.1585 31.0655 40.8419 31.8696 40.1104 32.4672C39.8811 32.6519 39.8156 32.8583 39.8156 33.13C39.8265 34.4013 39.8047 35.6834 39.8265 36.9547C39.8702 39.9971 38.7675 42.6375 36.8679 44.9627C35.1211 47.1033 32.9266 48.5593 30.1754 49.146C23.5157 50.5803 16.856 46.0928 15.6987 39.3995C15.5022 38.2803 15.5459 37.1503 15.535 36.0311C15.5241 35.1619 15.5241 34.2926 15.535 33.4234C15.5459 33.1191 15.4367 32.9996 15.1529 32.9127C12.882 32.2825 11.5064 30.8156 11.0806 28.5121C10.5238 25.5131 12.9257 22.5577 15.9826 22.3295C18.8321 22.123 21.354 24.144 21.7798 26.9474C22.1619 29.4465 20.568 32.0217 18.0569 32.804C17.653 32.9344 17.5329 33.0974 17.5438 33.5103C17.5984 34.9989 17.5001 36.4984 17.6093 37.987C17.8932 42.0942 20.5898 45.5603 24.531 46.8642C29.0727 48.3637 33.8437 46.4839 36.3111 42.2246C37.3155 40.4969 37.8286 38.6606 37.7959 36.6722C37.7849 35.5965 37.7849 34.5317 37.7959 33.456C37.7959 33.1843 37.7194 33.0431 37.4574 32.9344C36.2892 32.4563 35.7324 31.6088 35.7543 30.3375C35.7652 30.0115 35.6342 29.9029 35.3394 29.8268C30.5903 28.5664 27.7408 25.524 26.7801 20.7322C26.6818 20.2541 26.66 19.7652 26.66 19.2762C26.6709 17.7115 26.7146 16.1469 26.649 14.5931C26.5726 12.7894 28.0247 11.3008 29.8588 11.4203C30.5466 11.4638 31.2235 11.442 31.8349 11.8223C32.752 12.3982 33.2651 13.2131 33.276 14.3106C33.2869 15.0169 33.2869 15.7231 33.276 16.4294C33.2651 18.0267 31.9877 19.2871 30.3828 19.3088C29.9461 19.3088 29.5094 19.3305 29.0727 19.2653C28.7671 19.2219 28.7343 19.3088 28.7452 19.5696C28.8107 20.9387 29.1819 22.2208 29.8697 23.4052C31.4746 26.1542 33.8983 27.6863 37.0644 28.0448C38.1452 27.6102 39.3025 28.0883 40.3942 27.7189C41.4642 27.3603 42.4795 26.9039 43.3638 26.2085C45.5255 24.5135 46.7373 22.3077 46.9229 19.5587C46.9448 19.3088 46.912 19.2219 46.6172 19.2653C46.0495 19.3631 45.4709 19.3523 44.9032 19.2871C43.5167 19.135 42.4031 17.8854 42.3812 16.5055C42.3703 15.7449 42.3703 14.9843 42.3812 14.2237C42.4031 12.7242 43.6804 11.4529 45.187 11.4312C46.0059 11.4203 46.8247 11.3551 47.5671 11.8332C48.4623 12.4199 48.9754 13.224 48.9864 14.2997C49.0082 15.2016 48.9973 16.0926 48.9973 17.2009ZM16.4193 31.0112C18.2862 31.0112 19.771 29.5443 19.7928 27.6863C19.8037 25.8717 18.2644 24.3505 16.4193 24.3505C14.5961 24.3505 13.0785 25.8608 13.0676 27.6645C13.0458 29.5117 14.5633 31.0112 16.4193 31.0112ZM31.2563 15.3863C31.2563 15.0603 31.2672 14.7343 31.2563 14.4084C31.2235 13.8325 30.8741 13.4848 30.2955 13.4413C30.0881 13.4305 29.8916 13.4305 29.6841 13.4413C29.0837 13.4739 28.7234 13.8325 28.7125 14.4301C28.6906 15.0494 28.6906 15.6797 28.7125 16.299C28.7343 16.8966 29.0946 17.2443 29.695 17.2878C29.9025 17.2987 30.099 17.2987 30.3064 17.2878C30.8741 17.2443 31.2344 16.8966 31.2672 16.3207C31.2672 16.0056 31.2563 15.7014 31.2563 15.3863ZM46.9666 15.3972C46.9775 15.3972 46.9775 15.3972 46.9666 15.3972C46.9666 15.1146 46.9775 14.8321 46.9666 14.5388C46.9557 13.8108 46.5845 13.4522 45.8421 13.4413C45.6783 13.4413 45.5146 13.4305 45.3508 13.4413C44.794 13.4848 44.4337 13.8216 44.4119 14.3758C44.3901 15.0277 44.3901 15.6797 44.4119 16.3316C44.4337 16.9075 44.8049 17.2443 45.3836 17.2878C45.591 17.2987 45.7875 17.2987 45.9949 17.2878C46.5736 17.2443 46.9229 16.8966 46.9557 16.3316C46.9884 16.0165 46.9666 15.7014 46.9666 15.3972Z" fill="white"/>
<path d="M16.463 26.2629C17.26 26.2629 17.915 26.9257 17.9041 27.7189C17.8932 28.5012 17.26 29.1423 16.4739 29.1531C15.6878 29.164 15 28.4903 15 27.708C15 26.9257 15.666 26.2629 16.463 26.2629Z" fill="white"/>
</svg>
