<svg width="100" height="160" viewBox="0 0 100 160" fill="none" xmlns="http://www.w3.org/2000/svg">
<path d="M0.0375503 139.22C0.232667 134.83 -0.450242 129.562 0.622901 124.294C2.76919 113.465 8.72025 104.977 16.72 97.6601C23.2565 91.6115 30.7685 86.9287 38.6707 82.9288C49.1094 77.6606 59.5482 72.0998 68.7187 64.6853C80.5233 55.1246 87.7426 42.442 89.9864 27.3204C90.962 20.6865 90.3767 14.0525 90.4742 7.41853C90.4742 6.44294 90.4742 5.3698 90.4742 4.39422C90.5718 1.95526 92.4254 0.101645 94.7668 0.00408609C97.2057 -0.0934723 99.6447 1.56502 99.6447 4.00398C99.7423 17.467 100.913 31.0277 95.2546 43.9054C89.4986 57.0758 81.3037 68.0999 69.1089 76.0997C59.7433 82.441 49.7924 87.8067 39.8414 93.0748C30.7685 97.8552 22.5736 103.806 16.3298 112.099C11.647 118.245 9.3056 125.172 9.40316 132.976C9.50072 139.22 9.40316 145.561 9.40316 151.805C9.40316 155.024 7.64711 157.073 4.81791 157.073C1.98872 157.073 0.135109 155.122 0.135109 151.903C0.0375503 147.903 0.0375503 144 0.0375503 139.22Z" fill="white" fill-opacity="0.2"/>
<path d="M3.06203 14.8331C3.06203 11.6137 3.06203 8.29668 3.06203 5.07725C3.06203 1.95538 5.0132 0.00420889 7.74484 0.00420889C10.4765 0.00420889 12.3301 1.95538 12.3301 5.07725C12.4276 11.321 12.135 17.6623 12.5252 23.906C13.3057 35.613 17.7934 45.8567 24.72 55.2223C26.9638 58.2466 29.4028 60.9782 32.232 63.4172C33.4027 64.3928 34.2807 65.4659 34.4758 67.0269C34.7685 68.8805 33.7929 70.8316 32.1344 71.8072C30.3784 72.7828 28.2321 72.5877 26.5736 71.1243C19.0616 64.3928 13.4032 56.393 9.11066 47.3201C4.33029 37.0764 2.28157 26.1499 3.06203 14.8331Z" fill="white" fill-opacity="0.2"/>
<path d="M99.7421 141.269C99.7421 146.439 99.7421 150.634 99.7421 154.927C99.7421 158.049 97.8885 160 95.1569 160C92.3277 160 90.4741 158.049 90.4741 154.829C90.4741 148.391 90.279 142.049 90.4741 135.61C90.8643 124.489 86.4742 115.318 79.45 107.221C77.6939 105.27 75.7428 103.514 73.8892 101.562C72.0355 99.6113 71.8404 96.8797 73.5965 94.9285C75.3525 92.9774 78.0842 92.7822 80.2305 94.6358C89.5961 102.928 96.6203 112.782 99.2544 125.269C100.327 130.928 99.547 136.586 99.7421 141.269Z" fill="white" fill-opacity="0.2"/>
<path d="M51.2557 21.3694C45.012 21.3694 38.6707 21.3694 32.4269 21.3694C29.2075 21.3694 27.1588 19.6134 27.1588 16.7842C27.1588 13.955 29.1099 12.1014 32.3294 12.1014C45.012 12.1014 57.6945 12.1014 70.3771 12.1014C73.5966 12.1014 75.6453 13.8574 75.6453 16.6866C75.6453 19.5158 73.6941 21.3694 70.4747 21.3694C64.0358 21.3694 57.6945 21.3694 51.2557 21.3694Z" fill="white" fill-opacity="0.2"/>
<path d="M51.2558 150.927C45.012 150.927 38.6707 150.927 32.427 150.927C29.2076 150.927 27.2564 149.073 27.2564 146.244C27.2564 143.415 29.3051 141.561 32.5246 141.561C45.2072 141.561 57.8898 141.561 70.5723 141.561C73.7918 141.561 75.7429 143.415 75.7429 146.244C75.7429 149.073 73.6942 150.829 70.4748 150.927C64.0359 150.927 57.5971 150.927 51.2558 150.927Z" fill="white" fill-opacity="0.2"/>
<path d="M52.914 42.4421C49.0117 42.4421 45.1093 42.4421 41.207 42.4421C38.1827 42.4421 36.2315 40.5885 36.2315 37.7593C36.2315 35.0277 38.1827 33.1741 41.3046 33.1741C49.1092 33.1741 56.8163 33.1741 64.621 33.1741C67.6453 33.1741 69.6941 35.0277 69.5965 37.8569C69.5965 40.5885 67.6453 42.4421 64.5235 42.5397C60.7187 42.4421 56.8164 42.4421 52.914 42.4421Z" fill="white" fill-opacity="0.2"/>
<path d="M52.914 114.538C56.8164 114.538 60.7187 114.538 64.621 114.538C67.6453 114.538 69.6941 116.391 69.6941 119.221C69.6941 121.952 67.7429 123.903 64.621 123.903C56.8164 123.903 49.1092 123.903 41.3046 123.903C38.2803 123.903 36.2315 122.05 36.2315 119.221C36.2315 116.489 38.1827 114.635 41.3046 114.538C45.1093 114.538 49.0117 114.538 52.914 114.538Z" fill="white" fill-opacity="0.2"/>
</svg>
