<svg width="22" height="18" viewBox="0 0 22 18" fill="none" xmlns="http://www.w3.org/2000/svg">
<path d="M7.51773 1.83242C7.8899 1.98021 8.11698 1.72773 8.38191 1.41366C9.57409 -0.0273467 11.8449 -0.427627 13.485 0.496097C13.6174 0.569994 13.7247 0.557678 13.8634 0.526887C15.7495 0.108133 17.4526 0.428357 18.8655 1.77699C19.5846 2.46055 19.9127 3.34732 20.0388 4.30799C20.0514 4.41884 20.083 4.49274 20.1839 4.54816C22.0573 5.62584 22.5178 8.00905 21.395 9.7518C21.1742 10.0967 21.1238 10.4477 21.0859 10.8172C20.9724 11.8641 20.411 12.5661 19.3765 12.8925C19.162 12.9602 18.9412 13.0279 18.7205 13.0772C18.5438 13.1142 18.506 13.1634 18.6132 13.3297C19.0737 14.0502 19.4143 14.8261 19.6919 15.6328C19.8496 16.0885 19.7928 16.2671 19.4143 16.5812C19.0926 16.846 18.7331 17.0492 18.3231 17.1601C17.9698 17.2586 17.7364 17.1847 17.5346 16.8768C17.0363 16.1378 16.519 15.4111 15.9261 14.7399C15.7116 14.4997 15.4972 14.3088 15.125 14.2842C14.3491 14.2411 13.7562 13.8285 13.239 13.2866C13.2074 13.2558 13.1759 13.2188 13.1443 13.1819C12.9046 12.9109 12.9046 12.9109 12.5766 13.0587C11.7755 13.4221 10.9555 13.4159 10.1355 13.1511C9.92102 13.0834 9.80748 13.1203 9.65609 13.2804C8.11067 14.9062 5.74523 15.3003 3.75826 14.2534C3.58795 14.1672 3.51225 14.1795 3.40502 14.3335C2.67962 15.4111 1.9416 16.4888 1.20358 17.5603C1.1405 17.6589 1.07112 17.7512 0.989114 17.8313C0.780955 18.0345 0.484486 18.053 0.257404 17.8929C0.0240133 17.7328 -0.0642966 17.4495 0.0492447 17.197C0.0933996 17.0985 0.156478 17.0061 0.213249 16.9199C0.963882 15.8176 1.71452 14.7153 2.47146 13.6191C2.57869 13.4652 2.57238 13.3728 2.43992 13.2312C0.446639 11.0573 0.944959 7.64571 3.49333 6.07539C3.65733 5.97685 3.72672 5.85985 3.75826 5.67511C3.96642 4.37573 4.49628 3.24263 5.59384 2.42976C6.13632 2.02332 6.76079 1.83242 7.51773 1.83242ZM20.7011 8.4278C20.7327 8.34774 20.7453 8.31695 20.7516 8.28001C21.0291 7.15922 20.4804 5.97685 19.4143 5.46573C19.0485 5.2933 18.8908 5.05929 18.8719 4.66517C18.834 3.88308 18.5691 3.18721 18.0266 2.58371C17.1498 1.62304 14.9295 1.05649 13.4471 1.97405C12.6208 2.48518 11.9963 3.101 11.7881 4.05551C11.6431 4.74522 11.7188 5.41646 11.9395 6.08154C12.0594 6.44488 11.9143 6.7651 11.5863 6.86979C11.2583 6.97448 10.9492 6.80205 10.8167 6.44487C10.6464 5.98301 10.5897 5.50268 10.5266 5.02234C10.5013 4.84991 10.6464 4.59127 10.413 4.51121C10.2364 4.44963 10.0346 4.57895 9.85164 4.65285C9.51101 4.79449 9.17039 4.67748 9.03162 4.38189C8.89285 4.08014 9.02531 3.76608 9.36593 3.59981C9.7381 3.42122 10.1355 3.32885 10.5518 3.31653C10.7095 3.31653 10.7915 3.26111 10.8483 3.11331C11.0564 2.59603 11.3718 2.14648 11.7755 1.75852C11.9522 1.58609 12.154 1.43829 12.3559 1.26587C12.3054 1.24739 12.2739 1.22892 12.236 1.22276C10.9492 0.902535 9.54886 1.51835 8.92438 2.66993C8.69099 3.10715 8.48914 3.19337 8.00975 3.05789C7.27804 2.85467 6.64094 3.03326 6.08585 3.52591C5.57492 3.98161 5.27214 4.55432 5.0766 5.19477C5.0009 5.43494 5.01352 5.4411 5.26583 5.4103C7.09511 5.15166 8.64684 5.68742 9.82641 7.07916C11.006 8.47707 11.2457 10.072 10.6212 11.784C10.514 12.0734 10.514 12.0734 10.8294 12.135C11.6178 12.289 12.2675 12.055 12.7974 11.4699C13.2579 10.965 13.794 10.5462 14.4185 10.2506C15.0051 9.96734 15.6296 9.80723 16.2856 9.8257C16.765 9.84418 17.0489 10.2629 16.847 10.6632C16.7209 10.9157 16.4938 10.9958 16.2226 10.9958C15.2953 10.9896 14.5636 11.4083 13.9139 12.0118C13.8445 12.0734 13.8003 12.135 13.876 12.2274C14.3113 12.757 14.7907 13.2127 15.5729 13.1511C15.7621 13.1388 15.9261 13.2004 16.0838 13.3051C16.2541 13.4221 16.4055 13.5514 16.5506 13.693C17.175 14.3212 17.6923 15.0293 18.1969 15.7437C18.2411 15.8114 18.2663 15.9408 18.4051 15.873C18.5438 15.8053 18.4745 15.7067 18.4429 15.6144C18.1528 14.8384 17.7617 14.1056 17.2949 13.4221C17.0741 13.0957 17.0804 12.8678 17.3138 12.5538C17.5472 12.2335 17.9068 12.1042 18.2726 11.9995C18.5565 11.9195 18.8529 11.8456 19.1368 11.7532C19.5153 11.63 19.7676 11.3837 19.8748 11.0081C20.001 10.5585 20.0199 10.0905 19.9253 9.65943C19.7108 8.67413 19.0926 8.00289 18.0771 7.72577C17.2003 7.4856 16.3298 7.55334 15.4593 7.74425C15.3395 7.76888 15.2196 7.81814 15.0871 7.79351C14.8033 7.7504 14.6014 7.53487 14.5699 7.26391C14.5447 6.99911 14.7213 6.74662 15.0178 6.66041C15.5665 6.50646 16.1279 6.43256 16.6957 6.41408C16.8975 6.40793 16.9669 6.37713 16.8849 6.16776C16.7083 5.71205 16.702 5.23172 16.7398 4.75754C16.7713 4.36958 17.0615 4.11093 17.4021 4.14788C17.7617 4.19099 17.9761 4.4989 17.9257 4.88686C17.85 5.49036 18.0203 6.02612 18.3862 6.51261C18.4366 6.58035 18.506 6.63578 18.588 6.66041C19.4963 6.97448 20.2028 7.54103 20.7011 8.4278ZM6.09216 6.51261C4.06734 6.50646 2.40838 8.0891 2.40207 10.0474C2.39576 12.0611 4.00426 13.6561 6.04801 13.6684C8.07913 13.6807 9.7381 12.0981 9.75071 10.1459C9.76333 8.11989 8.15483 6.52493 6.09216 6.51261Z" fill="#92C02C"/>
<path d="M7.42917 12.443C5.66928 12.2645 4.29417 11.2237 3.89047 9.3886C3.82108 9.06222 3.78323 8.73584 3.78954 8.4033C3.80216 7.98454 4.01031 7.74438 4.37617 7.74438C4.74833 7.74438 4.9628 7.98454 4.97542 8.39714C4.98803 8.79742 5.03849 9.19154 5.17727 9.57335C5.53681 10.5463 6.26852 11.0636 7.27778 11.2545C7.3724 11.273 7.46701 11.2853 7.55532 11.3038C7.92749 11.3715 8.12303 11.624 8.07888 11.975C8.04103 12.2706 7.7761 12.4615 7.42917 12.443Z" fill="#92C02C"/>
</svg>
