<svg width="60" height="61" viewBox="0 0 60 61" fill="none" xmlns="http://www.w3.org/2000/svg">
<circle cx="30" cy="30.4136" r="30" fill="#EF7F1A" fill-opacity="0.8"/>
<path d="M49 21.3678C48.8692 24.0684 47.6699 26.4676 45.2495 28.1862C44.8788 28.454 44.5081 28.7218 44.1156 28.9339C43.0362 29.5141 42.6656 30.485 42.6001 31.6567C42.5129 33.2302 42.5347 34.8037 42.164 36.3437C41.5535 38.8657 40.1907 40.9302 38.5007 42.8273C36.8871 44.6351 34.9138 45.7734 32.5588 46.1416C30.9125 46.3983 29.2662 46.5768 27.609 46.1862C25.6792 45.7287 24.0765 44.7467 22.8445 43.1621C22.6701 42.9389 22.4956 42.738 22.2776 42.5706C22.0159 42.3697 21.787 42.3921 21.558 42.6487C21.3618 42.8719 21.2854 43.1621 21.111 43.3964C19.8245 45.1261 18.1891 46.1193 15.9868 45.8738C15.5615 45.8292 15.1691 45.6729 14.7984 45.4386C13.272 44.4789 12.1054 43.1844 11.3095 41.544C10.8952 40.6847 10.8407 39.8366 11.4949 39.0443C12.2362 38.1627 13.1303 37.7609 14.2532 38.0845C14.6239 38.185 14.9837 38.3189 15.3326 38.4751C15.6488 38.609 15.7578 38.5086 15.8232 38.185C16.0522 37.1806 16.2484 36.1651 16.6518 35.2166C17.3278 33.632 18.4289 32.5383 20.1298 32.2259C21.449 31.9915 22.7028 32.2482 23.8694 32.9512C24.2837 33.2079 24.5235 33.5762 24.4363 34.1007C24.3709 34.5024 24.0329 34.8483 23.6186 34.9376C23.3133 35.0046 23.0626 34.893 22.8009 34.7367C22.1577 34.3685 21.4599 34.1676 20.7185 34.2457C19.65 34.3462 18.9632 35.0157 18.5489 35.9866C18.1455 36.9463 17.971 37.9841 17.7203 38.9996C17.6112 39.4237 17.5567 39.87 17.2078 40.2048C16.6191 40.7851 15.9322 40.7516 15.2236 40.6177C14.7875 40.5396 14.395 40.3499 13.9916 40.1937C13.828 40.1267 13.6645 40.0598 13.4791 40.0821C13.1739 40.1267 13.0212 40.3722 13.1521 40.64C13.8062 41.9122 14.7002 42.9724 15.9431 43.6642C16.4447 43.9432 17.0116 43.8205 17.5349 43.6308C18.3962 43.3183 19.0613 42.7603 19.5192 41.9234C20.0752 40.9302 20.8275 40.1937 22.0595 40.2718C22.8118 40.3164 23.4006 40.7182 23.913 41.2426C24.3382 41.6779 24.6871 42.1912 25.1341 42.5929C26.824 44.1441 28.841 44.4789 31.0106 44.1776C31.7411 44.0771 32.4716 44.0437 33.1802 43.8316C34.6957 43.3741 35.9604 42.526 37.018 41.3208C38.5007 39.6469 39.7218 37.8279 40.1906 35.5625C40.4196 34.4801 40.4414 33.3753 40.485 32.2817C40.5177 31.5563 40.5722 30.8421 40.7358 30.1279C40.9865 29.0008 41.5862 28.1192 42.5129 27.4608C43.2434 26.9475 44.0284 26.5234 44.7044 25.9208C46.1544 24.6263 46.8958 22.9748 46.9285 21.033C46.9721 18.3548 44.9987 16.0448 42.4148 15.6207C38.5553 14.9958 35.1427 17.5848 34.6739 21.5352C34.554 22.5507 34.6194 23.5662 35.2736 24.4478C35.6224 24.9165 35.4698 25.5303 35.0337 25.8539C34.5867 26.1887 34.0088 26.1217 33.6382 25.6642C32.875 24.7379 32.6024 23.622 32.5697 22.4391C32.4716 18.0535 35.5461 14.2704 39.7763 13.5562C42.5238 13.0876 44.9442 13.7571 46.9285 15.8104C48.3349 17.2946 48.9673 19.069 49 21.3678Z" fill="white"/>
<path d="M32.5479 33.3083C32.5479 33.8217 32.2426 34.2122 31.752 34.3238C31.2941 34.4354 30.7599 34.2122 30.6181 33.7212C30.2692 32.4491 29.3098 31.7349 28.3395 31.043C27.7725 30.6412 27.1947 30.2395 26.5841 29.8936C23.684 28.2197 22.0377 25.6195 21.2091 22.3945C21.0456 21.7695 20.9257 21.1446 20.8712 20.5085C20.8057 19.7832 21.1764 19.2922 21.7979 19.2252C22.3539 19.1694 22.8009 19.6158 22.899 20.2742C23.1825 22.294 23.804 24.18 25.0251 25.8092C25.5484 26.5123 26.1698 27.1149 26.9003 27.5947C28.2413 28.4763 29.6369 29.2686 30.8362 30.3623C31.534 30.9872 32.1009 31.7125 32.4062 32.6165C32.4934 32.8396 32.5697 33.0628 32.5479 33.3083Z" fill="white"/>
</svg>
