<svg width="162" height="140" viewBox="0 0 162 140" fill="none" xmlns="http://www.w3.org/2000/svg">
<path d="M162 33.7452C161.442 45.2022 156.329 55.3809 146.011 62.6717C144.431 63.8079 142.85 64.9441 141.177 65.8436C136.576 68.3055 134.995 72.4243 134.716 77.3953C134.345 84.0706 134.438 90.7459 132.857 97.2793C130.254 107.979 124.444 116.737 117.24 124.785C110.361 132.455 101.948 137.284 91.9085 138.846C84.8901 139.935 77.8716 140.693 70.8067 139.036C62.5798 137.095 55.7473 132.928 50.4951 126.206C49.7514 125.259 49.0077 124.407 48.0781 123.697C46.9626 122.844 45.9865 122.939 45.0105 124.028C44.1738 124.975 43.8485 126.206 43.1048 127.2C37.6202 134.538 30.6482 138.752 21.2593 137.71C19.4466 137.521 17.7733 136.858 16.193 135.864C9.68585 131.792 4.71252 126.3 1.3195 119.341C-0.446731 115.696 -0.67913 112.098 2.10965 108.736C5.27028 104.996 9.08162 103.292 13.869 104.665C15.4493 105.091 16.9832 105.659 18.4705 106.322C19.8184 106.89 20.2832 106.464 20.5621 105.091C21.5382 100.83 22.3748 96.5218 24.0946 92.4976C26.9763 85.7749 31.6708 81.1354 38.9216 79.8098C44.5457 78.8156 49.8908 79.9044 54.8642 82.887C56.6304 83.9759 57.653 85.5382 57.2811 87.7634C57.0022 89.4677 55.5614 90.9353 53.7951 91.3141C52.4937 91.5981 51.4247 91.1247 50.3092 90.4619C47.5668 88.8996 44.5921 88.0474 41.4315 88.3788C36.8765 88.8049 33.9483 91.6455 32.1821 95.7643C30.4623 99.8358 29.7186 104.239 28.6496 108.547C28.1848 110.346 27.9524 112.24 26.465 113.66C23.9551 116.122 21.0269 115.98 18.0057 115.412C16.1465 115.08 14.4733 114.275 12.7535 113.613C12.0563 113.328 11.3591 113.044 10.569 113.139C9.26754 113.328 8.61682 114.37 9.17458 115.506C11.9634 120.903 15.7747 125.401 21.0734 128.336C23.2115 129.52 25.6284 128.999 27.8594 128.194C31.5313 126.868 34.3666 124.501 36.3187 120.951C38.6892 116.737 41.8963 113.613 47.1485 113.944C50.3556 114.133 52.8655 115.838 55.0501 118.063C56.8628 119.909 58.3502 122.087 60.2558 123.791C67.4602 130.372 76.0589 131.792 85.3084 130.514C88.4226 130.088 91.5367 129.946 94.5579 129.046C101.019 127.105 106.41 123.507 110.919 118.394C117.24 111.293 122.446 103.576 124.444 93.9653C125.42 89.373 125.513 84.6861 125.699 80.0465C125.839 76.9692 126.071 73.9392 126.768 70.9093C127.837 66.1277 130.394 62.3876 134.345 59.5944C137.459 57.4166 140.805 55.6176 143.687 53.0611C149.869 47.5693 153.029 40.5626 153.169 32.3249C153.355 20.9627 144.942 11.1627 133.926 9.36368C117.472 6.71248 102.924 17.696 100.926 34.4554C100.414 38.7636 100.693 43.0718 103.482 46.8118C104.969 48.8002 104.319 51.4041 102.459 52.777C100.554 54.1973 98.0903 53.9132 96.51 51.9722C93.2564 48.0427 92.0944 43.3085 91.955 38.2901C91.5367 19.6844 104.644 3.6352 122.678 0.605264C134.391 -1.38313 144.71 1.45743 153.169 10.1685C159.165 16.4651 161.861 23.9926 162 33.7452Z" fill="white" fill-opacity="0.2"/>
<path d="M91.8621 84.402C91.8621 86.5798 90.5607 88.2368 88.4691 88.7102C86.5169 89.1836 84.2394 88.2368 83.6352 86.1537C82.1478 80.7566 78.0576 77.7267 73.9209 74.7914C71.504 73.0871 69.0405 71.3828 66.4377 69.9151C54.0741 62.8137 47.0556 51.7828 43.5232 38.1008C42.826 35.4496 42.3147 32.7984 42.0823 30.0998C41.8034 27.0226 43.3837 24.9395 46.0331 24.6554C48.4035 24.4187 50.3092 26.3124 50.7275 29.1056C51.936 37.6747 54.5853 45.6756 59.7911 52.5877C62.0221 55.5703 64.6714 58.1268 67.7856 60.1625C73.5026 63.9026 79.452 67.2639 84.5648 71.9035C87.5395 74.5547 89.9564 77.632 91.2579 81.4668C91.6297 82.4136 91.9551 83.3605 91.8621 84.402Z" fill="white" fill-opacity="0.2"/>
</svg>
