<svg width="35" height="35" viewBox="0 0 35 35" fill="none" xmlns="http://www.w3.org/2000/svg">
<circle cx="17.5" cy="17.5" r="17.5" fill="#E7F5FB"/>
<path fill-rule="evenodd" clip-rule="evenodd" d="M17.5 15.1251C16.1883 15.1251 15.125 16.1884 15.125 17.5001C15.125 18.8118 16.1883 19.8751 17.5 19.8751C18.8117 19.8751 19.875 18.8118 19.875 17.5001C19.875 16.1884 18.8117 15.1251 17.5 15.1251ZM19.875 14.3331C19.2134 13.8362 18.3911 13.5417 17.5 13.5417C15.3139 13.5417 13.5417 15.314 13.5417 17.5001C13.5417 19.6862 15.3139 21.4584 17.5 21.4584C18.8649 21.4584 20.0684 20.7676 20.7801 19.7166C21.3548 20.3029 22.1557 20.6667 23.0417 20.6667C24.7906 20.6667 26.2083 19.249 26.2083 17.5001C26.2083 17.0629 25.8539 16.7084 25.4167 16.7084C24.9794 16.7084 24.625 17.0629 24.625 17.5001C24.625 18.3745 23.9161 19.0834 23.0417 19.0834C22.1672 19.0834 21.4583 18.3745 21.4583 17.5001V14.3334C21.4583 13.8962 21.1039 13.5417 20.6667 13.5417C20.2295 13.5417 19.8752 13.896 19.875 14.3331Z" fill="#92C02C"/>
<path d="M10.375 17.5001C10.375 13.5651 13.565 10.3751 17.5 10.3751C21.435 10.3751 24.625 13.5651 24.625 17.5001C24.625 17.7649 24.8254 17.9925 25.0898 18.0064L25.6268 18.0345C25.9391 18.0509 26.2083 17.8128 26.2083 17.5001C26.2083 12.6906 22.3095 8.79175 17.5 8.79175C12.6905 8.79175 8.79167 12.6906 8.79167 17.5001C8.79167 22.3096 12.6905 26.2084 17.5 26.2084C19.2799 26.2084 20.9351 25.6744 22.3141 24.7579C22.9615 24.3276 22.6262 23.4266 21.8499 23.3859C21.6491 23.3754 21.4515 23.4332 21.2812 23.5401C20.1853 24.2276 18.8891 24.6251 17.5 24.6251C13.565 24.6251 10.375 21.4351 10.375 17.5001Z" fill="#92C02C"/>
</svg>
