<svg width="16" height="16" viewBox="0 0 16 16" fill="none" xmlns="http://www.w3.org/2000/svg">
<path fill-rule="evenodd" clip-rule="evenodd" d="M15.787 0.213033C16.0043 0.430366 16.0615 0.760858 15.93 1.03863L9.04004 15.584C8.90854 15.8617 8.61679 16.0267 8.31111 15.9964C8.00542 15.9662 7.75172 15.7471 7.67722 15.4491L6.25195 9.74805L0.5509 8.32278C0.252891 8.24828 0.0338263 7.99458 0.00355749 7.68889C-0.0267113 7.3832 0.138344 7.09146 0.415954 6.95996L14.9614 0.0700294C15.2391 -0.061545 15.5696 -0.00429909 15.787 0.213033ZM2.87517 7.40454L7.02807 8.44277C7.28864 8.50791 7.49209 8.71136 7.55723 8.97193L8.59546 13.1248L13.7437 2.25629L2.87517 7.40454Z" fill="#92C02C"/>
</svg>
