<svg width="152" height="160" viewBox="0 0 152 160" fill="none" xmlns="http://www.w3.org/2000/svg">
<path d="M84.2388 8.85024C76.837 9.27472 71.2053 8.51067 65.6539 9.69919C58.8153 11.1424 52.9422 14.3684 48.4367 19.9714C43.2877 26.3385 42.2418 33.7243 43.69 41.7893C44.1727 44.2512 44.414 46.7981 44.6554 49.3449C44.8968 51.9766 44.0118 53.9292 41.4372 54.7781C39.0236 55.5422 38.5409 57.2401 38.9432 59.702C39.5063 63.1827 40.3109 66.5785 41.4372 69.8893C42.0004 71.5023 42.8854 72.6909 44.7359 72.4362C47.954 72.0117 49.3217 74.1341 50.0458 76.8507C51.3331 81.5199 53.264 85.7646 56.3212 89.3302C61.2289 95.103 67.3435 98.4139 74.5039 99.7722C77.1589 100.282 79.6529 99.093 82.0666 98.1592C91.2383 94.4238 97.6747 87.8021 100.33 77.6996C101.215 74.3039 102.824 71.9268 106.525 72.0117C107.973 72.0117 108.697 71.0779 109.099 69.7196C110.145 66.154 110.95 62.5884 111.432 58.8531C111.674 56.7307 111.11 55.1177 109.019 54.3537C106.042 53.25 105.237 51.0428 105.881 47.8168C106.525 44.8455 106.766 41.7044 107.168 38.7331C108.134 31.1775 104.916 25.8291 99.2837 21.7542C98.0769 20.8204 96.6287 20.1412 95.5024 19.2074C93.8129 17.7642 93.3301 15.9814 94.4565 13.859C95.5024 11.9064 97.1919 11.482 99.1228 12.0762C106.927 14.3684 114.972 24.9802 115.294 33.6394C115.375 36.6107 115.455 39.582 114.811 42.5533C114.248 45.4397 114.57 47.8168 116.984 49.9392C120.282 52.8256 119.719 57.0703 119.317 60.8905C118.915 64.9655 117.869 69.0404 116.581 72.9455C115.455 76.5111 113.283 79.0579 109.904 80.1616C108.375 80.6709 107.651 81.6897 107.088 83.1329C102.18 96.4613 92.606 104.187 79.8138 107.752C76.5957 108.686 73.2166 108.686 69.9984 107.667C58.2521 103.762 48.9195 96.8009 44.0118 84.4912C43.1268 82.2839 41.8395 80.5011 39.5063 79.7371C37.2536 79.0579 35.725 77.36 34.7595 75.1528C32.4264 69.7196 30.9782 63.9467 30.7368 58.0041C30.5759 54.3537 31.7827 51.2975 34.4377 49.0053C36.0468 47.647 36.2077 46.1189 35.8055 44.2512C34.9205 39.8367 34.6791 35.4222 35.1618 31.0077C37.0927 13.5194 52.6204 2.22848 67.5044 0.615485C76.998 -0.403249 86.572 0.191012 96.146 0.0212236C99.2837 -0.0636708 101.215 1.63422 101.295 4.09616C101.456 6.64299 99.7665 8.59556 96.5483 8.68045C91.882 9.02003 87.1352 8.85024 84.2388 8.85024Z" fill="white" fill-opacity="0.2"/>
<path d="M39.1845 138.145C39.1845 143.663 39.1845 149.181 39.1845 154.699C39.1845 156.567 38.7822 158.264 37.0927 159.368C34.1964 161.066 31.3 159.113 31.2196 155.208C31.1391 145.955 31.2196 136.786 31.2196 127.533C31.2196 123.712 31.1391 123.712 28.0014 125.41C23.7373 127.702 19.3928 129.825 15.4505 132.966C9.97967 137.38 8.77286 143.493 8.37059 150.115C8.20968 152.152 8.20968 154.105 7.88786 156.142C7.48559 158.519 6.19833 160.047 3.7847 159.877C1.29062 159.623 -0.0770949 157.925 0.00335918 155.378C0.566538 138.06 2.49744 130.759 17.301 121.505C18.9905 120.402 20.841 119.468 22.6914 118.619C29.4496 115.563 35.2423 111.063 39.9891 105.121C40.4718 104.441 41.1154 103.932 41.6786 103.253C45.4599 99.2629 48.1954 99.7723 50.2872 104.866C52.7813 110.893 55.1949 116.921 57.6085 123.033C61.5508 132.796 65.493 142.559 69.3548 152.322C69.5157 152.831 69.7571 153.341 69.918 153.765C70.7225 156.227 70.0789 158.264 67.9066 159.368C65.5735 160.557 63.723 159.368 62.6771 157.161C60.5853 152.322 58.6544 147.483 56.7235 142.559C53.0226 133.475 49.4022 124.392 45.7013 115.393C44.5749 112.591 43.8509 112.506 42.0004 114.714C40.15 116.921 39.1041 119.468 39.1845 122.524C39.265 127.787 39.1845 132.966 39.1845 138.145Z" fill="white" fill-opacity="0.2"/>
<path d="M97.2724 159.962C92.4452 159.962 87.6179 160.047 82.7907 159.962C79.1703 159.877 77.8025 158.519 77.7221 154.784C77.6416 146.804 77.6416 138.908 77.7221 130.928C77.8025 127.023 79.4921 125.495 83.2734 125.41C84.802 125.41 86.2502 125.41 87.7788 125.41C90.6752 125.495 93.652 126.005 93.9738 121.335C94.0543 119.722 95.7438 118.704 97.3529 118.788C99.2033 118.873 100.812 119.977 101.054 121.93C101.456 125.156 103.387 125.495 105.801 125.41C108.214 125.325 110.628 125.071 113.041 125.41C115.535 125.75 116.903 127.108 116.903 129.74C116.984 138.314 116.984 146.889 116.903 155.463C116.903 158.434 115.294 159.877 112.559 159.962C107.571 159.962 102.421 159.962 97.2724 159.962ZM97.5942 151.473C97.5942 151.558 97.5942 151.558 97.5942 151.473C100.33 151.473 102.985 151.303 105.72 151.558C108.456 151.728 109.26 150.539 109.099 147.822C108.938 144.681 109.099 141.455 109.019 138.314C108.938 136.871 109.823 134.579 107.892 134.154C105.64 133.56 103.065 132.966 100.973 134.749C97.5138 137.72 97.2724 137.72 93.7324 134.749C91.8016 133.136 89.4684 133.56 87.3766 134.069C85.4457 134.579 86.1698 136.701 86.1698 138.144C86.0893 141.625 86.1698 145.106 86.1698 148.586C86.1698 150.624 86.8939 151.473 88.8247 151.473C91.8016 151.473 94.6979 151.473 97.5942 151.473Z" fill="white" fill-opacity="0.2"/>
<path d="M151.579 153.341C151.418 154.699 151.418 155.887 151.177 156.991C150.694 158.944 149.407 160.047 147.395 159.962C145.304 159.877 143.936 158.774 143.614 156.651C143.212 154.274 142.97 151.812 142.97 149.351C142.89 141.37 139.591 135.343 133.316 131.013C129.454 128.297 125.27 126.259 121.087 124.222C116.34 121.845 111.915 119.043 108.616 114.544C107.651 113.27 106.846 112.846 105.961 114.629C104.755 117.006 102.824 117.94 100.41 116.581C97.8356 115.223 98.077 112.846 98.9619 110.554C99.9274 108.092 100.812 105.63 102.019 103.338C103.628 100.112 106.122 99.7722 108.697 102.149C110.226 103.677 111.915 105.121 113.122 106.903C116.501 111.912 121.328 114.798 126.477 117.345C132.431 120.232 138.224 123.288 143.051 128.127C147.234 132.287 149.889 137.211 150.453 143.323C150.694 146.719 151.177 150.115 151.579 153.341Z" fill="white" fill-opacity="0.2"/>
<path d="M100.732 37.4597C100.651 39.3273 99.8469 40.6857 98.077 41.2799C96.2265 41.8742 94.3761 41.4497 93.652 39.6669C91.7211 35.4222 88.4224 34.9977 84.6411 35.0826C79.492 35.2524 74.4234 35.1675 69.2744 35.0826C63.723 34.9128 59.7808 32.1113 57.3672 26.8479C56.3213 24.4708 56.4017 22.1787 58.7349 20.7355C61.1485 19.2922 63.0794 20.4808 64.2862 22.688C65.8953 25.8291 68.4698 26.6781 71.5271 26.6781C77.2393 26.5932 82.9516 26.5932 88.6638 26.6781C93.8933 26.763 97.5138 29.5645 99.9274 34.3186C100.651 35.592 100.812 36.4409 100.732 37.4597Z" fill="white" fill-opacity="0.2"/>
</svg>
