<svg width="60" height="61" viewBox="0 0 60 61" fill="none" xmlns="http://www.w3.org/2000/svg">
<path d="M60 30.4136C60 46.9821 46.5685 60.4136 30 60.4136C13.4315 60.4136 0 46.9821 0 30.4136C0 13.845 13.4315 0.413574 30 0.413574C46.5685 0.413574 60 13.845 60 30.4136Z" fill="#ED6F73"/>
<path d="M23.9841 17.6689C24.6269 17.9315 25.0191 17.4829 25.4767 16.925C27.5357 14.365 31.4578 13.6539 34.2903 15.2949C34.5191 15.4262 34.7043 15.4043 34.944 15.3496C38.2014 14.6057 41.143 15.1746 43.5833 17.5705C44.8253 18.7848 45.3918 20.3602 45.6097 22.0669C45.6315 22.2638 45.686 22.3951 45.8603 22.4935C49.0959 24.4081 49.8912 28.6419 47.952 31.738C47.5707 32.3506 47.4836 32.9742 47.4182 33.6306C47.2221 35.4905 46.2525 36.7376 44.4658 37.3175C44.0954 37.4378 43.7141 37.5582 43.3328 37.6457C43.0277 37.7113 42.9623 37.7988 43.1475 38.0942C43.9428 39.3742 44.5312 40.7527 45.0105 42.1858C45.2829 42.9954 45.1848 43.3127 44.5312 43.8706C43.9755 44.3411 43.3545 44.7021 42.6464 44.899C42.0363 45.0741 41.6332 44.9428 41.2846 44.3958C40.4239 43.0829 39.5306 41.792 38.5065 40.5995C38.1361 40.1729 37.7657 39.8337 37.1229 39.79C35.7829 39.7134 34.7588 38.9804 33.8654 38.0176C33.811 37.9629 33.7565 37.8973 33.702 37.8317C33.288 37.3503 33.288 37.3503 32.7215 37.6129C31.3379 38.2583 29.9216 38.2474 28.5054 37.777C28.1349 37.6566 27.9388 37.7223 27.6774 38.0067C25.0082 40.8949 20.9228 41.5951 17.491 39.7353C17.1969 39.5821 17.0661 39.604 16.8809 39.8775C15.6281 41.792 14.3534 43.7065 13.0787 45.6101C12.9698 45.7852 12.85 45.9493 12.7083 46.0915C12.3488 46.4525 11.8368 46.4853 11.4446 46.2009C11.0415 45.9164 10.889 45.4132 11.0851 44.9647C11.1613 44.7896 11.2703 44.6255 11.3683 44.4723C12.6648 42.5141 13.9612 40.5558 15.2685 38.6084C15.4537 38.3349 15.4429 38.1708 15.2141 37.9192C11.7714 34.0573 12.6321 27.9964 17.0334 25.2067C17.3167 25.0317 17.4365 24.8238 17.491 24.4956C17.8505 22.1872 18.7657 20.1742 20.6613 18.7301C21.5982 18.0081 22.6768 17.6689 23.9841 17.6689ZM46.7536 29.3858C46.8081 29.2436 46.8299 29.1889 46.8408 29.1233C47.3201 27.1322 46.3723 25.0317 44.5312 24.1236C43.8993 23.8173 43.6269 23.4016 43.5942 22.7014C43.5289 21.312 43.0713 20.0758 42.1344 19.0036C40.62 17.297 36.7852 16.2905 34.225 17.9205C32.7978 18.8286 31.7192 19.9226 31.3597 21.6183C31.1091 22.8436 31.2399 24.0361 31.6212 25.2176C31.8282 25.8631 31.5776 26.432 31.0111 26.618C30.4446 26.804 29.9107 26.4976 29.682 25.8631C29.3878 25.0426 29.2898 24.1893 29.1808 23.3359C29.1372 23.0296 29.3878 22.5701 28.9847 22.4279C28.6797 22.3185 28.331 22.5482 28.0151 22.6795C27.4268 22.9311 26.8385 22.7233 26.5988 22.1982C26.3591 21.6621 26.5879 21.1041 27.1762 20.8088C27.819 20.4915 28.5053 20.3274 29.2244 20.3055C29.4967 20.3055 29.6384 20.207 29.7364 19.9445C30.0959 19.0255 30.6407 18.2269 31.3379 17.5376C31.643 17.2313 31.9916 16.9688 32.3402 16.6624C32.2531 16.6296 32.1986 16.5968 32.1332 16.5858C29.9107 16.017 27.4922 17.111 26.4136 19.1568C26.0105 19.9335 25.6619 20.0867 24.8339 19.846C23.5701 19.485 22.4698 19.8023 21.5111 20.6775C20.6286 21.487 20.1057 22.5045 19.768 23.6423C19.6372 24.0689 19.659 24.0799 20.0948 24.0252C23.2542 23.5657 25.9342 24.5175 27.9715 26.99C30.0088 29.4734 30.4228 32.3069 29.3442 35.3482C29.159 35.8624 29.159 35.8624 29.7037 35.9718C31.0656 36.2453 32.1877 35.8296 33.1028 34.7903C33.8981 33.8932 34.8242 33.1493 35.9027 32.6241C36.9159 32.1209 37.9945 31.8364 39.1275 31.8693C39.9555 31.9021 40.4457 32.646 40.0971 33.3571C39.8792 33.8057 39.487 33.9479 39.0185 33.9479C37.417 33.937 36.1533 34.6809 35.0312 35.753C34.9113 35.8624 34.835 35.9718 34.9658 36.1359C35.7175 37.0768 36.5455 37.8864 37.8964 37.777C38.2232 37.7551 38.5065 37.8645 38.7789 38.0505C39.073 38.2583 39.3345 38.4881 39.585 38.7397C40.6636 39.8556 41.557 41.1137 42.4285 42.3828C42.5048 42.5031 42.5484 42.7329 42.788 42.6125C43.0277 42.4922 42.9079 42.3171 42.8534 42.153C42.3523 40.7746 41.6768 39.4727 40.8706 38.2583C40.4893 37.6785 40.5002 37.2737 40.9033 36.7158C41.3064 36.1469 41.9274 35.9171 42.5592 35.7311C43.0495 35.5889 43.5615 35.4576 44.0518 35.2935C44.7055 35.0747 45.1412 34.6371 45.3264 33.9698C45.5443 33.1711 45.577 32.3397 45.4136 31.5739C45.0432 29.8235 43.9755 28.631 42.2215 28.1387C40.7072 27.712 39.2037 27.8323 37.7003 28.1715C37.4933 28.2153 37.2863 28.3028 37.0575 28.259C36.5673 28.1824 36.2186 27.7995 36.1642 27.3182C36.1206 26.8477 36.4256 26.3992 36.9377 26.246C37.8855 25.9725 38.8551 25.8412 39.8356 25.8084C40.1842 25.7975 40.3041 25.7428 40.1625 25.3708C39.8574 24.5612 39.8465 23.7079 39.9119 22.8655C39.9664 22.1763 40.4675 21.7168 41.0558 21.7824C41.6768 21.859 42.0472 22.406 41.9601 23.0952C41.8293 24.1674 42.1235 25.1192 42.7553 25.9835C42.8425 26.1038 42.9623 26.2023 43.104 26.246C44.6728 26.804 45.893 27.8105 46.7536 29.3858ZM21.522 25.9835C18.0248 25.9725 15.1596 28.7841 15.1487 32.2631C15.1378 35.8405 17.9159 38.6741 21.4457 38.6959C24.9537 38.7178 27.819 35.9062 27.8408 32.4382C27.8626 28.8388 25.0845 26.0053 21.522 25.9835Z" fill="white"/>
<path d="M23.8312 36.5191C20.7916 36.2018 18.4166 34.3529 17.7194 31.0927C17.5995 30.5129 17.5341 29.9331 17.545 29.3423C17.5668 28.5984 17.9264 28.1717 18.5582 28.1717C19.201 28.1717 19.5714 28.5984 19.5932 29.3314C19.615 30.0425 19.7022 30.7427 19.9418 31.421C20.5628 33.1495 21.8266 34.0685 23.5697 34.4076C23.7331 34.4404 23.8965 34.4623 24.0491 34.4951C24.6918 34.6155 25.0296 35.064 24.9533 35.6876C24.8879 36.2127 24.4304 36.5519 23.8312 36.5191Z" fill="white"/>
</svg>
