<svg width="35" height="35" viewBox="0 0 35 35" fill="none" xmlns="http://www.w3.org/2000/svg">
<circle cx="17.5" cy="17.5" r="17.5" fill="#E7F5FB"/>
<path d="M26.9986 10.8936C26.9768 11.5021 27.0532 12.2193 26.8895 12.9201C26.4091 14.9411 25.1972 16.3156 23.243 17.0382C23.0738 17.1034 22.981 17.1469 23.0137 17.3696C23.0792 17.826 22.9209 18.228 22.5552 18.5268C22.4406 18.6192 22.4078 18.7224 22.4078 18.8582C22.4133 19.4938 22.4023 20.1349 22.4133 20.7706C22.4351 22.2918 21.8838 23.6119 20.9339 24.7746C20.0605 25.8449 18.9633 26.5729 17.5877 26.8662C14.2579 27.5834 10.928 25.3396 10.3494 21.993C10.2511 21.4334 10.2729 20.8684 10.2675 20.3088C10.262 19.8741 10.262 19.4395 10.2675 19.0049C10.2729 18.8528 10.2184 18.793 10.0764 18.7495C8.94101 18.4344 8.2532 17.701 8.04031 16.5492C7.76191 15.0498 8.96284 13.572 10.4913 13.4579C11.916 13.3547 13.177 14.3652 13.3899 15.7669C13.581 17.0165 12.784 18.3041 11.5285 18.6952C11.3265 18.7604 11.2664 18.8419 11.2719 19.0484C11.2992 19.7927 11.2501 20.5424 11.3047 21.2867C11.4466 23.3403 12.7949 25.0734 14.7655 25.7253C17.0364 26.4751 19.4219 25.5352 20.6555 23.4055C21.1577 22.5417 21.4143 21.6235 21.3979 20.6293C21.3925 20.0915 21.3925 19.559 21.3979 19.0212C21.3979 18.8854 21.3597 18.8147 21.2287 18.7604C20.6446 18.5214 20.3662 18.0976 20.3771 17.462C20.3826 17.299 20.3171 17.2446 20.1697 17.2066C17.7951 16.5764 16.3704 15.0552 15.89 12.6593C15.8409 12.4203 15.83 12.1758 15.83 11.9313C15.8354 11.149 15.8573 10.3667 15.8245 9.58976C15.7863 8.6879 16.5123 7.9436 17.4294 8.00337C17.7733 8.0251 18.1118 8.01423 18.4174 8.20438C18.876 8.49232 19.1325 8.89979 19.138 9.4485C19.1435 9.80164 19.1435 10.1548 19.138 10.5079C19.1325 11.3065 18.4939 11.9368 17.6914 11.9476C17.4731 11.9476 17.2547 11.9585 17.0364 11.9259C16.8835 11.9042 16.8671 11.9476 16.8726 12.078C16.9054 12.7625 17.091 13.4036 17.4349 13.9958C18.2373 15.3703 19.4491 16.1363 21.0322 16.3156C21.5726 16.0983 22.1512 16.3374 22.6971 16.1526C23.2321 15.9734 23.7397 15.7452 24.1819 15.3975C25.2627 14.55 25.8687 13.4471 25.9615 12.0726C25.9724 11.9476 25.956 11.9042 25.8086 11.9259C25.5248 11.9748 25.2355 11.9693 24.9516 11.9368C24.2583 11.8607 23.7015 11.2359 23.6906 10.5459C23.6852 10.1656 23.6852 9.78534 23.6906 9.40504C23.7015 8.65531 24.3402 8.01966 25.0935 8.0088C25.5029 8.00337 25.9123 7.97077 26.2835 8.20981C26.7312 8.50319 26.9877 8.90522 26.9932 9.44307C27.0041 9.894 26.9986 10.3395 26.9986 10.8936ZM10.7097 17.7988C11.6431 17.7988 12.3855 17.0654 12.3964 16.1363C12.4019 15.2291 11.6322 14.4685 10.7097 14.4685C9.79804 14.4685 9.03927 15.2236 9.03381 16.1255C9.02289 17.0491 9.78166 17.7988 10.7097 17.7988ZM18.1281 9.98636C18.1281 9.82337 18.1336 9.66039 18.1281 9.4974C18.1117 9.20946 17.9371 9.03561 17.6478 9.01388C17.544 9.00844 17.4458 9.00844 17.3421 9.01388C17.0418 9.03017 16.8617 9.20946 16.8562 9.50827C16.8453 9.81794 16.8453 10.133 16.8562 10.4427C16.8671 10.7415 17.0473 10.9154 17.3475 10.9371C17.4512 10.9425 17.5495 10.9425 17.6532 10.9371C17.9371 10.9154 18.1172 10.7415 18.1336 10.4536C18.1336 10.296 18.1281 10.1439 18.1281 9.98636ZM25.9833 9.99179C25.9888 9.99179 25.9888 9.99179 25.9833 9.99179C25.9833 9.85053 25.9888 9.70928 25.9833 9.56259C25.9778 9.19859 25.7922 9.01931 25.421 9.01388C25.3392 9.01388 25.2573 9.00844 25.1754 9.01388C24.897 9.03561 24.7169 9.20403 24.7059 9.4811C24.695 9.80707 24.695 10.133 24.7059 10.459C24.7169 10.747 24.9025 10.9154 25.1918 10.9371C25.2955 10.9425 25.3938 10.9425 25.4975 10.9371C25.7868 10.9154 25.9615 10.7415 25.9778 10.459C25.9942 10.3015 25.9833 10.1439 25.9833 9.99179Z" fill="#92C02C"/>
<path d="M10.7315 15.4246C11.13 15.4246 11.4575 15.756 11.452 16.1526C11.4466 16.5438 11.13 16.8643 10.7369 16.8698C10.3439 16.8752 10 16.5384 10 16.1472C10 15.756 10.333 15.4246 10.7315 15.4246Z" fill="#92C02C"/>
</svg>
