<svg width="14" height="16" viewBox="0 0 14 16" fill="none" xmlns="http://www.w3.org/2000/svg">
<path d="M13.9982 12.8468C13.9982 13.1916 13.9982 13.5322 13.9982 13.8771C13.9982 15.165 13.0057 16.1298 11.8371 15.9857C10.9207 15.8722 10.0202 15.6583 9.14781 15.3396C8.14731 14.9772 7.19884 14.4926 6.3024 13.8858C5.39795 13.2746 4.56153 12.5673 3.81716 11.7378C2.42847 10.1967 1.39996 8.40676 0.719623 6.38105C0.363446 5.32017 0.135333 4.22873 0.0152734 3.10672C-0.11279 1.9105 0.575552 0.919473 1.66409 0.714282C1.71212 0.705551 1.76414 0.696819 1.81217 0.696819C2.53252 0.696819 3.25288 0.683722 3.97324 0.701185C4.80966 0.718648 5.57804 1.44337 5.73411 2.38201C5.85417 3.08489 6.01025 3.77469 6.20635 4.46011C6.42646 5.23722 6.25838 5.94884 5.72611 6.53822C5.61406 6.66046 5.502 6.78707 5.38594 6.90931C5.3059 6.98789 5.2979 7.05774 5.35793 7.16252C5.96623 8.15792 6.69859 9.02234 7.57503 9.73833C7.73511 9.8693 7.90319 9.98717 8.06327 10.1181C8.16332 10.2011 8.23135 10.1924 8.3194 10.092C8.48748 9.90422 8.64356 9.70776 8.83966 9.5506C9.39193 9.10965 9.99223 8.98305 10.6406 9.2319C11.2128 9.45018 11.7971 9.60735 12.3974 9.70776C13.3179 9.86493 13.9942 10.7337 13.9982 11.7553C14.0022 12.1133 13.9982 12.48 13.9982 12.8468ZM12.7056 12.8468C12.7056 12.5237 12.7056 12.205 12.7056 11.8819C12.7056 11.3755 12.5415 11.1528 12.0773 11.0742C11.453 10.9651 10.8447 10.8036 10.2484 10.5678C9.97622 10.4587 9.74011 10.5198 9.536 10.7468C9.30389 11.0044 9.07177 11.2576 8.83566 11.5108C8.5195 11.8557 8.25537 11.8863 7.86717 11.6374C6.97073 11.0568 6.16233 10.367 5.44997 9.53313C4.85768 8.84334 4.34542 8.0968 3.91721 7.2804C3.76113 6.97916 3.78915 6.67356 4.00926 6.42471C4.25738 6.1453 4.5015 5.86589 4.75763 5.59958C5.00175 5.34636 5.04577 5.05386 4.93372 4.71769C4.72161 4.09339 4.57754 3.44725 4.48549 2.78802C4.41746 2.31652 4.20936 2.10696 3.77314 2.1026C3.17284 2.09823 2.57254 2.09823 1.97225 2.1026C1.52802 2.11133 1.25989 2.44313 1.30792 2.92773C1.36795 3.51274 1.45599 4.09339 1.59206 4.6653C1.92822 6.09727 2.46849 7.4332 3.20886 8.67308C3.90521 9.83874 4.74162 10.8647 5.73812 11.7291C7.17883 12.9821 8.78763 13.8596 10.5885 14.318C11.0768 14.4403 11.565 14.5581 12.0653 14.5756C12.4414 14.5887 12.6976 14.3049 12.7016 13.8945C12.7056 13.5453 12.7056 13.196 12.7056 12.8468Z" fill="#92C02C"/>
<path d="M8.31966 0.00256793C8.77989 0.0549571 9.22812 0.159735 9.66433 0.321269C10.7529 0.718553 11.6853 1.39088 12.4417 2.32952C13.2701 3.35984 13.7784 4.55606 13.9665 5.91381C13.9825 6.02296 13.9945 6.1321 13.9945 6.23688C13.9985 6.60797 13.7544 6.90048 13.4102 6.94413C13.11 6.98343 12.7979 6.74767 12.7299 6.40714C12.6658 6.06661 12.6338 5.71735 12.5378 5.38119C12.3136 4.57789 11.9575 3.85317 11.4372 3.22887C10.6728 2.30333 9.72436 1.72704 8.60781 1.47383C8.46774 1.44327 8.31966 1.43017 8.17959 1.39961C7.81141 1.32103 7.5913 0.993596 7.62732 0.613775C7.66734 0.295074 7.95949 -0.0323582 8.31966 0.00256793Z" fill="#92C02C"/>
<path d="M7.63115 3.51705C7.63515 3.04554 8.01134 2.70938 8.41154 2.80106C9.20393 2.98442 9.88827 3.38607 10.4486 4.03221C10.9528 4.61722 11.281 5.29391 11.425 6.07538C11.5011 6.48577 11.301 6.83066 10.9328 6.93107C10.6086 7.01839 10.2765 6.8001 10.1764 6.41155C10.0924 6.07975 10.0043 5.75232 9.83625 5.45545C9.47607 4.82678 8.96782 4.41203 8.30749 4.2243C8.09938 4.16318 7.88728 4.11516 7.75121 3.90123C7.67117 3.77899 7.63115 3.63492 7.63115 3.51705Z" fill="#92C02C"/>
</svg>
