<svg width="40" height="40" viewBox="0 0 40 40" fill="none" xmlns="http://www.w3.org/2000/svg">
<circle cx="20" cy="20" r="20" fill="#4D77A5"/>
<path d="M20.9238 16.418C20.9238 17.1436 20.9227 17.8703 20.9238 18.596C20.9238 18.7911 20.9316 18.995 21.1258 19.1046C21.3378 19.2251 21.5277 19.1177 21.7042 19.0004C22.2337 18.6464 22.5867 18.1323 22.9442 17.6292C23.7412 16.5046 24.4339 15.3175 24.9601 14.0449C25.1477 13.5922 25.4208 13.373 25.9325 13.396C26.6252 13.4267 27.319 13.3971 28.0129 13.4059C28.7111 13.4147 28.9997 13.8224 28.7455 14.4691C28.1727 15.9237 27.3013 17.2094 26.3988 18.4765C26.2156 18.7341 26.048 19.0026 25.8648 19.2602C25.6062 19.6241 25.6706 19.9354 25.9714 20.25C26.6486 20.9559 27.3035 21.6815 27.9784 22.3885C28.498 22.9333 28.9009 23.5526 29.234 24.2179C29.5004 24.7506 29.2118 25.2932 28.609 25.3151C27.7087 25.348 26.8062 25.3294 25.9048 25.3162C25.5917 25.3118 25.3853 25.1255 25.2043 24.869C24.4361 23.7838 23.4726 22.8828 22.4291 22.0597C22.3747 22.0169 22.3147 21.9818 22.2548 21.9468C21.6087 21.5719 21.2946 21.7341 21.2701 22.4685C21.2546 22.9333 21.2679 23.4002 21.2635 23.866C21.2557 24.7111 20.7151 25.2329 19.867 25.2658C17.8066 25.3458 16.1315 24.4733 14.6318 23.1974C13.1353 21.9237 12.1474 20.2642 11.1738 18.6025C10.4367 17.3409 9.81616 16.0278 9.4243 14.6171C9.16786 13.692 9.44095 13.3358 10.4178 13.3347C11.0006 13.3336 11.5823 13.339 12.1651 13.3336C12.6247 13.3292 12.9189 13.5276 13.0743 13.9627C13.4817 15.0994 13.908 16.2295 14.4719 17.3015C14.9282 18.1674 15.4477 18.9906 16.1504 19.6866C16.2481 19.7831 16.3513 19.8784 16.4679 19.9497C16.7787 20.1415 16.9874 20.0593 17.0973 19.7118C17.1261 19.6208 17.1495 19.5244 17.1483 19.4301C17.1328 18.1992 17.2194 16.9661 17.0706 15.7362C16.9974 15.1356 16.6566 14.6719 16.3224 14.1995C16.197 14.023 16.0149 13.8542 16.1359 13.6109C16.258 13.3643 16.5045 13.4048 16.7221 13.4037C17.8177 13.4015 18.9145 13.4004 20.0102 13.4037C20.7073 13.4059 20.9171 13.6186 20.9205 14.3223C20.9238 15.0205 20.9216 15.7198 20.9216 16.418H20.9238Z" fill="white"/>
</svg>
