<svg width="160" height="128" viewBox="0 0 160 128" fill="none" xmlns="http://www.w3.org/2000/svg">
<path d="M80.1841 103.994C62.5594 104.086 47.0919 101.152 32.1293 95.6065C29.9721 94.8273 29.9721 94.8274 29.3754 96.9815C27.0347 105.323 25.6577 113.848 25.0152 122.465C24.7857 125.948 22.1236 127.919 19.2321 126.911C17.3044 126.223 16.1569 124.39 16.3405 122.144C17.7174 104.269 22.1236 87.1732 29.8803 70.9939C31.3031 68.0606 33.2767 67.2814 36.3519 68.3814C47.6886 72.5064 59.3007 75.6689 71.28 77.1814C79.9546 78.2815 88.5375 77.5939 97.1203 76.1273C106.346 74.5231 115.296 71.8648 123.925 68.1523C126.77 66.9147 128.652 67.6481 130.534 70.6273C135.766 79.0606 139.438 88.1815 142.054 97.7149C143.982 104.636 145.129 111.694 145.818 118.798C145.864 119.119 145.864 119.486 145.864 119.807C145.91 122.648 144.303 124.665 141.779 124.848C139.346 124.986 137.373 123.198 137.143 120.311C136.868 116.461 136.363 112.702 135.72 108.898C134.986 104.544 133.838 100.282 132.599 96.0649C132.186 94.7357 131.635 94.5065 130.396 94.9649C121.354 98.1732 112.083 100.465 102.582 101.977C94.5959 103.261 86.6557 104.132 80.1841 103.994ZM79.6333 95.4232C85.5082 95.194 92.3929 94.7815 99.2775 93.7273C108.824 92.2607 118.141 90.0148 127.275 86.8982C128.514 86.4856 128.973 86.0273 128.285 84.6981C127.229 82.7273 126.219 80.7106 125.301 78.694C124.751 77.5023 124.108 77.2731 122.869 77.7773C118.6 79.4731 114.24 80.894 109.788 82.0398C93.8616 86.2565 77.8433 87.769 61.5038 84.2856C53.4717 82.5898 45.5773 80.5731 37.7747 77.9148C36.5355 77.5023 36.0306 77.7315 35.6175 78.9231C34.929 80.8481 34.1488 82.7731 33.2767 84.6523C32.6342 85.9815 32.9095 86.6232 34.3324 87.1732C48.6065 92.6732 63.3856 95.2857 79.6333 95.4232Z" fill="white" fill-opacity="0.2"/>
<path d="M111.211 33.4105C111.211 22.3647 113.093 12.6479 116.764 3.25206C117.453 1.51039 118.6 0.364548 120.482 0.0437134C122.089 -0.185454 123.42 0.502049 124.383 1.73955C125.531 3.20623 125.393 4.85624 124.797 6.46041C122.823 11.5479 121.4 16.773 120.666 22.1813C119.059 34.2814 119.702 46.0606 125.714 57.0607C126.036 57.6107 126.265 58.2065 126.495 58.8023C127.275 61.0023 126.357 63.3398 124.292 64.3024C122.318 65.219 119.84 64.5774 118.784 62.5148C115.112 55.2273 111.899 47.8023 111.532 39.4147C111.44 37.1689 111.165 34.8314 111.211 33.4105Z" fill="white" fill-opacity="0.2"/>
<path d="M49.7999 34.2357C50.1212 42.2565 47.2297 49.6357 43.8332 56.8774C43.053 58.5274 42.3186 60.2233 41.5384 61.8733C40.3909 64.2566 38.096 65.1733 35.847 64.2566C33.644 63.34 32.6342 60.9566 33.644 58.5274C34.7914 55.6858 36.0765 52.8441 37.4535 50.0941C41.5384 41.7982 41.8596 33.1815 40.2073 24.2898C39.1517 18.6064 37.4994 13.0606 35.2504 7.69803C35.0668 7.28552 34.8832 6.82719 34.7455 6.41469C33.9652 3.98551 34.9291 1.69383 37.0863 0.868826C39.3353 -0.0020116 41.676 0.868826 42.6858 3.1605C46.2658 11.273 48.6525 19.7064 49.5245 28.5523C49.6622 30.3856 49.8458 32.219 49.7999 34.2357Z" fill="white" fill-opacity="0.2"/>
<path d="M19.5992 44.5023C15.8815 44.5023 12.531 44.5023 9.13456 44.5023C7.48224 44.5023 5.82993 44.5482 4.13172 44.5023C1.60735 44.4107 -0.0449652 42.669 0.000932406 40.194C0.04683 37.8106 1.69914 36.069 4.13172 36.069C8.2625 36.0231 12.3933 36.0231 16.5241 36.069C17.5797 36.069 18.1305 36.069 17.6256 34.6939C16.8913 32.7689 17.7174 30.7981 19.3697 29.7898C21.0679 28.7356 23.3169 28.9189 24.7397 30.4314C27.2182 33.0439 29.6967 35.7023 32.0375 38.4065C33.7816 40.4231 33.6898 42.6232 31.8539 44.594C29.7426 46.8399 27.5395 49.0399 25.3364 51.194C23.2251 53.3024 20.7926 53.4857 18.9566 51.7899C17.1666 50.1399 17.1666 47.7107 18.9108 45.4648C19.0484 45.2357 19.1861 45.0523 19.5992 44.5023Z" fill="white" fill-opacity="0.2"/>
<path d="M140.585 44.6399C141.044 45.2815 141.457 45.7399 141.779 46.2899C142.926 48.169 142.559 50.5066 140.907 51.8816C139.3 53.2107 136.959 53.3024 135.399 51.7899C132.829 49.3607 130.35 46.794 127.918 44.1815C126.357 42.4857 126.311 40.3315 127.826 38.544C130.304 35.7023 132.875 32.9065 135.491 30.2023C136.868 28.7814 139.117 28.7356 140.723 29.7439C142.284 30.7523 143.11 32.6773 142.421 34.5106C141.916 35.8398 142.329 35.9773 143.569 35.9773C147.516 35.9315 151.463 35.9315 155.456 35.9773C158.256 35.9773 160 37.6273 160 40.194C160 42.7607 158.256 44.4107 155.456 44.4565C150.683 44.5024 145.955 44.4565 141.182 44.5024C141.044 44.5024 140.953 44.5482 140.585 44.6399Z" fill="white" fill-opacity="0.2"/>
<path d="M88.3998 47.5732C88.2621 49.5899 87.3901 50.9191 85.7377 51.6524C84.0395 52.3858 82.3872 52.0649 81.148 50.7816C80.23 49.7733 79.8169 49.9108 78.9449 50.8274C77.522 52.3399 75.2272 52.3858 73.5748 51.2399C71.8766 50.0024 71.28 47.8941 72.0602 46.0607C73.3454 43.0816 77.0172 40.6065 80.0464 40.6065C83.0757 40.6524 86.7934 43.1732 87.9867 46.1066C88.2162 46.6566 88.308 47.2066 88.3998 47.5732Z" fill="white" fill-opacity="0.2"/>
</svg>
