<svg width="35" height="35" viewBox="0 0 35 35" fill="none" xmlns="http://www.w3.org/2000/svg">
<circle cx="17.5" cy="17.5" r="17.5" fill="#E7F5FB"/>
<path d="M18.0207 22.2659C16.0379 22.2767 14.2978 21.9308 12.6145 21.2766C12.3719 21.1847 12.3719 21.1847 12.3047 21.4388C12.0414 22.4227 11.8865 23.4282 11.8142 24.4445C11.7884 24.8554 11.4889 25.0878 11.1636 24.9689C10.9467 24.8878 10.8177 24.6716 10.8383 24.4067C10.9932 22.2984 11.4889 20.2819 12.3615 18.3736C12.5216 18.0276 12.7436 17.9357 13.0896 18.0655C14.365 18.552 15.6713 18.925 17.019 19.1034C17.9949 19.2332 18.9605 19.1521 19.926 18.9791C20.9639 18.7899 21.9708 18.4763 22.9415 18.0384C23.2616 17.8925 23.4733 17.979 23.6851 18.3304C24.2737 19.3251 24.6868 20.4009 24.9811 21.5253C25.198 22.3416 25.327 23.1741 25.4045 24.0121C25.4097 24.0499 25.4097 24.0931 25.4097 24.131C25.4148 24.4662 25.2341 24.704 24.9501 24.7256C24.6764 24.7419 24.4544 24.531 24.4286 24.1905C24.3976 23.7364 24.3408 23.2931 24.2685 22.8444C24.1859 22.3308 24.0568 21.828 23.9174 21.3307C23.8709 21.1739 23.809 21.1469 23.6696 21.2009C22.6524 21.5794 21.6093 21.8497 20.5405 22.0281C19.642 22.1794 18.7488 22.2821 18.0207 22.2659ZM17.9587 21.255C18.6197 21.228 19.3942 21.1793 20.1687 21.055C21.2427 20.882 22.2909 20.6171 23.3184 20.2495C23.4579 20.2008 23.5095 20.1468 23.432 19.99C23.3133 19.7575 23.1997 19.5197 23.0964 19.2818C23.0345 19.1413 22.9622 19.1142 22.8228 19.1737C22.3425 19.3737 21.852 19.5413 21.3512 19.6765C19.5594 20.1738 17.7574 20.3522 15.9192 19.9413C15.0156 19.7413 14.1274 19.5035 13.2497 19.1899C13.1102 19.1413 13.0534 19.1683 13.007 19.3088C12.9295 19.5359 12.8417 19.763 12.7436 19.9846C12.6713 20.1414 12.7023 20.2171 12.8624 20.2819C14.4682 20.9306 16.1309 21.2388 17.9587 21.255Z" fill="#92C02C"/>
<path d="M21.5112 13.9407C21.5112 12.6379 21.7229 11.4918 22.136 10.3836C22.2135 10.1781 22.3425 10.043 22.5542 10.0052C22.735 9.97813 22.8847 10.0592 22.9931 10.2052C23.1222 10.3782 23.1067 10.5728 23.0396 10.762C22.8176 11.3621 22.6575 11.9783 22.5749 12.6162C22.3942 14.0434 22.4665 15.4328 23.1429 16.7302C23.179 16.7951 23.2048 16.8654 23.2307 16.9356C23.3184 17.1951 23.2152 17.4708 22.9828 17.5844C22.7608 17.6925 22.482 17.6168 22.3632 17.3735C21.9501 16.514 21.5887 15.6382 21.5474 14.6489C21.537 14.384 21.5061 14.1083 21.5112 13.9407Z" fill="#92C02C"/>
<path d="M14.6025 14.038C14.6386 14.9841 14.3133 15.8545 13.9312 16.7086C13.8435 16.9032 13.7608 17.1032 13.6731 17.2978C13.544 17.579 13.2858 17.6871 13.0328 17.579C12.7849 17.4708 12.6713 17.1897 12.7849 16.9032C12.914 16.568 13.0586 16.2329 13.2135 15.9085C13.6731 14.93 13.7092 13.9137 13.5233 12.8649C13.4046 12.1946 13.2187 11.5405 12.9657 10.908C12.945 10.8593 12.9244 10.8053 12.9089 10.7566C12.8211 10.4701 12.9295 10.1998 13.1722 10.1025C13.4252 9.99976 13.6886 10.1025 13.8022 10.3728C14.2049 11.3296 14.4734 12.3243 14.5715 13.3677C14.587 13.5839 14.6077 13.8002 14.6025 14.038Z" fill="#92C02C"/>
<path d="M11.2049 15.249C10.7867 15.249 10.4097 15.249 10.0276 15.249C9.84175 15.249 9.65587 15.2544 9.46482 15.249C9.18083 15.2382 8.99494 15.0327 9.0001 14.7408C9.00527 14.4597 9.19115 14.2543 9.46482 14.2543C9.92953 14.2489 10.3942 14.2489 10.859 14.2543C10.9777 14.2543 11.0397 14.2543 10.9829 14.0921C10.9003 13.865 10.9932 13.6326 11.1791 13.5137C11.3701 13.3893 11.6232 13.4109 11.7832 13.5893C12.062 13.8975 12.3409 14.211 12.6042 14.53C12.8004 14.7678 12.7901 15.0273 12.5836 15.2598C12.346 15.5247 12.0982 15.7842 11.8503 16.0382C11.6128 16.2869 11.3392 16.3086 11.1326 16.1085C10.9312 15.9139 10.9312 15.6274 11.1275 15.3625C11.143 15.3355 11.1584 15.3138 11.2049 15.249Z" fill="#92C02C"/>
<path d="M24.8159 15.2652C24.8675 15.3409 24.914 15.3949 24.9501 15.4598C25.0792 15.6815 25.0379 15.9572 24.852 16.1193C24.6713 16.2761 24.4079 16.2869 24.2324 16.1085C23.9432 15.822 23.6644 15.5193 23.3907 15.2111C23.2152 15.0111 23.21 14.757 23.3804 14.5462C23.6592 14.211 23.9484 13.8813 24.2427 13.5623C24.3976 13.3947 24.6506 13.3893 24.8313 13.5082C25.0069 13.6272 25.0998 13.8542 25.0224 14.0705C24.9656 14.2272 25.0121 14.2435 25.1515 14.2435C25.5955 14.2381 26.0396 14.2381 26.4888 14.2435C26.8038 14.2435 27 14.4381 27 14.7408C27 15.0435 26.8038 15.2382 26.4888 15.2436C25.9518 15.249 25.42 15.2436 24.883 15.249C24.8675 15.249 24.8572 15.2544 24.8159 15.2652Z" fill="#92C02C"/>
<path d="M18.945 15.6112C18.9295 15.849 18.8314 16.0058 18.6455 16.0923C18.4544 16.1788 18.2686 16.141 18.1291 15.9896C18.0259 15.8707 17.9794 15.8869 17.8813 15.995C17.7212 16.1734 17.4631 16.1788 17.2772 16.0437C17.0861 15.8977 17.019 15.649 17.1068 15.4328C17.2514 15.0814 17.6644 14.7895 18.0052 14.7895C18.346 14.7949 18.7643 15.0922 18.8985 15.4382C18.9243 15.5031 18.9347 15.5679 18.945 15.6112Z" fill="#92C02C"/>
</svg>
