<svg width="160" height="123" viewBox="0 0 160 123" fill="none" xmlns="http://www.w3.org/2000/svg">
<path d="M80.236 122.863C100.769 122.863 121.214 122.585 141.746 122.955C151.574 123.232 160.173 114.549 159.997 103.463C159.646 78.7983 161.84 84.8029 149.38 62.9093C146.66 58.0133 144.993 53.0249 144.817 47.2975C144.466 36.8588 135.955 27.8057 126.04 27.0667C122.793 26.7896 119.459 26.5124 116.212 26.5124C113.492 26.5124 112.439 25.681 113.053 22.6326C113.843 18.3832 113.58 14.1338 111.561 10.1616C108.052 3.3256 102.611 0.0923778 95.4161 0.0923778C85.5008 0 75.4977 0 65.4946 0C53.3856 0.0923778 45.664 9.6073 47.1556 22.2631C47.6821 26.4201 47.2434 26.882 43.2948 26.9743C39.6972 27.0667 36.0996 26.6972 32.502 27.5286C22.2357 29.838 15.7425 37.5054 15.1283 48.4984C14.865 53.4868 13.5488 58.0133 11.0919 62.1703C8.45954 66.6968 6.0904 71.4081 3.45801 75.9346C1.08886 80.0916 0.29914 84.8029 0.123648 89.5141C-0.0518449 95.6111 -0.139591 101.708 0.562379 107.805C1.52759 115.934 8.54728 122.678 16.7077 122.678C36.0996 122.863 55.5793 122.863 74.9712 122.863C76.7261 122.863 78.4811 122.863 80.236 122.863ZM79.885 110.114C59.6156 110.114 39.3462 110.114 19.0768 110.114C14.3385 110.114 13.2856 108.913 13.1978 103.925C13.1978 99.3986 13.3733 94.8721 13.1101 90.4379C12.8469 85.819 14.0753 82.0315 16.3567 78.0593C21.797 68.452 27.9392 59.0294 28.2025 47.0203C28.2902 41.8472 31.5368 39.7225 36.8893 39.7225C65.5824 39.7225 94.2754 39.7225 123.056 39.7225C129.111 39.7225 131.831 42.4938 132.357 48.8679C132.796 55.242 134.2 61.3389 137.447 66.9739C139.991 71.3157 142.273 75.7498 144.817 80.0916C145.87 81.9391 146.748 83.7867 146.748 85.9114C146.835 92.5626 146.748 99.3062 146.748 105.957C146.748 108.359 145.431 109.56 143.326 109.93C141.834 110.207 140.254 110.207 138.763 110.207C119.108 110.114 99.4524 110.114 79.885 110.114ZM80.3237 26.9743C75.9364 26.9743 71.5491 26.9743 67.1618 26.9743C60.3176 26.9743 59.8789 26.4201 59.9666 19.1222C59.9666 18.6603 59.9666 18.1984 60.0543 17.7365C60.2298 15.0576 61.4583 13.4872 64.0907 13.21C65.4946 13.0253 66.8986 12.7481 68.3025 12.7481C76.7261 12.7481 85.1498 12.7481 93.5734 12.8405C99.5402 12.9329 101.12 14.9652 100.505 21.2469C100.418 22.1707 100.154 23.0945 100.067 24.0182C99.9789 26.4201 98.7505 27.0667 96.6446 27.0667C91.292 26.9743 85.764 26.9743 80.3237 26.9743Z" fill="white" fill-opacity="0.2"/>
<path d="M59.1733 76.7661C59.2611 80.4612 61.718 83.0478 65.4911 83.3249C72.2475 83.8792 72.2475 83.8792 73.125 90.7151C73.7392 95.6112 76.6348 98.752 80.4079 98.4749C84.181 98.1977 86.8134 94.7798 86.9889 89.9761C86.9889 89.7914 86.9889 89.5142 86.9889 89.3295C87.0766 83.3249 87.0766 83.2325 92.6924 83.4173C95.588 83.5097 98.1327 82.863 99.8876 80.1841C102.695 75.8423 100.063 70.392 94.7983 69.3759C92.3414 68.914 89.2703 70.4844 87.6031 68.3597C86.0237 66.5122 87.3399 63.4637 86.9011 60.9695C86.1992 57.2744 83.479 54.5954 80.1447 54.5031C77.0736 54.4107 74.2657 56.8125 73.476 60.5076C73.125 62.2628 73.0372 64.2027 73.125 66.0503C73.2127 68.3597 72.3353 69.4683 70.0539 69.3759C68.1235 69.2835 66.1053 69.1911 64.1749 69.8378C60.9283 70.9463 59.0856 73.3481 59.1733 76.7661Z" fill="white" fill-opacity="0.2"/>
</svg>
