<?xml version="1.0" encoding="UTF-8"?>
<!DOCTYPE svg PUBLIC "-//W3C//DTD SVG 1.0//EN" "http://www.w3.org/TR/2001/REC-SVG-20010904/DTD/svg10.dtd">
<!-- Creator: CorelDRAW 2020 (64-Bit) -->
<svg xmlns="http://www.w3.org/2000/svg" xml:space="preserve" width="201px" height="58px" version="1.0" style="shape-rendering:geometricPrecision; text-rendering:geometricPrecision; image-rendering:optimizeQuality; fill-rule:evenodd; clip-rule:evenodd"
viewBox="0 0 122.13 35.31"
 xmlns:xlink="http://www.w3.org/1999/xlink"
 xmlns:xodm="http://www.corel.com/coreldraw/odm/2003">
 <defs>
  <style type="text/css">
   <![CDATA[
    .fil2 {fill:#FFED00;fill-rule:nonzero}
    .fil0 {fill:#3AABAC;fill-rule:nonzero}
    .fil1 {fill:#455069;fill-rule:nonzero}
   ]]>
  </style>
 </defs>
 <g id="Слой_x0020_1">
  <metadata id="CorelCorpID_0Corel-Layer"/>
  <g id="_2252865535872">
   <path class="fil0" d="M31.62 5.41l-3.51 4.68 -0.4 0 -3.43 -4.7 0 7.84 -2.03 0 0 -10.78 2.34 0 3.37 4.64 3.37 -4.64 2.32 0 0 10.78 -2.03 0 0 -7.82z"/>
   <path class="fil1" d="M17.64 9.24l0 -9.24c-9.74,0 -17.64,7.9 -17.64,17.64l9.24 0c0,-4.64 3.76,-8.4 8.4,-8.4z"/>
   <path class="fil0" d="M9.24 17.6l-9.24 -0.08c-0.08,9.75 7.75,17.71 17.5,17.79l0.07 -9.24c-4.64,-0.04 -8.37,-3.83 -8.33,-8.47z"/>
   <path class="fil2" d="M17.45 26.07l0.01 9.24c9.74,-0.01 17.63,-7.92 17.62,-17.67l-9.24 0.01c0,4.64 -3.75,8.41 -8.39,8.42z"/>
   <path class="fil1" d="M119.11 19.95l-1.89 0 0 -6.18c0,-0.53 -0.01,-0.99 -0.02,-1.39 -0.01,-0.41 -0.02,-0.82 -0.05,-1.22l-0.03 -0.4 2.11 0 0.02 0.81c0.13,-0.15 0.27,-0.29 0.42,-0.41 0.48,-0.38 1.05,-0.59 1.65,-0.59 0.1,0 0.19,0.01 0.28,0.02 0.08,0.01 0.16,0.03 0.25,0.05l0.28 0.07 0 2.2 -0.45 -0.1c-0.07,-0.01 -0.13,-0.02 -0.2,-0.03 -0.07,-0.01 -0.15,-0.01 -0.25,-0.01 -0.42,0 -0.79,0.15 -1.07,0.42 -0.31,0.3 -0.52,0.73 -0.61,1.23l0 0c-0.02,0.1 -0.04,0.21 -0.05,0.32 -0.01,0.1 -0.02,0.22 -0.02,0.34l0 4.87 -0.37 0z"/>
   <path class="fil1" d="M116.42 15.61l0 0.07 -0.04 0.33 -5.86 0c0.07,0.67 0.31,1.16 0.65,1.51 0.46,0.46 1.12,0.67 1.84,0.67 0.53,0 0.94,-0.05 1.29,-0.12 0.35,-0.07 0.64,-0.17 0.9,-0.29l0.41 -0.17 0.43 1.83 -0.28 0.12c-0.32,0.15 -0.78,0.31 -1.37,0.42 -0.45,0.09 -0.98,0.14 -1.59,0.14 -1.38,0 -2.5,-0.46 -3.29,-1.26 -0.79,-0.82 -1.23,-1.98 -1.23,-3.36 0,-1.4 0.43,-2.65 1.21,-3.54 0.75,-0.86 1.81,-1.39 3.12,-1.39 1.29,0 2.18,0.49 2.78,1.18 0.81,0.92 1.08,2.2 1.08,3.17 0,0.29 -0.03,0.52 -0.05,0.69l0 0zm-5.21 -2.65c-0.32,0.34 -0.52,0.78 -0.62,1.2l3.64 0c-0.04,-0.35 -0.14,-0.73 -0.35,-1.05 -0.25,-0.39 -0.67,-0.68 -1.34,-0.69 -0.04,0 0.02,0 -0.05,0 -0.56,0 -0.98,0.22 -1.28,0.54z"/>
   <path class="fil1" d="M103.19 10.76l0 -1.93 2.25 -0.6 0 2.53 2.19 0 0 1.92 -2.19 0 0 4.17c0,0.46 0.05,0.8 0.19,1.01 0.11,0.17 0.29,0.26 0.58,0.26 0.17,0 0.31,-0.01 0.43,-0.03 0.16,-0.01 0.28,-0.04 0.36,-0.06l0.45 -0.12 0.11 1.87 -0.25 0.1c-0.18,0.08 -0.41,0.14 -0.68,0.18 -0.24,0.04 -0.52,0.06 -0.82,0.06 -0.4,0 -0.77,-0.06 -1.09,-0.19 -0.33,-0.13 -0.61,-0.32 -0.83,-0.57 -0.27,-0.28 -0.45,-0.63 -0.56,-1.06 -0.1,-0.4 -0.14,-0.87 -0.14,-1.39l0 -4.23 -1.31 0 0 -1.92 1.31 0z"/>
   <path class="fil1" d="M96.33 19.96c-0.45,-0.11 -0.85,-0.27 -1.19,-0.47l-0.26 -0.15 0.63 -1.91 0.41 0.26c0.22,0.15 0.54,0.3 0.89,0.4 0.3,0.09 0.62,0.15 0.93,0.15 0.44,0 0.76,-0.1 0.97,-0.25 0.2,-0.16 0.29,-0.38 0.29,-0.63 0,-0.26 -0.07,-0.46 -0.24,-0.63 -0.21,-0.2 -0.56,-0.38 -1.08,-0.57 -0.8,-0.29 -1.4,-0.66 -1.81,-1.09 -0.45,-0.48 -0.67,-1.04 -0.67,-1.65 0,-0.81 0.34,-1.55 0.96,-2.07 0.56,-0.48 1.36,-0.78 2.33,-0.78 0.42,0 0.83,0.06 1.19,0.15 0.42,0.11 0.79,0.26 1.07,0.43l0.26 0.15 -0.63 1.85 -0.4 -0.25c-0.17,-0.1 -0.42,-0.23 -0.73,-0.32 -0.23,-0.06 -0.5,-0.11 -0.8,-0.11 -0.34,0 -0.6,0.09 -0.78,0.23 -0.17,0.14 -0.26,0.33 -0.26,0.55 0,0.22 0.09,0.39 0.26,0.53 0.22,0.18 0.59,0.35 1.11,0.55 0.78,0.3 1.38,0.65 1.8,1.11 0.43,0.48 0.65,1.06 0.65,1.78 0,0.87 -0.35,1.62 -1,2.14 -0.6,0.48 -1.46,0.76 -2.53,0.76 -0.48,0 -0.94,-0.06 -1.37,-0.16z"/>
   <path class="fil1" d="M94.05 18.6c0.02,0.33 0.05,0.64 0.1,0.91l0.08 0.44 -2.17 0 -0.07 -0.64c-0.21,0.17 -0.45,0.33 -0.72,0.46 -0.47,0.23 -1.01,0.37 -1.63,0.37 -0.9,0 -1.6,-0.3 -2.1,-0.77 -0.57,-0.53 -0.85,-1.28 -0.85,-2.03l0 0 0 -0.02c0,-1.14 0.51,-2.03 1.47,-2.63 0.86,-0.53 2.06,-0.82 3.59,-0.86 -0.02,-0.26 -0.07,-0.58 -0.24,-0.83 -0.2,-0.31 -0.59,-0.55 -1.3,-0.55 -0.35,0 -0.71,0.06 -1.05,0.16 -0.35,0.09 -0.67,0.24 -0.94,0.41l-0.4 0.26 -0.6 -1.74 0.25 -0.16c0.39,-0.25 0.86,-0.46 1.38,-0.6 0.5,-0.13 1.04,-0.21 1.59,-0.21 1.26,0 2.1,0.39 2.66,1 0.7,0.75 0.92,1.8 0.92,2.83l0 3.15c0,0.37 0.01,0.72 0.03,1.05zm-2.27 -1.7c0.01,-0.06 0.01,-0.11 0.01,-0.17l0 -1.09c-0.68,0.01 -1.37,0.08 -1.9,0.3 -0.54,0.22 -0.92,0.59 -0.92,1.23 0,0.36 0.1,0.63 0.28,0.8 0.19,0.19 0.47,0.29 0.79,0.29 0.42,0 0.77,-0.12 1.04,-0.31 0.32,-0.22 0.54,-0.53 0.64,-0.85l0.01 0c0.02,-0.06 0.03,-0.13 0.05,-0.2l0 0z"/>
   <path class="fil1" d="M85.64 19.95l-1.84 0c-0.1,-1.77 -0.31,-3.79 -0.31,-5.52 -0.05,-0.81 -0.09,-1.7 -0.13,-2.6l-0.01 -0.32 -0.03 0.09c-0.25,0.76 -0.52,1.53 -0.82,2.33l-2.16 5.95 -1.68 0 -1.98 -5.85 0 0c-0.28,-0.82 -0.53,-1.6 -0.75,-2.33l-0.01 0.12c-0.04,0.92 -0.09,1.86 -0.14,2.74l-0.33 5.39 -2.2 0 0.87 -12.5 2.55 0 2.09 5.93 0 0.01c0.25,0.75 0.48,1.44 0.67,2.07 0.07,0.23 0.13,0.45 0.19,0.67 0.07,-0.21 0.13,-0.43 0.2,-0.64 0.21,-0.66 0.44,-1.35 0.71,-2.11 0.65,-1.95 1.46,-3.98 2.18,-5.93l2.55 0 0.77 12.5 -0.39 0z"/>
   <path class="fil1" d="M64.85 11.94c0.84,-0.89 2.01,-1.37 3.31,-1.37 1.32,0 2.43,0.49 3.21,1.32 0.78,0.84 1.23,2.01 1.23,3.4 0,1.52 -0.49,2.67 -1.24,3.46 -0.89,0.95 -2.13,1.39 -3.34,1.39 -1.27,0 -2.39,-0.48 -3.19,-1.34 -0.76,-0.82 -1.22,-1.97 -1.22,-3.37 0,-1.47 0.47,-2.65 1.24,-3.49zm4.78 1.26c-0.34,-0.43 -0.83,-0.73 -1.5,-0.73 -0.7,0 -1.22,0.29 -1.57,0.74 -0.45,0.56 -0.65,1.37 -0.65,2.16 0,0.85 0.23,1.58 0.64,2.1 0.38,0.48 0.92,0.77 1.54,0.77 0.62,0 1.16,-0.29 1.54,-0.79 0.41,-0.51 0.65,-1.25 0.65,-2.11 0,-0.73 -0.2,-1.56 -0.65,-2.14z"/>
   <path class="fil1" d="M58.51 10.76l0 -1.93 2.25 -0.6 0 2.53 2.19 0 0 1.92 -2.19 0 0 4.17c0,0.46 0.06,0.8 0.19,1.01 0.11,0.17 0.3,0.26 0.59,0.26 0.16,0 0.3,-0.01 0.43,-0.03 0.15,-0.01 0.27,-0.04 0.36,-0.06l0.44 -0.12 0.11 1.87 -0.24 0.1c-0.19,0.08 -0.42,0.14 -0.69,0.18 -0.24,0.04 -0.51,0.06 -0.82,0.06 -0.4,0 -0.76,-0.06 -1.09,-0.19 -0.33,-0.13 -0.61,-0.32 -0.83,-0.57 -0.27,-0.28 -0.44,-0.63 -0.55,-1.06 -0.1,-0.4 -0.15,-0.87 -0.15,-1.39l0 -4.23 -1.3 0 0 -1.92 1.3 0z"/>
   <path class="fil1" d="M53.53 19.95l-1.89 0 0 -6.18c0,-0.53 0,-0.99 -0.01,-1.39 -0.01,-0.41 -0.03,-0.82 -0.06,-1.22l-0.02 -0.4 2.1 0 0.02 0.81c0.13,-0.15 0.28,-0.29 0.43,-0.41 0.47,-0.38 1.04,-0.59 1.64,-0.59 0.11,0 0.2,0.01 0.28,0.02 0.09,0.01 0.17,0.03 0.25,0.05l0.28 0.07 0 2.2 -0.45 -0.1c-0.06,-0.01 -0.13,-0.02 -0.2,-0.03 -0.07,-0.01 -0.14,-0.01 -0.24,-0.01 -0.43,0 -0.8,0.15 -1.08,0.42 -0.3,0.3 -0.52,0.73 -0.61,1.23l0 0c-0.02,0.1 -0.03,0.21 -0.05,0.32 -0.01,0.1 -0.01,0.22 -0.01,0.34l0 4.87 -0.38 0z"/>
   <path class="fil1" d="M41.02 9.12c1.05,-1.19 2.52,-1.86 4.22,-1.86 1.7,0 3.11,0.65 4.1,1.76 0.99,1.12 1.55,2.71 1.55,4.56 0,2.03 -0.59,3.61 -1.57,4.72 -1.07,1.21 -2.58,1.84 -4.25,1.84 -1.67,0 -3.09,-0.65 -4.1,-1.79 -0.98,-1.11 -1.56,-2.68 -1.56,-4.55 0,-1.93 0.6,-3.54 1.61,-4.68zm6.53 1.29c-0.55,-0.7 -1.34,-1.16 -2.38,-1.16 -2.26,0 -3.39,2.14 -3.39,4.52 0,1.23 0.35,2.39 0.99,3.21 0.57,0.72 1.37,1.17 2.38,1.17 1.03,0 1.85,-0.45 2.42,-1.19 0.63,-0.83 0.97,-2.01 0.97,-3.31 0,-1.18 -0.32,-2.39 -0.99,-3.24z"/>
   <path class="fil0" d="M55.1 26.86c0,-0.97 0.27,-1.74 0.81,-2.32 0.55,-0.57 1.26,-0.86 2.15,-0.86 0.76,0 1.36,0.21 1.79,0.64 0.43,0.42 0.65,0.99 0.65,1.71 0,0.85 -0.27,1.58 -0.81,2.2 -0.54,0.61 -1.26,0.92 -2.16,0.92 -0.49,0 -0.93,-0.1 -1.31,-0.29 -0.37,-0.2 -0.66,-0.48 -0.84,-0.84 -0.19,-0.36 -0.28,-0.75 -0.28,-1.16zm4 -1.01c0,-0.34 -0.09,-0.61 -0.29,-0.81 -0.19,-0.2 -0.44,-0.31 -0.75,-0.31 -0.3,0 -0.57,0.1 -0.8,0.29 -0.24,0.19 -0.42,0.46 -0.55,0.82 -0.13,0.36 -0.2,0.7 -0.2,1 0,0.38 0.1,0.68 0.31,0.9 0.2,0.22 0.45,0.33 0.76,0.33 0.38,0 0.71,-0.17 0.97,-0.5 0.37,-0.47 0.55,-1.05 0.55,-1.72zm2.93 -2.04l1.32 0 -0.2 0.98c0.49,-0.74 1.02,-1.11 1.58,-1.11 0.2,0 0.42,0.05 0.65,0.15l-0.54 1.15c-0.13,-0.04 -0.27,-0.07 -0.41,-0.07 -0.24,0 -0.49,0.1 -0.74,0.28 -0.25,0.18 -0.45,0.43 -0.59,0.74 -0.14,0.3 -0.28,0.79 -0.42,1.46l-0.33 1.63 -1.41 0 1.09 -5.21zm3.26 1.04l0.21 -1.04 0.69 0 0.17 -0.81 1.59 -0.98 -0.36 1.79 0.85 0 -0.21 1.04 -0.85 0 -0.46 2.2c-0.08,0.4 -0.13,0.62 -0.13,0.68 0,0.11 0.04,0.19 0.11,0.25 0.07,0.06 0.19,0.09 0.37,0.09 0.06,0 0.21,-0.01 0.46,-0.03l-0.22 1.04c-0.24,0.05 -0.49,0.07 -0.74,0.07 -0.5,0 -0.86,-0.1 -1.08,-0.29 -0.23,-0.19 -0.34,-0.46 -0.34,-0.8 0,-0.16 0.06,-0.53 0.19,-1.11l0.45 -2.1 -0.7 0zm4.41 4.17l-1.41 0 1.51 -7.19 1.4 0 -0.53 2.56c0.32,-0.25 0.62,-0.43 0.89,-0.54 0.28,-0.12 0.58,-0.17 0.9,-0.17 0.42,0 0.76,0.12 1.01,0.37 0.25,0.24 0.37,0.56 0.37,0.96 -0.01,0.21 -0.06,0.53 -0.15,0.97l-0.66 3.04 -1.4 0 0.67 -3.1c0.07,-0.33 0.1,-0.55 0.11,-0.65 0,-0.18 -0.05,-0.32 -0.16,-0.43 -0.11,-0.1 -0.26,-0.16 -0.45,-0.16 -0.24,0 -0.47,0.08 -0.69,0.25 -0.29,0.22 -0.51,0.48 -0.66,0.8 -0.08,0.17 -0.19,0.58 -0.32,1.23l-0.43 2.06zm4.92 -2.16c0,-0.97 0.27,-1.74 0.81,-2.32 0.55,-0.57 1.26,-0.86 2.15,-0.86 0.76,0 1.36,0.21 1.79,0.64 0.43,0.42 0.65,0.99 0.65,1.71 0,0.85 -0.27,1.58 -0.81,2.2 -0.54,0.61 -1.26,0.92 -2.16,0.92 -0.49,0 -0.93,-0.1 -1.31,-0.29 -0.37,-0.2 -0.66,-0.48 -0.84,-0.84 -0.19,-0.36 -0.28,-0.75 -0.28,-1.16zm4 -1.01c0,-0.34 -0.09,-0.61 -0.29,-0.81 -0.19,-0.2 -0.44,-0.31 -0.75,-0.31 -0.3,0 -0.57,0.1 -0.8,0.29 -0.24,0.19 -0.42,0.46 -0.55,0.82 -0.13,0.36 -0.2,0.7 -0.2,1 0,0.38 0.1,0.68 0.31,0.9 0.2,0.22 0.45,0.33 0.76,0.33 0.38,0 0.71,-0.17 0.97,-0.5 0.37,-0.47 0.55,-1.05 0.55,-1.72zm2.96 -2.04l1.33 0 -0.11 0.53c0.29,-0.24 0.56,-0.41 0.81,-0.51 0.24,-0.1 0.51,-0.15 0.8,-0.15 0.54,0 0.98,0.19 1.32,0.56 0.33,0.38 0.49,0.95 0.49,1.69 0,0.94 -0.28,1.74 -0.86,2.39 -0.49,0.55 -1.08,0.83 -1.75,0.83 -0.69,0 -1.22,-0.28 -1.57,-0.83l-0.56 2.69 -1.4 0 1.5 -7.2zm0.84 2.99c0,0.41 0.1,0.73 0.3,0.96 0.2,0.22 0.43,0.34 0.7,0.34 0.24,0 0.46,-0.09 0.68,-0.26 0.22,-0.17 0.4,-0.45 0.54,-0.84 0.15,-0.4 0.22,-0.76 0.22,-1.1 0,-0.39 -0.09,-0.69 -0.28,-0.9 -0.19,-0.21 -0.43,-0.32 -0.72,-0.32 -0.27,0 -0.52,0.1 -0.74,0.29 -0.22,0.19 -0.4,0.48 -0.52,0.85 -0.12,0.37 -0.18,0.7 -0.18,0.98zm9.33 0.05l-3.54 0c0,0.06 0,0.1 0,0.13 0,0.35 0.1,0.63 0.3,0.85 0.2,0.21 0.44,0.32 0.73,0.32 0.47,0 0.84,-0.24 1.1,-0.73l1.26 0.22c-0.25,0.5 -0.58,0.88 -0.99,1.13 -0.41,0.25 -0.87,0.38 -1.38,0.38 -0.71,0 -1.28,-0.22 -1.71,-0.66 -0.45,-0.45 -0.66,-1.04 -0.66,-1.77 0,-0.71 0.19,-1.35 0.59,-1.91 0.54,-0.75 1.31,-1.13 2.31,-1.13 0.64,0 1.15,0.2 1.52,0.59 0.38,0.4 0.57,0.95 0.57,1.66 0,0.34 -0.04,0.65 -0.1,0.92zm-1.19 -0.85c0,-0.06 0.01,-0.11 0.01,-0.15 0,-0.39 -0.09,-0.68 -0.26,-0.87 -0.18,-0.2 -0.41,-0.3 -0.7,-0.3 -0.29,0 -0.56,0.11 -0.79,0.34 -0.23,0.22 -0.38,0.55 -0.46,0.98l2.2 0zm6.51 3.02l-1.34 0 0.12 -0.56c-0.25,0.25 -0.5,0.43 -0.75,0.53 -0.25,0.11 -0.53,0.16 -0.84,0.16 -0.54,0 -0.97,-0.18 -1.31,-0.55 -0.33,-0.37 -0.5,-0.92 -0.5,-1.64 0,-0.84 0.24,-1.59 0.72,-2.27 0.47,-0.67 1.11,-1.01 1.89,-1.01 0.71,0 1.24,0.28 1.6,0.84l0.58 -2.69 1.41 0 -1.58 7.19zm-3.25 -2.11c0,0.37 0.09,0.66 0.28,0.87 0.19,0.21 0.43,0.32 0.7,0.32 0.26,0 0.5,-0.09 0.73,-0.27 0.22,-0.17 0.4,-0.44 0.53,-0.8 0.13,-0.36 0.2,-0.71 0.2,-1.04 0,-0.38 -0.1,-0.68 -0.3,-0.92 -0.21,-0.23 -0.45,-0.35 -0.71,-0.35 -0.42,0 -0.76,0.23 -1.03,0.69 -0.27,0.46 -0.4,0.96 -0.4,1.5zm6.08 -5.08l1.4 0 -0.26 1.28 -1.41 0 0.27 -1.28zm-0.41 1.98l1.4 0 -1.09 5.21 -1.41 0 1.1 -5.21zm5.22 3.25l1.36 0.22c-0.22,0.61 -0.55,1.08 -0.99,1.39 -0.44,0.32 -0.96,0.48 -1.54,0.48 -0.66,0 -1.18,-0.2 -1.57,-0.59 -0.39,-0.4 -0.58,-0.95 -0.58,-1.64 0,-0.57 0.11,-1.11 0.35,-1.61 0.23,-0.51 0.59,-0.9 1.06,-1.2 0.47,-0.29 0.99,-0.43 1.56,-0.43 0.61,0 1.1,0.16 1.47,0.48 0.37,0.32 0.57,0.75 0.62,1.27l-1.34 0.15c-0.03,-0.3 -0.12,-0.51 -0.27,-0.65 -0.14,-0.14 -0.33,-0.21 -0.57,-0.21 -0.27,0 -0.52,0.11 -0.76,0.31 -0.23,0.2 -0.41,0.51 -0.54,0.91 -0.13,0.41 -0.19,0.79 -0.19,1.14 0,0.31 0.08,0.55 0.23,0.72 0.15,0.16 0.33,0.25 0.56,0.25 0.22,0 0.44,-0.08 0.65,-0.25 0.21,-0.16 0.37,-0.41 0.49,-0.74z"/>
  </g>
 </g>
</svg>
