<svg width="630" height="585" viewBox="0 0 630 585" fill="none" xmlns="http://www.w3.org/2000/svg">
<path d="M92.0268 218.255C143.89 228.941 145.442 270.234 136.685 320.119L141.027 330.172C140.298 334.125 167.614 334.534 167.192 338.578C152.978 459.85 244.492 569.204 371.604 582.766C498.716 596.327 613.471 508.951 627.685 387.679C641.931 266.309 550.284 157.022 423.172 143.461C395.667 140.537 368.635 142.349 343.21 148.166C292.232 158.479 241.364 129.275 227.249 81.1549C214.924 39.2305 177.178 6.54516 128.986 1.43751C65.6346 -5.28252 8.659 38.2042 1.54496 98.5174C-5.03818 155.14 34.7629 206.607 92.0268 218.255Z" fill="#E7F5FB"/>
</svg>
