<svg width="18" height="18" viewBox="0 0 18 18" fill="none" xmlns="http://www.w3.org/2000/svg">
<path fill-rule="evenodd" clip-rule="evenodd" d="M1.0209 1.02086C1.41142 0.630333 2.04459 0.630333 2.43511 1.02086L9.0418 7.62754L15.6485 1.02086C16.039 0.630332 16.6722 0.630333 17.0627 1.02086C17.4532 1.41138 17.4532 2.04454 17.0627 2.43507L10.456 9.04175L17.0627 15.6484C17.4532 16.039 17.4532 16.6721 17.0627 17.0626C16.6722 17.4532 16.039 17.4532 15.6485 17.0626L9.0418 10.456L2.43511 17.0626C2.04459 17.4532 1.41142 17.4532 1.0209 17.0626C0.630375 16.6721 0.630375 16.039 1.0209 15.6484L7.62758 9.04175L1.0209 2.43507C0.630375 2.04455 0.630375 1.41138 1.0209 1.02086Z" fill="#A7BCC6"/>
</svg>
