<svg width="836" height="702" viewBox="0 0 836 702" fill="none" xmlns="http://www.w3.org/2000/svg">
<path d="M577.974 12.8708C431.279 -27.5671 280.722 31.48 198.005 148.977C174.246 180.94 126.916 249.246 83.2132 252.096C68.2375 253.155 53.3159 248.293 39.9743 241.367C-2.14485 219.507 -32.2988 189.027 -79.2669 176.015C-181.659 147.827 -286.88 186.85 -347.632 266.301C-371.73 296.386 -409.787 308.06 -444.865 300.231C-464.602 290.259 -483.942 278.705 -502.65 265.833C-516.853 255.691 -533.095 247.737 -550.978 242.848C-632.128 220.453 -715.98 268.19 -738.262 349.147C-760.656 430.298 -712.918 514.152 -631.963 536.434C-586.772 548.938 -540.719 539.551 -504.995 514.884C-458.327 482.689 -394.072 497.14 -365.836 546.183C-333.681 601.888 -280.663 645.439 -213.73 663.767C-109.366 692.576 -2.21826 651.559 58.0194 568.965C102.663 507.778 165.064 535.524 213.749 575.15C271.007 621.667 317.965 668.319 391.853 688.721C578.602 740.25 771.671 630.431 823.197 443.681C874.724 256.93 764.723 64.3995 577.974 12.8708Z" fill="#E7F5FB"/>
</svg>
